<?xml version="1.0" encoding="UTF-8" standalone="no"?>
<!-- Created with Inkscape (http://www.inkscape.org/) -->

<svg
   xmlns:dc="http://purl.org/dc/elements/1.1/"
   xmlns:cc="http://creativecommons.org/ns#"
   xmlns:rdf="http://www.w3.org/1999/02/22-rdf-syntax-ns#"
   xmlns:svg="http://www.w3.org/2000/svg"
   xmlns="http://www.w3.org/2000/svg"
   xmlns:sodipodi="http://sodipodi.sourceforge.net/DTD/sodipodi-0.dtd"
   xmlns:inkscape="http://www.inkscape.org/namespaces/inkscape"
   width="20"
   height="25"
   viewBox="0 0 5.2916665 6.6145835"
   version="1.1"
   id="svg1577"
   inkscape:export-filename="/home/raven/work/fryazino/project/fryazino/fr2/static/img/file-icon.png"
   inkscape:export-xdpi="150"
   inkscape:export-ydpi="150"
   inkscape:version="0.92.3 (2405546, 2018-03-11)"
   sodipodi:docname="file-icon.svg">
  <defs
     id="defs1571" />
  <sodipodi:namedview
     id="base"
     pagecolor="#ffffff"
     bordercolor="#666666"
     borderopacity="1.0"
     inkscape:pageopacity="0.0"
     inkscape:pageshadow="2"
     inkscape:zoom="15.839192"
     inkscape:cx="16.234462"
     inkscape:cy="7.9592988"
     inkscape:document-units="mm"
     inkscape:current-layer="layer1"
     showgrid="false"
     units="px"
     inkscape:window-width="1920"
     inkscape:window-height="1015"
     inkscape:window-x="0"
     inkscape:window-y="0"
     inkscape:window-maximized="1" />
  <metadata
     id="metadata1574">
    <rdf:RDF>
      <cc:Work
         rdf:about="">
        <dc:format>image/svg+xml</dc:format>
        <dc:type
           rdf:resource="http://purl.org/dc/dcmitype/StillImage" />
        <dc:title></dc:title>
      </cc:Work>
    </rdf:RDF>
  </metadata>
  <g
     inkscape:label="Layer 1"
     inkscape:groupmode="layer"
     id="layer1"
     transform="translate(0,-290.38539)">
    <g
       id="g2144"
       transform="matrix(0.30991817,0,0,0.30173371,5.9258006,295.3163)"
       style="stroke-width:1.13744426">
      <path
         sodipodi:nodetypes="cssssssc"
         inkscape:connector-curvature="0"
         id="rect3141"
         d="m -3.0234927,-7.058545 v 9.1243396 c 0,1.78144 -1.43416,3.21559 -3.21559,3.21559 h -9.3625693 c -1.78144,0 -3.21559,-1.43415 -3.21559,-3.21559 V -11.358025 c 0,-1.78143 1.43415,-3.21558 3.21559,-3.21558 h 4.15359"
         style="display:inline;opacity:1;fill:none;fill-opacity:1;stroke:#000000;stroke-width:0.60189754;stroke-linecap:round;stroke-miterlimit:4;stroke-dasharray:none;stroke-opacity:1" />
      <text
         id="text3145"
         y="2.9646895"
         x="-16.575907"
         style="font-style:normal;font-variant:normal;font-weight:normal;font-stretch:normal;font-size:7.35045528px;line-height:100%;font-family:'Futura PT';-inkscape-font-specification:'Futura PT';text-align:start;letter-spacing:0px;word-spacing:0px;writing-mode:lr-tb;text-anchor:start;display:inline;fill:#000000;fill-opacity:1;stroke:none;stroke-width:0.44789642px;stroke-linecap:butt;stroke-linejoin:miter;stroke-opacity:1"
         xml:space="preserve"><tspan
           style="font-style:normal;font-variant:normal;font-weight:normal;font-stretch:normal;font-family:Cuprum;-inkscape-font-specification:Cuprum;stroke-width:0.44789642px"
           y="2.9646895"
           x="-16.575907"
           id="tspan3143"
           sodipodi:role="line">FILE</tspan></text>
      <circle
         r="4.6453681"
         cy="-11.397922"
         cx="-6.9947925"
         id="path3147"
         style="display:inline;opacity:1;fill:none;fill-opacity:1;stroke:#000000;stroke-width:0.60189754;stroke-miterlimit:4;stroke-dasharray:none;stroke-opacity:1" />
      <g
         transform="matrix(0.26458333,0,0,0.26458333,-150.98708,-233.6738)"
         id="g3158"
         style="display:inline;stroke-width:1.13744426">
        <path
           style="stroke-width:2.27488852;stroke-miterlimit:4;stroke-dasharray:none"
           inkscape:connector-curvature="0"
           d="m 544.22807,849.20626 c -0.48381,0 -0.96762,-0.18416 -1.33589,-0.55248 l -5.53568,-5.53572 c -0.43136,-0.43132 -0.66891,-1.00469 -0.66891,-1.61459 0,-0.60405 0.23361,-1.17349 0.65782,-1.60346 0.42343,-0.42922 0.99448,-0.66669 1.60794,-0.66878 h 0.008 c 0.61465,0 1.2137,0.24679 1.64485,0.67794 l 1.32217,1.32213 v -7.94185 c 0,-1.26816 1.03176,-2.29993 2.29993,-2.29993 1.26816,0 2.29993,1.03177 2.29993,2.29993 v 7.94185 l 1.34246,-1.34246 c 0.43127,-0.43132 1.00469,-0.66886 1.61458,-0.66886 0.60406,0 1.1735,0.2336 1.60347,0.65781 0.42917,0.42344 0.66669,0.99448 0.66878,1.60794 0.002,0.61736 -0.24502,1.2197 -0.67795,1.65266 l -5.51538,5.51539 c -0.36828,0.36832 -0.85209,0.55248 -1.33589,0.55248 z m -5.26679,-8.66083 c -10e-4,0 -0.002,0 -0.004,0 -0.26076,5.9e-4 -0.50114,0.0994 -0.6768,0.27755 -0.18001,0.18248 -0.27915,0.42413 -0.27915,0.68049 0,0.25883 0.10086,0.50221 0.28396,0.6853 l 5.53563,5.53572 c 0.2242,0.2242 0.58899,0.2242 0.81319,0 l 5.51539,-5.51539 c 0.18711,-0.18716 0.29394,-0.44918 0.29299,-0.71889 -5.8e-4,-0.26076 -0.0994,-0.50114 -0.27755,-0.6768 -0.18247,-0.18 -0.42413,-0.27915 -0.68049,-0.27915 -0.25882,0 -0.5022,0.10087 -0.68534,0.28396 l -2.46421,2.46421 c -0.18789,0.18797 -0.47049,0.24416 -0.71613,0.14247 -0.24548,-0.10178 -0.40557,-0.34142 -0.40557,-0.60718 v -9.52827 c 0,-0.54352 -0.4422,-0.98568 -0.98568,-0.98568 -0.54353,0 -0.98569,0.44216 -0.98569,0.98568 v 9.52827 c 0,0.26576 -0.16009,0.5054 -0.40565,0.6071 -0.24552,0.10169 -0.5282,0.0455 -0.71614,-0.14248 l -2.44392,-2.44387 c -0.18629,-0.18634 -0.44692,-0.29304 -0.71539,-0.29304 z"
           id="path3156" />
      </g>
    </g>
  </g>
</svg>
