<?xml version="1.0" encoding="UTF-8" standalone="no"?>
<!-- Created with Inkscape (http://www.inkscape.org/) -->

<svg
   xmlns:dc="http://purl.org/dc/elements/1.1/"
   xmlns:cc="http://creativecommons.org/ns#"
   xmlns:rdf="http://www.w3.org/1999/02/22-rdf-syntax-ns#"
   xmlns:svg="http://www.w3.org/2000/svg"
   xmlns="http://www.w3.org/2000/svg"
   xmlns:sodipodi="http://sodipodi.sourceforge.net/DTD/sodipodi-0.dtd"
   xmlns:inkscape="http://www.inkscape.org/namespaces/inkscape"
   width="210mm"
   height="297mm"
   viewBox="0 0 210 297"
   version="1.1"
   id="svg996"
   inkscape:version="0.92.3 (2405546, 2018-03-11)"
   sodipodi:docname="maket.svg">
  <defs
     id="defs990">
    <mask
       id="id0">
      <linearGradient
         id="id1"
         gradientUnits="userSpaceOnUse"
         x1="10008.3"
         y1="10504.1"
         x2="8157.6201"
         y2="9613.1904">
        <stop
           offset="0"
           style="stop-opacity:1; stop-color:white"
           id="stop4" />
        <stop
           offset="1"
           style="stop-opacity:0; stop-color:white"
           id="stop6" />
      </linearGradient>
      <rect
         style="fill:url(#id1)"
         x="5490"
         y="2340"
         width="7186"
         height="15437"
         id="rect9" />
    </mask>
    <linearGradient
       id="linearGradient2261"
       gradientUnits="userSpaceOnUse"
       x1="10008.3"
       y1="10504.1"
       x2="8157.6201"
       y2="9613.1904">
      <stop
         offset="0"
         style="stop-opacity:1; stop-color:white"
         id="stop2257" />
      <stop
         offset="1"
         style="stop-opacity:0; stop-color:white"
         id="stop2259" />
    </linearGradient>
    <radialGradient
       id="id2"
       gradientUnits="userSpaceOnUse"
       cx="9041.71"
       cy="4701.8398"
       r="952.48999"
       fx="9041.71"
       fy="4701.8398">
      <stop
         offset="0"
         style="stop-color:#FFDB01"
         id="stop12" />
      <stop
         offset="0.678431"
         style="stop-color:#F9C100"
         id="stop14" />
      <stop
         offset="1"
         style="stop-color:#F4A700"
         id="stop16" />
    </radialGradient>
  </defs>
  <sodipodi:namedview
     id="base"
     pagecolor="#ffffff"
     bordercolor="#666666"
     borderopacity="1.0"
     inkscape:pageopacity="0.0"
     inkscape:pageshadow="2"
     inkscape:zoom="0.35"
     inkscape:cx="-3141.0361"
     inkscape:cy="1771.3225"
     inkscape:document-units="mm"
     inkscape:current-layer="layer3"
     showgrid="false"
     showguides="true"
     inkscape:window-width="1366"
     inkscape:window-height="707"
     inkscape:window-x="0"
     inkscape:window-y="0"
     inkscape:window-maximized="1"
     inkscape:measure-start="-3197.13,1965.76"
     inkscape:measure-end="-3535.53,1965.76" />
  <metadata
     id="metadata993">
    <rdf:RDF>
      <cc:Work
         rdf:about="">
        <dc:format>image/svg+xml</dc:format>
        <dc:type
           rdf:resource="http://purl.org/dc/dcmitype/StillImage" />
        <dc:title></dc:title>
      </cc:Work>
    </rdf:RDF>
  </metadata>
  <g
     inkscape:label="экран"
     inkscape:groupmode="layer"
     id="layer1"
     sodipodi:insensitive="true">
    <rect
       style="opacity:1;fill:#ffffff;fill-opacity:1;stroke:#000000;stroke-width:0.84338641;stroke-miterlimit:4;stroke-dasharray:none;stroke-opacity:1"
       id="rect1541"
       width="360.57745"
       height="1137.1389"
       x="-935.78497"
       y="-274.41592" />
  </g>
  <g
     inkscape:groupmode="layer"
     id="layer2"
     inkscape:label="сетка"
     style="display:none"
     sodipodi:insensitive="true">
    <rect
       y="-274.41592"
       x="-931.81622"
       height="1136.9856"
       width="22.180815"
       id="rect1830"
       style="opacity:1;fill:#f2f2f2;fill-opacity:1;stroke:none;stroke-width:2.07953048;stroke-miterlimit:4;stroke-dasharray:none;stroke-opacity:1" />
    <rect
       y="-274.41592"
       x="-935.78497"
       height="1136.9856"
       width="3.96875"
       id="rect1832"
       style="opacity:1;fill:#ffd5d5;fill-opacity:1;stroke:none;stroke-width:2.22221303;stroke-miterlimit:4;stroke-dasharray:none;stroke-opacity:1" />
    <rect
       style="opacity:1;fill:#ffd5d5;fill-opacity:1;stroke:none;stroke-width:2.22221303;stroke-miterlimit:4;stroke-dasharray:none;stroke-opacity:1"
       id="rect1834"
       width="3.96875"
       height="1136.9856"
       x="-909.63544"
       y="-274.41592" />
    <rect
       style="opacity:1;fill:#f2f2f2;fill-opacity:1;stroke:none;stroke-width:2.07953048;stroke-miterlimit:4;stroke-dasharray:none;stroke-opacity:1"
       id="rect1934"
       width="22.180815"
       height="1136.9856"
       x="-901.69794"
       y="-274.41592" />
    <rect
       style="opacity:1;fill:#ffd5d5;fill-opacity:1;stroke:none;stroke-width:2.22221303;stroke-miterlimit:4;stroke-dasharray:none;stroke-opacity:1"
       id="rect1936"
       width="3.96875"
       height="1136.9856"
       x="-905.66669"
       y="-274.41592" />
    <rect
       y="-274.41592"
       x="-879.51715"
       height="1136.9856"
       width="3.96875"
       id="rect1938"
       style="opacity:1;fill:#ffd5d5;fill-opacity:1;stroke:none;stroke-width:2.22221303;stroke-miterlimit:4;stroke-dasharray:none;stroke-opacity:1" />
    <rect
       y="-274.41592"
       x="-871.57965"
       height="1136.9856"
       width="22.180815"
       id="rect1940"
       style="opacity:1;fill:#f2f2f2;fill-opacity:1;stroke:none;stroke-width:2.07953048;stroke-miterlimit:4;stroke-dasharray:none;stroke-opacity:1" />
    <rect
       y="-274.41592"
       x="-875.5484"
       height="1136.9856"
       width="3.96875"
       id="rect1942"
       style="opacity:1;fill:#ffd5d5;fill-opacity:1;stroke:none;stroke-width:2.22221303;stroke-miterlimit:4;stroke-dasharray:none;stroke-opacity:1" />
    <rect
       style="opacity:1;fill:#ffd5d5;fill-opacity:1;stroke:none;stroke-width:2.22221303;stroke-miterlimit:4;stroke-dasharray:none;stroke-opacity:1"
       id="rect1944"
       width="3.96875"
       height="1136.9856"
       x="-849.39886"
       y="-274.41592" />
    <rect
       style="opacity:1;fill:#f2f2f2;fill-opacity:1;stroke:none;stroke-width:2.07953048;stroke-miterlimit:4;stroke-dasharray:none;stroke-opacity:1"
       id="rect1946"
       width="22.180815"
       height="1136.9856"
       x="-841.46136"
       y="-274.41592" />
    <rect
       style="opacity:1;fill:#ffd5d5;fill-opacity:1;stroke:none;stroke-width:2.22221303;stroke-miterlimit:4;stroke-dasharray:none;stroke-opacity:1"
       id="rect1948"
       width="3.96875"
       height="1136.9856"
       x="-845.43011"
       y="-274.41592" />
    <rect
       y="-274.41592"
       x="-819.28058"
       height="1136.9856"
       width="3.96875"
       id="rect1950"
       style="opacity:1;fill:#ffd5d5;fill-opacity:1;stroke:none;stroke-width:2.22221303;stroke-miterlimit:4;stroke-dasharray:none;stroke-opacity:1" />
    <rect
       y="-274.41592"
       x="-811.34308"
       height="1136.9856"
       width="22.180815"
       id="rect1952"
       style="opacity:1;fill:#f2f2f2;fill-opacity:1;stroke:none;stroke-width:2.07953048;stroke-miterlimit:4;stroke-dasharray:none;stroke-opacity:1" />
    <rect
       y="-274.41592"
       x="-815.31183"
       height="1136.9856"
       width="3.96875"
       id="rect1954"
       style="opacity:1;fill:#ffd5d5;fill-opacity:1;stroke:none;stroke-width:2.22221303;stroke-miterlimit:4;stroke-dasharray:none;stroke-opacity:1" />
    <rect
       style="opacity:1;fill:#ffd5d5;fill-opacity:1;stroke:none;stroke-width:2.22221303;stroke-miterlimit:4;stroke-dasharray:none;stroke-opacity:1"
       id="rect1956"
       width="3.96875"
       height="1136.9856"
       x="-789.16229"
       y="-274.41592" />
    <rect
       style="opacity:1;fill:#f2f2f2;fill-opacity:1;stroke:none;stroke-width:2.07953048;stroke-miterlimit:4;stroke-dasharray:none;stroke-opacity:1"
       id="rect1958"
       width="22.180815"
       height="1136.9856"
       x="-781.22479"
       y="-274.41592" />
    <rect
       style="opacity:1;fill:#ffd5d5;fill-opacity:1;stroke:none;stroke-width:2.22221303;stroke-miterlimit:4;stroke-dasharray:none;stroke-opacity:1"
       id="rect1960"
       width="3.96875"
       height="1136.9856"
       x="-785.19354"
       y="-274.41592" />
    <rect
       y="-274.41592"
       x="-759.04401"
       height="1136.9856"
       width="3.96875"
       id="rect1962"
       style="opacity:1;fill:#ffd5d5;fill-opacity:1;stroke:none;stroke-width:2.22221303;stroke-miterlimit:4;stroke-dasharray:none;stroke-opacity:1" />
    <rect
       y="-274.41592"
       x="-751.10651"
       height="1136.9856"
       width="22.180815"
       id="rect1964"
       style="opacity:1;fill:#f2f2f2;fill-opacity:1;stroke:none;stroke-width:2.07953048;stroke-miterlimit:4;stroke-dasharray:none;stroke-opacity:1" />
    <rect
       y="-274.41592"
       x="-755.07526"
       height="1136.9856"
       width="3.96875"
       id="rect1966"
       style="opacity:1;fill:#ffd5d5;fill-opacity:1;stroke:none;stroke-width:2.22221303;stroke-miterlimit:4;stroke-dasharray:none;stroke-opacity:1" />
    <rect
       style="opacity:1;fill:#ffd5d5;fill-opacity:1;stroke:none;stroke-width:2.22221303;stroke-miterlimit:4;stroke-dasharray:none;stroke-opacity:1"
       id="rect1968"
       width="3.96875"
       height="1136.9856"
       x="-728.92572"
       y="-274.41592" />
    <rect
       style="opacity:1;fill:#f2f2f2;fill-opacity:1;stroke:none;stroke-width:2.07953048;stroke-miterlimit:4;stroke-dasharray:none;stroke-opacity:1"
       id="rect1970"
       width="22.180815"
       height="1136.9856"
       x="-720.98822"
       y="-274.41592" />
    <rect
       style="opacity:1;fill:#ffd5d5;fill-opacity:1;stroke:none;stroke-width:2.22221303;stroke-miterlimit:4;stroke-dasharray:none;stroke-opacity:1"
       id="rect1972"
       width="3.96875"
       height="1136.9856"
       x="-724.95697"
       y="-274.41592" />
    <rect
       y="-274.41592"
       x="-698.80743"
       height="1136.9856"
       width="3.96875"
       id="rect1974"
       style="opacity:1;fill:#ffd5d5;fill-opacity:1;stroke:none;stroke-width:2.22221303;stroke-miterlimit:4;stroke-dasharray:none;stroke-opacity:1" />
    <rect
       y="-274.41592"
       x="-690.86993"
       height="1136.9856"
       width="22.180815"
       id="rect1976"
       style="opacity:1;fill:#f2f2f2;fill-opacity:1;stroke:none;stroke-width:2.07953048;stroke-miterlimit:4;stroke-dasharray:none;stroke-opacity:1" />
    <rect
       y="-274.41592"
       x="-694.83868"
       height="1136.9856"
       width="3.96875"
       id="rect1978"
       style="opacity:1;fill:#ffd5d5;fill-opacity:1;stroke:none;stroke-width:2.22221303;stroke-miterlimit:4;stroke-dasharray:none;stroke-opacity:1" />
    <rect
       style="opacity:1;fill:#ffd5d5;fill-opacity:1;stroke:none;stroke-width:2.22221303;stroke-miterlimit:4;stroke-dasharray:none;stroke-opacity:1"
       id="rect1980"
       width="3.96875"
       height="1136.9856"
       x="-668.68915"
       y="-274.41592" />
    <rect
       style="opacity:1;fill:#f2f2f2;fill-opacity:1;stroke:none;stroke-width:2.07953048;stroke-miterlimit:4;stroke-dasharray:none;stroke-opacity:1"
       id="rect1982"
       width="22.180815"
       height="1136.9856"
       x="-660.75165"
       y="-274.41592" />
    <rect
       style="opacity:1;fill:#ffd5d5;fill-opacity:1;stroke:none;stroke-width:2.22221303;stroke-miterlimit:4;stroke-dasharray:none;stroke-opacity:1"
       id="rect1984"
       width="3.96875"
       height="1136.9856"
       x="-664.7204"
       y="-274.41592" />
    <rect
       y="-274.41592"
       x="-638.57086"
       height="1136.9856"
       width="3.96875"
       id="rect1986"
       style="opacity:1;fill:#ffd5d5;fill-opacity:1;stroke:none;stroke-width:2.22221303;stroke-miterlimit:4;stroke-dasharray:none;stroke-opacity:1" />
    <rect
       y="-274.41592"
       x="-630.63336"
       height="1136.9856"
       width="22.180815"
       id="rect1988"
       style="opacity:1;fill:#f2f2f2;fill-opacity:1;stroke:none;stroke-width:2.07953048;stroke-miterlimit:4;stroke-dasharray:none;stroke-opacity:1" />
    <rect
       y="-274.41592"
       x="-634.60211"
       height="1136.9856"
       width="3.96875"
       id="rect1990"
       style="opacity:1;fill:#ffd5d5;fill-opacity:1;stroke:none;stroke-width:2.22221303;stroke-miterlimit:4;stroke-dasharray:none;stroke-opacity:1" />
    <rect
       style="opacity:1;fill:#ffd5d5;fill-opacity:1;stroke:none;stroke-width:2.22221303;stroke-miterlimit:4;stroke-dasharray:none;stroke-opacity:1"
       id="rect1992"
       width="3.96875"
       height="1136.9856"
       x="-608.45258"
       y="-274.41592" />
    <rect
       style="opacity:1;fill:#f2f2f2;fill-opacity:1;stroke:none;stroke-width:2.07953048;stroke-miterlimit:4;stroke-dasharray:none;stroke-opacity:1"
       id="rect1994"
       width="22.180815"
       height="1136.9856"
       x="-600.51508"
       y="-274.41592" />
    <rect
       style="opacity:1;fill:#ffd5d5;fill-opacity:1;stroke:none;stroke-width:2.22221303;stroke-miterlimit:4;stroke-dasharray:none;stroke-opacity:1"
       id="rect1996"
       width="3.96875"
       height="1136.9856"
       x="-604.48383"
       y="-274.41592" />
    <rect
       y="-274.41592"
       x="-578.33429"
       height="1136.9856"
       width="3.96875"
       id="rect1998"
       style="opacity:1;fill:#ffd5d5;fill-opacity:1;stroke:none;stroke-width:2.22221303;stroke-miterlimit:4;stroke-dasharray:none;stroke-opacity:1" />
  </g>
  <g
     inkscape:groupmode="layer"
     id="layer3"
     inkscape:label="base">
    <g
       style="clip-rule:evenodd;fill-rule:evenodd;image-rendering:optimizeQuality;shape-rendering:geometricPrecision;text-rendering:geometricPrecision"
       id="Слой_x0020_1"
       transform="matrix(9.3734401e-4,0,0,9.3734401e-4,-927.12965,-266.49123)">
      <metadata
         id="CorelCorpID_0Corel-Layer" />
      <path
         class="fil0"
         d="m 6334,14 7105,2 1406,-5 h 4835 c 1,2 1,4 1,6 l 12,21044 c 0,257 -51,495 -154,713 -102,217 -255,414 -460,590 h -1 c -205,179 -431,312 -678,400 -247,88 -516,132 -809,132 l -4157,-1 h -1468 c -287,0 -552,44 -795,131 -243,87 -465,219 -665,394 v 0 0 c -201,173 -351,363 -451,570 -101,207 -152,433 -154,677 0,13 -11,24 -25,24 -13,0 -24,-11 -24,-24 -2,-245 -53,-470 -152,-678 -99,-208 -248,-397 -444,-570 l -1,-1 c -200,-174 -422,-305 -667,-393 -245,-88 -512,-132 -801,-132 H 6328 l -4157,-1 c -290,0 -560,-44 -808,-132 -249,-89 -476,-222 -684,-401 l -1,-1 C 474,22180 321,21982 220,21764 118,21546 68,21309 70,21054 L 8,35 C 8,22 19,11 32,11 l 6301,1 z M 13439,64 6334,62 58,61 120,21056 v 0 0 c -2,248 47,478 145,689 99,212 248,405 446,578 v 0 c 203,175 425,305 668,392 243,87 507,130 792,130 l 4157,1 h 1459 c 295,0 567,45 817,134 250,89 477,223 682,402 l 2,1 c 201,177 353,372 456,586 63,133 108,272 133,419 25,-147 70,-287 134,-419 104,-214 258,-409 463,-586 v 0 c 205,-179 432,-313 681,-403 249,-89 519,-134 811,-134 h 1468 l 4157,1 c 287,0 550,-43 793,-129 242,-86 462,-217 663,-391 v 0 c 200,-172 348,-364 447,-574 100,-212 149,-443 149,-693 L 19631,40 13438,64 Z"
         id="path22"
         inkscape:connector-curvature="0"
         style="fill:#000000;fill-rule:nonzero" />
      <path
         class="fil1 str0"
         d="m 109,19293 c 449,-40 768,-261 1007,-593 163,177 309,329 468,428 219,136 467,191 683,182 216,-9 429,-90 638,-240 138,-99 244,-220 381,-377 28,29 52,55 76,80 136,144 262,268 399,353 221,137 470,192 688,183 217,-9 432,-91 643,-242 139,-100 246,-222 383,-374 166,185 313,338 473,438 220,137 469,192 686,182 217,-9 431,-91 642,-242 139,-100 246,-221 381,-377 164,180 322,350 481,450 219,136 467,191 683,182 216,-9 429,-90 638,-240 138,-99 250,-231 384,-389 163,177 326,346 485,445 219,136 467,191 683,182 216,-9 429,-90 638,-240 138,-99 244,-220 375,-375 160,180 289,347 448,446 219,136 467,191 683,182 216,-9 429,-90 638,-240 138,-99 270,-225 401,-381 160,179 309,341 469,440 219,136 467,191 683,182 216,-9 429,-90 638,-240 138,-99 269,-245 403,-397 163,183 337,357 496,456 219,136 467,191 683,182 216,-9 429,-90 638,-240 138,-99 250,-226 381,-383 236,334 614,580 1063,620"
         id="path24"
         inkscape:connector-curvature="0"
         style="fill:none;stroke:#2a2a29;stroke-width:20" />
      <path
         class="fil2"
         d="m 9459,19085 c -209,150 -423,231 -638,240 -216,9 -464,-45 -683,-182 -159,-99 -317,-269 -481,-450 -136,156 -242,277 -381,377 -210,151 -425,232 -642,242 -217,9 -466,-45 -686,-182 -160,-100 -307,-253 -473,-438 -137,153 -244,275 -383,374 -211,151 -426,233 -643,242 -217,9 -467,-46 -688,-183 -136,-85 -263,-209 -399,-353 -24,-25 -48,-51 -76,-80 -137,156 -244,278 -381,377 -209,150 -423,231 -638,240 -216,9 -464,-45 -683,-182 -159,-99 -305,-252 -468,-428 -238,331 -556,551 -1002,592 l 5,1763 c 0,254 44,472 145,689 209,448 649,804 1115,970 243,87 507,130 792,130 l 5617,1 c 295,0 567,45 817,134 477,171 922,536 1139,989 63,133 108,272 133,419 69,-400 278,-730 598,-1005 423,-369 925,-537 1492,-537 l 5625,1 c 554,0 1043,-160 1456,-521 390,-341 597,-751 597,-1267 l -1,-1730 c -447,-41 -824,-286 -1059,-620 -131,156 -243,284 -381,383 -209,150 -423,231 -638,240 -216,9 -464,-45 -683,-182 -159,-99 -333,-274 -496,-456 -133,153 -265,298 -403,397 -209,150 -423,231 -638,240 -216,9 -464,-45 -683,-182 -159,-99 -308,-261 -469,-440 -131,156 -263,282 -401,381 -209,150 -423,231 -638,240 -216,9 -464,-45 -683,-182 -159,-99 -288,-267 -448,-446 -131,155 -237,276 -375,375 -209,150 -423,231 -638,240 -216,9 -464,-45 -683,-182 -159,-99 -322,-268 -485,-445 -134,159 -246,290 -384,389 z"
         id="path26"
         inkscape:connector-curvature="0"
         style="fill:#0057c1" />
      <path
         class="fil3"
         d="m 8821,19325 c 216,-9 429,-90 638,-240 138,-99 250,-231 384,-389 163,177 326,346 485,445 219,136 467,191 683,182 216,-9 429,-90 638,-240 138,-99 244,-220 375,-375 160,180 289,347 448,446 219,136 467,191 683,182 216,-9 429,-90 638,-240 138,-99 270,-225 401,-381 160,179 309,341 469,440 219,136 467,191 683,182 216,-9 429,-90 638,-240 138,-99 269,-245 403,-397 163,183 337,357 496,456 219,136 467,191 683,182 216,-9 429,-90 638,-240 138,-99 250,-226 381,-383 235,333 612,578 1059,620 L 19633,45 13440,69 6146,67 6130,6963 78,6975 114,19297 c 446,-41 764,-262 1002,-592 163,177 309,329 468,428 219,136 467,191 683,182 216,-9 429,-90 638,-240 138,-99 244,-220 381,-377 28,29 52,55 76,80 136,144 262,268 399,353 221,137 470,192 688,183 217,-9 432,-91 643,-242 139,-100 246,-222 383,-374 166,185 313,338 473,438 220,137 469,192 686,182 217,-9 431,-91 642,-242 139,-100 246,-221 381,-377 164,180 322,350 481,450 219,136 467,191 683,182 z"
         id="path28"
         inkscape:connector-curvature="0"
         style="fill:#e1110d" />
      <g
         id="_147501352">
        <polygon
           class="fil4 str1"
           points="4361,13989 8931,15600 9838,15920 9838,7559 2403,3591 "
           id="polygon30"
           style="fill:#f4f9ff;stroke:#c5c8d7;stroke-width:75" />
        <path
           class="fil1 str2"
           d="m 11228,10835 c 1505,-4171 1765,-7901 580,-8330 -1185,-429 -3365,2605 -4870,6777 -1505,4171 -1765,7901 -580,8330 620,224 1549,-506 2550,-2002"
           id="path32"
           inkscape:connector-curvature="0"
           style="fill:none;stroke:#ffdb01;stroke-width:400" />
        <path
           class="fil1 str3"
           style="fill:none;stroke:#f4a700;stroke-width:250"
           d="m 11228,10835 c 1505,-4171 1765,-7901 580,-8330 -1185,-429 -3365,2605 -4870,6777 -1505,4171 -1765,7901 -580,8330 620,224 1549,-506 2550,-2002"
           mask="url(#id0)"
           id="path34"
           inkscape:connector-curvature="0" />
        <path
           class="fil5 str4"
           d="m 9994,4702 c 0,-511 -426,-926 -952,-926 -526,0 -952,415 -952,926 0,511 426,926 952,926 526,0 952,-415 952,-926 z"
           id="path36"
           style="fill:url(#id2);stroke:#ffdb01;stroke-width:75"
           inkscape:connector-curvature="0" />
        <polygon
           class="fil4 str1"
           points="17272,3586 15314,13984 9837,15916 9837,7555 "
           id="polygon38"
           style="fill:#f4f9ff;stroke:#c5c8d7;stroke-width:75" />
      </g>
      <g
         id="_147496864">
        <polygon
           class="fil6"
           points="56,54 6656,57 6638,7537 71,7550 "
           id="polygon41"
           style="fill:#da251d;fill-rule:nonzero" />
        <path
           class="fil7"
           d="m 3441,1367 -30,-29 h -59 l -29,30 -59,30 v 29 h -29 v 0 h -59 l -29,30 -59,30 -29,59 v 0 h -29 v 29 l -89,-118 -89,-59 -118,-118 -30,-59 -30,-88 -30,-59 -30,-59 -59,-59 -30,-29 h -29 l -29,30 V 780 721 692 l 59,29 h 29 v -59 l -30,-29 -59,-59 v 0 -59 -59 h 29 59 29 29 v -88 h -29 -29 -59 -29 v -29 h 59 v 0 l 29,-88 h -59 l -30,-29 v -29 -29 h -29 -88 v 29 59 h -59 l -29,30 v 59 h 29 59 v 59 h -29 -29 -59 -29 l 30,88 v 0 h 59 59 29 v 29 29 h -59 l -30,-29 v 88 l 30,29 59,29 v 29 59 177 h -29 l -59,59 v 88 l 59,147 59,88 30,206 h -59 -59 v -59 -29 -29 l -30,-29 v 29 h -29 v 29 l -59,30 h -118 -59 -29 l -59,30 v -29 -29 -59 l -59,-29 h -29 v 29 h 29 v 29 l -59,30 -59,30 -59,59 -59,-118 -118,-59 v 0 l -30,-59 h -29 v 29 l 30,29 v 88 l -89,-88 h -59 -29 l -29,30 v 29 0 0 h 29 l 29,-30 v 29 l 30,88 h -118 -59 l -29,30 h 59 v 29 h 29 l 30,29 v 29 l 30,29 59,59 h -88 l -59,30 -59,30 v 0 l -29,30 h 29 29 l 30,29 118,29 h 59 l -59,118 -29,118 v 118 29 l -29,30 -29,147 v 0 29 0 0 0 29 0 0 0 l -29,88 v 0 0 29 0 29 l -29,30 -29,59 v 0 l 30,59 v 29 l 29,-30 29,-30 29,-30 30,59 -29,30 v 0 59 0 h 236 v -29 -118 -29 0 h 29 l 30,59 v 88 0 29 h 29 l 29,-30 h 29 v 0 -29 -59 -29 l 59,88 89,59 29,-30 89,118 -88,206 -147,236 -29,30 -29,59 -29,88 -29,88 v 29 88 59 88 l -89,-88 -118,-29 -88,-29 -89,-88 -59,-59 -59,-29 h -88 -59 -59 l -29,88 -29,59 -59,206 -29,59 -29,30 -88,177 v 177 118 h -29 l -29,59 v 59 118 29 l 30,29 30,29 v 0 l 235,-236 29,-30 v 0 l -30,-59 h -29 l -30,-29 v -59 l 59,-30 29,-59 29,-88 29,-88 v -88 -29 l 59,-89 29,-30 29,-30 59,59 118,88 118,147 148,147 -29,30 h -29 -177 v 0 l -59,30 -59,30 -29,88 -88,206 -29,59 h -29 l -29,59 -88,89 -59,118 -29,88 v 29 l 30,29 v 29 88 l -59,118 -29,30 v 118 0 l -29,30 -177,59 H 359 l -88,30 h -29 v 29 l 206,88 148,118 59,88 30,29 v 0 h 29 l 147,-30 118,29 59,59 30,29 v 29 l 29,-30 59,-30 59,-30 118,29 v 177 88 29 l -59,30 -59,30 -89,-59 -118,-29 -148,-88 -206,-88 H 477 l -147,30 h -29 v 29 l 59,29 30,29 -88,59 -29,88 v 29 h 29 l 118,-59 h 88 v 29 l -29,59 v 59 0 l 29,-30 29,-30 h 59 l 30,29 148,147 v -29 l 88,-30 h 88 l 59,29 h 29 l 30,29 118,59 89,59 59,29 59,29 59,29 59,-30 29,-59 h 29 l 29,-30 30,29 118,59 h 29 l -29,30 30,59 -147,-29 h -177 -177 -59 -29 l -177,-29 H 833 745 686 v 29 l 30,29 v 29 0 l -88,30 -59,59 -59,30 v 29 l -29,30 h 88 29 l 59,-30 h 88 l -59,59 v 59 l -29,30 29,-30 206,-30 h 88 l 59,29 v 0 l 30,59 h 29 l 30,29 v -29 l 29,-88 59,-30 h 29 l 206,88 236,29 h 206 l 59,-30 h 29 l 147,29 30,29 v 0 h 29 l 59,29 29,-30 29,-59 v 0 0 l 29,-59 29,-59 59,29 h 118 147 206 l 29,-30 -59,59 v 88 29 29 h 29 l 29,-59 88,-30 -29,88 v 59 29 l 30,29 v -29 l 88,-59 88,-59 h 118 l 59,-30 v 0 l 147,29 147,-30 88,-30 88,-30 88,-89 29,-59 -30,-29 -59,-29 -30,-29 -59,-59 v -88 l 29,-59 88,-89 59,-59 207,176 206,59 177,29 h 59 29 l 59,88 v 29 29 l -59,30 h -59 l -265,1 h -88 l -59,30 -29,30 v 29 29 h 29 v 0 l -59,59 -29,30 -29,30 h 147 v -29 59 h 29 l 59,-30 v 0 h 236 177 l 118,-30 88,-59 59,-59 29,-88 88,-59 v -88 -29 l -30,-59 -89,-59 -88,-29 -59,-59 -30,-59 v 0 l 29,-88 89,59 177,88 265,58 265,-1 206,-89 147,-118 88,-206 v -236 l 29,-59 -30,-88 -30,-118 -118,-206 -89,-177 -59,-206 29,-88 59,-118 h 29 l 29,-30 h 59 29 l 59,88 -30,-29 -59,30 -29,59 -29,59 30,29 59,88 89,88 v 59 88 29 h 29 l 29,-30 88,-59 59,-89 29,-118 v -206 l -148,-206 -30,-29 -118,-29 -177,-29 -118,30 -88,59 -29,59 -88,118 -59,177 v 118 l 30,147 59,147 89,147 59,88 59,118 v 118 l -59,118 -88,89 h -147 l -147,-59 -206,-59 -236,-117 v -206 h 88 l 118,-30 v -29 l 29,-118 29,-177 88,-206 147,-177 29,-88 v 0 l -59,-59 -30,-29 -30,-29 -59,-59 -59,-118 -30,-147 v -118 l 59,-118 88,-148 59,-147 29,-265 -30,-265 -59,-147 -89,-118 h 118 l 147,29 30,88 30,88 v 147 236 236 l 59,206 118,206 148,88 h 206 v 0 l 29,-30 v -29 l -30,-29 -30,-59 -59,-59 v -118 l 59,-177 117,-295 58,-265 -1,-265 -59,-118 -59,-118 -89,-88 -147,-59 -147,-59 h -147 l -147,30 -147,59 -118,118 -118,118 -147,-29 -206,-29 h -59 l -88,30 -118,30 -88,30 -30,-29 -89,-59 -89,-59 -59,-88 -30,-88 -30,-118 -59,-88 -30,-59 v 0 0 l -30,-29 v -88 l -30,-59 -30,-88 29,-59 29,-59 v -29 l 29,-30 89,236 118,177 118,88 89,88 h 29 l 118,29 118,-59 29,-59 v -29 h 29 29 l 88,29 h 59 l 29,-30 29,-59 59,-89 59,-59 h 59 118 l 88,-59 59,-59 v -59 -88 l 29,-59 29,-30 29,-30 177,-118 88,-118 v -118 l -30,-59 -30,-59 -30,-29 -59,-29 -59,30 -88,-29 h -88 l -206,-29 v 0 l 29,-30 v -59 l -30,-29 -59,-29 v 0 0 0 l -88,-29 h -29 l -295,-29 -295,-29 h -236 -206 29 -29 v 0 l -30,-29 -30,-29 -30,-59 118,59 59,29 h 88 l 88,-89 29,-88 29,-30 h 29 29 l 30,59 h 29 l 88,29 59,-30 29,-88 29,-88 29,-30 v -29 h -29 l -59,30 -29,59 -29,30 h -29 l -59,-29 -59,-88 h -59 l -59,30 -59,59 -29,59 -59,30 h -29 V 968 880 762 644 l -89,-177 -118,-88 -59,-59 h -88 l -88,-29 -118,-29 -88,30 v 29 l 30,29 59,88 30,29 30,29 v 0 l -59,30 -59,89 -59,89 -29,147 v 29 l 59,118 v 0 l 30,177 v 0 l 30,29 h 29 v 0 29 0 0 0 0 l 30,29 30,29 h 59 l -59,30 v 29 0 0 z m -204,1209 -177,118 -88,89 29,-59 v -59 0 h -29 v 0 -118 l 295,-30 -29,59 v 0 0 z m 58,-472 -59,89 h -59 l -88,30 h -29 v -29 h 29 59 l -59,-29 -59,-59 -30,-59 v 29 -29 l 29,-30 h 59 v -29 h -29 -29 -59 v -29 0 0 l -30,-29 -30,-29 h 88 l 118,-59 h 118 29 v 88 l 30,177 v 0 0 z m -378,2388 -29,59 -147,148 h 29 v 29 l 59,29 h 118 l 88,-89 88,-30 88,-59 h 59 l 59,-30 29,-30 295,-30 236,-59 59,118 89,118 148,177 89,147 30,59 30,88 -29,88 -29,88 v 29 0 l -29,59 -88,177 -176,236 -235,207 v 29 l -206,59 -147,59 -118,89 -88,59 147,-148 59,-59 29,-59 v 0 l -59,-29 h -59 l -30,-29 -59,-29 -59,30 59,-118 118,-148 118,-59 88,-30 h 29 l 29,-30 -30,-29 v 0 l 29,-59 88,-59 118,-30 118,-30 v 0 -29 -29 l 29,-118 59,-89 59,-30 29,-30 v 0 0 l -30,-29 v 0 l -118,30 -177,30 -236,-29 h -206 l -177,-29 h -147 -118 -147 l -1,-265 -30,-295 59,-59 h 29 v -29 59 29 0 h 29 88 v 0 0 z m -4,-2210 v 0 h 59 z m -237,-677 h -59 v 0 -59 0 l -30,-29 h -29 l -29,30 -1,-265 v 0 l 30,118 118,206 v 0 0 z m -83,2859 30,324 1,295 -88,30 -118,89 -59,89 30,88 89,88 89,118 30,147 h -29 -29 v 0 29 59 l -59,118 -59,118 -89,-118 -118,-147 -177,-147 -177,-88 v -29 l -30,-118 -30,-88 v 0 l 29,-88 v -59 -59 0 0 l -59,-29 h -88 l -147,30 -118,59 -59,59 -206,148 -177,89 h -29 l 29,-88 v -59 h 59 l 59,-59 59,-147 29,-177 59,-118 59,-89 29,-30 59,-30 59,-89 h 88 l 118,29 295,-1 h 147 l 147,-30 118,-30 88,-30 v -88 0 -29 -59 -29 h 29 v 29 l 118,118 v 0 0 z m -622,-1679 -177,-118 -118,-59 29,-30 v 0 0 -29 l 59,-59 29,-30 88,-30 88,-89 30,88 v 147 l -29,206 v 0 0 z m 2128,3208 59,-59 118,-59 118,-30 29,-59 -30,-29 v -29 l 29,-118 59,-177 147,-236 29,-30 29,-88 v 0 l -59,-88 -30,-88 v -88 -59 l 147,59 118,88 89,59 30,59 30,59 30,88 -29,30 v 29 l -29,59 -29,88 -59,118 -147,266 -206,236 v 29 l -206,-29 h -236 v 0 0 z"
           id="path43"
           inkscape:connector-curvature="0"
           style="fill:#000000" />
        <path
           class="fil8"
           d="m 3292,984 -30,-59 v -59 l 29,-118 59,-118 59,-59 29,-30 29,-30 v 0 -59 l -59,-29 -59,-59 -30,-29 59,-30 88,29 h 88 l 89,59 88,29 89,88 89,147 v 118 118 29 l -29,30 v 59 l 30,59 h 88 l 59,-30 29,-59 29,-59 59,-30 30,29 88,29 59,59 h 29 29 l 29,-59 29,-59 -29,118 -29,59 -59,30 -30,-29 h -29 l -59,-59 -30,-29 -29,30 -59,59 -29,59 -88,89 h -59 l -59,-29 -89,-59 -59,-29 v 29 29 l -30,-29 -30,-29 -30,-29 -30,-59 -30,-59 h -59 -88 v 0 0 l -59,30 h -88 v 0 0 z m 205,-472 88,29 59,59 30,118 30,177 59,177 V 895 l -30,-147 -30,-88 -30,-59 -59,-59 -118,-29 v 0 0 z"
           id="path45"
           inkscape:connector-curvature="0"
           style="fill:#e7e8e9" />
        <path
           class="fil9"
           d="m 4944,1541 h 29 118 l 147,29 177,29 -29,30 -59,59 -29,59 v 29 h -59 l -59,30 -88,30 h -29 l -30,-29 -59,-29 -30,-29 -30,-29 v -88 l 29,-88 v 0 0 z M 3441,1397 h 29 l 30,29 265,-1 88,-89 v 0 l 206,-30 h 236 l 295,29 354,58 h -59 v 0 l -294,295 v 0 h -29 -29 l -59,-29 -59,-29 -89,-59 -147,-29 -206,-29 -88,-29 -118,-29 h -118 -118 -29 -59 l -30,-29 v 0 0 h -29 l -29,30 -30,-29 h -29 v 0 l 29,-30 59,-30 h 29 v 0 29 h 29 v 0 0 z m 1562,-3 59,29 v 29 l -29,30 -29,30 v 0 0 0 h -29 v 0 0 0 0 0 h -29 v 0 0 0 0 0 0 0 0 0 0 h -29 v 0 0 0 0 0 0 0 0 0 0 0 l -29,59 v 59 59 l -29,30 v 29 l 207,117 236,-59 147,-207 h 118 v 29 l 30,29 30,59 -29,88 -59,147 -177,89 -29,30 -29,30 -29,88 v 88 59 l -29,59 -88,30 h -118 -59 l -88,59 -59,89 -29,59 -29,30 h -29 l -59,-29 h -59 l -29,30 h -29 v 0 0 l -29,59 -29,30 -59,30 -88,-29 h -29 l -118,-88 -118,-88 -89,-177 -89,-265 59,-118 29,-118 29,-177 v -118 l -30,-29 v 0 l 177,29 147,29 88,29 59,29 30,29 h 88 29 l 59,-59 88,-89 88,-118 59,-30 88,-30 v 0 0 z"
           id="path47"
           inkscape:connector-curvature="0"
           style="fill:#3d92c8" />
        <path
           class="fil10"
           d="m 2470,2165 v 88 l -59,30 -29,30 -29,30 v 88 l 59,118 89,59 1,265 -265,1 -236,-88 29,-206 v -177 l -30,-88 v 0 l 59,-89 29,-88 v -118 h 29 29 l 89,59 118,29 118,59 v 0 0 z m 61,855 1,501 v 29 l -118,89 -118,30 -265,30 -265,1 -88,-29 h -59 v -29 l 29,-88 29,-88 29,-30 29,-30 147,-236 88,-236 h 59 l 29,-30 89,88 59,29 59,-30 29,-30 59,88 30,29 88,-30 59,-30 v 0 0 z m 412,-443 v 88 h -29 v 0 l -147,118 -147,59 v 0 -59 l -30,-177 h 88 l 59,-30 h 59 147 v 0 0 z m -384,-294 v -59 h 29 v 29 29 h -29 v 0 0 z m 147,0 59,29 59,29 v 0 h -59 -59 v -59 0 0 z m 178,619 v 88 l -118,118 -59,59 -29,88 -29,59 30,118 -29,206 v -236 l -30,-206 v -118 -59 h 59 l 88,-30 29,-88 59,29 29,-30 v 0 0 z m 1504,321 h 29 l 88,29 88,29 89,147 89,206 h -177 v -177 l -59,-118 -89,-88 -59,-29 v 0 0 z m 118,-30 h 29 v 0 0 h 29 l 59,29 88,29 89,88 89,118 30,147 -118,30 -30,-88 -89,-206 -89,-88 -89,-59 v 0 0 z m 118,-30 h 29 59 l 148,118 118,118 59,88 30,88 -88,30 -59,-177 -89,-118 -118,-88 z m 147,29 h 59 v 0 l 59,29 118,59 148,88 59,177 -88,30 -59,-88 -59,-118 -89,-88 -148,-88 v 0 0 z m 324,88 118,118 59,118 h -29 l -59,-147 -89,-88 v 0 0 z m -530,325 h -118 l -59,-177 -89,-147 v -29 l 59,-30 30,29 89,59 59,118 30,177 v 0 0 0 z m -147,0 -88,-29 h -59 l 29,-206 v -29 l 89,118 30,147 v 0 0 z m 884,-2 -59,30 v -88 h 29 l 30,59 v 0 0 z m -88,59 -88,59 v 0 -118 l 88,-30 v 0 88 0 0 z m -118,59 -118,30 v -118 l 118,-30 z m -147,59 h -118 l -30,-118 118,-30 30,147 v 0 0 0 z m -147,0 h -206 v 0 -118 h 177 l 30,118 v 0 0 z m -236,0 -88,-29 v -118 l 88,29 z m -118,-29 -206,-59 29,-88 h 59 l 88,29 z m 855,-90 30,147 -59,-59 -30,-29 v 0 -29 z m 30,206 -58,236 -29,147 -88,118 -59,147 v 118 l 59,206 89,147 30,29 v 0 h 29 v 29 h 29 l 30,29 v 29 l -29,30 -176,236 -59,206 -59,177 v 59 29 0 l -88,30 h -118 -29 v 206 l -118,-29 -88,-29 v 0 l 176,-236 147,-266 88,-236 29,-59 v -29 l 29,-30 v -29 -88 l -118,-118 -207,-147 -236,-117 -118,-147 -89,-118 v -29 -29 l -30,-59 v -29 l -59,-29 h -88 l -118,89 -118,59 -147,59 -383,30 -30,-88 -30,-88 324,-60 324,-148 176,-177 118,-177 206,59 v 59 l -59,30 v 29 59 l 30,88 59,29 59,29 h 29 29 l 29,-30 59,-89 v -59 l -59,-59 -30,-59 h 206 v 59 l -29,88 v 29 29 0 0 l 30,29 59,29 h 59 l 59,-59 59,-89 v 0 l -30,-59 -30,-29 v -29 l 118,-59 v 29 59 29 29 l 30,29 30,88 h 59 l 59,-59 59,-89 v 0 0 z m -207,-117 88,-30 30,29 v 29 l 30,29 30,29 v 0 l -59,118 -29,30 h -29 l -30,-59 -30,-59 v 0 0 -88 -29 0 0 z m -295,60 h 118 v 29 29 0 h 29 l 30,59 v 0 l -29,88 -88,30 -59,-29 -30,-29 v -29 -59 l 29,-59 v -29 0 0 z m -354,1 h 88 v 29 l 30,59 59,88 v 0 l -59,59 h -29 v 29 h -29 l -88,-29 -30,-88 v -59 l 29,-30 h 29 v -59 0 0 z m -1531,651 h -59 -59 v -59 l 29,-59 v -59 l 29,-30 -30,-29 -117,207 -29,30 v -59 -147 l -30,-177 v -206 l 59,147 30,88 89,88 118,59 h 88 v 118 l -29,30 -88,59 v 0 0 z m -354,-58 -89,-59 -30,-29 -30,-29 v 0 l -29,59 v 88 0 0 59 l -59,30 -118,30 -265,30 -295,-29 h -118 -118 -29 v 0 l -59,89 -29,30 h -29 v 0 0 l -29,30 -59,89 -59,118 -29,206 -29,88 -29,59 -29,30 h -59 -29 l -30,-29 v 29 l 30,88 -29,59 v 59 h -29 l 30,29 29,-30 v 0 l 30,29 v 0 29 88 l -59,59 -59,59 -88,89 h -29 l -30,-29 v 0 -206 l 29,-30 88,-30 v -29 h -88 l 29,-59 v -29 l 59,-147 v -88 -29 0 -29 h -29 v -29 l 29,-59 29,-88 147,-177 29,-30 29,-59 88,-177 29,-88 59,-30 h 29 v 0 h 29 59 59 29 29 v -29 0 h 29 l 118,-89 29,-30 h 29 l 88,-30 h 29 88 l 118,-30 118,29 v 0 -29 l -30,-29 h -88 -88 -29 v 0 h -118 -59 -29 l 29,-30 v 0 l -30,-29 v 0 l 118,-30 88,-89 147,-177 v 0 l 59,59 59,59 h 59 l 59,-30 59,-59 29,-59 v 29 0 0 l 88,29 h 59 l 59,-59 31,619 v 0 0 z"
           id="path49"
           inkscape:connector-curvature="0"
           style="fill:#ffffff" />
        <polygon
           class="fil7"
           points="1498,2580 1557,2579 1527,2609 1498,2580 1439,2550 1321,2462 1439,2550 "
           id="polygon51"
           style="fill:#000000" />
        <polygon
           class="fil7"
           points="1762,2107 1821,1989 1850,1960 1880,1960 1850,1930 1880,1960 1909,2019 1880,2137 1821,2255 1792,2284 1704,2461 1675,2550 1675,2579 1645,2550 1616,2520 1674,2285 "
           id="polygon53"
           style="fill:#000000" />
        <polygon
           class="fil11"
           points="2466,426 2437,426 2466,603 2496,632 2525,662 2526,691 2467,662 2437,662 2437,662 2437,721 2467,839 2467,957 2467,986 2467,1016 2438,1016 2438,986 2408,927 2408,809 2408,692 2408,662 2408,633 2349,603 2319,574 2319,544 2348,574 2407,603 2407,456 2378,456 2319,456 2260,456 2230,456 2230,427 2260,427 2319,426 2348,426 2378,426 2377,338 2348,338 2289,338 2289,279 2318,279 2377,279 2377,249 2377,191 2407,190 2436,190 2436,220 2436,249 2466,249 2525,279 2525,308 2466,308 2436,308 2437,397 2466,397 2495,397 2554,396 2584,396 2584,426 2554,426 2496,426 "
           id="polygon55"
           style="fill:#ffcb05" />
        <polygon
           class="fil8"
           points="2027,1812 2027,1842 1938,1842 1938,1812 1909,1754 1938,1724 1938,1636 1967,1665 1997,1724 "
           id="polygon57"
           style="fill:#e7e8e9" />
        <polygon
           class="fil10"
           points="6008,4604 5979,4604 5802,4575 5684,4516 5565,4340 5506,4104 5506,3868 5505,3662 5505,3515 5475,3397 5416,3309 5328,3279 5239,3279 5180,3280 5121,3280 5062,3250 5003,3221 5121,3103 5239,2985 5356,2926 5504,2896 5651,2895 5798,2954 5916,3013 6005,3101 6064,3219 6123,3307 6124,3572 6036,3838 5948,4103 5889,4192 5890,4310 5890,4428 5949,4516 5978,4545 6008,4575 "
           id="polygon59"
           style="fill:#ffffff" />
        <polygon
           class="fil12"
           points="4236,1425 4472,1424 4590,1453 4679,1483 4561,1601 4502,1572 4354,1513 4178,1454 3912,1396 3942,1396 4001,1396 4118,1395 "
           id="polygon61"
           style="fill:#297aa9" />
        <polygon
           class="fil12"
           points="5119,2366 5060,2366 4972,2366 4854,2396 4796,2514 4766,2573 4766,2603 4766,2573 4766,2544 4737,2485 4648,2426 4471,2220 4294,2043 4234,1985 4205,1955 "
           id="polygon63"
           style="fill:#297aa9" />
        <polygon
           class="fil12"
           points="4413,2692 4383,2751 4383,2721 4324,2662 4265,2574 4206,2486 4058,2280 4029,2221 3999,2191 4530,2603 4501,2633 4472,2662 "
           id="polygon65"
           style="fill:#297aa9" />
        <polygon
           class="fil10"
           points="3410,1043 3410,1014 "
           id="polygon67"
           style="fill:#ffffff" />
        <path
           class="fil10"
           d="m 1203,2698 v 0 l 29,-30 v -29 h 29 v -59 l 236,88 v 29 118 h -29 -59 -59 -29 v -29 0 l 29,-30 v 0 0 l -30,-59 -30,-29 -59,30 -29,30 v -29 0 0 z m 411,-679 -29,30 v 0 h -59 l -59,30 h -29 -29 l 30,29 v 0 0 l 30,59 30,29 v 88 l 147,-266 v 0 0 h -29 v 0 0 0 z m -59,59 v 0 59 l -29,30 v -29 h -29 v 0 l -30,-29 v 0 l 59,-30 h 29 v 0 0 z m -294,472 29,-59 148,88 z m 29,-147 59,-206 v 0 -118 l 29,-118 29,-59 29,-30 59,-30 v 0 0 h 29 l 59,-59 h 59 l 59,29 v 29 h 29 v 0 l 30,29 59,59 -29,88 -88,118 -59,177 -88,236 v 0 h 29 l -295,-147 v 0 0 z m 559,-443 h 29 l 30,59 -29,118 -59,118 -29,30 -88,177 -29,88 v 29 0 l -30,-29 -30,-29 58,-236 88,-148 59,-118 29,-59 v 0 0 z m 88,0 59,29 h 29 v 29 0 l 30,88 -29,59 -29,59 -118,148 -59,59 h -29 l -59,30 88,-148 29,-59 59,-147 29,-88 z m -293,708 v 29 59 29 0 l -29,30 v -59 -59 l 29,-30 v 0 0 z m -59,0 v 0 l -30,-29 v -29 0 h 29 v 59 0 0 z m -266,-206 118,88 59,29 h 59 l -29,30 -30,-29 -59,-29 -118,-88 v 0 0 z"
           id="path69"
           inkscape:connector-curvature="0"
           style="fill:#ffffff" />
        <polygon
           class="fil13"
           points="1592,5586 1445,5763 1357,6058 1239,6028 1151,6058 1504,5527 1063,6088 974,5999 886,5970 768,5970 1533,5379 709,6000 650,5941 591,5853 473,5765 325,5706 472,5676 679,5646 679,5823 679,5853 709,5882 797,5882 885,5793 973,5675 1032,5557 1003,5528 1002,5498 1179,5410 1356,5262 1415,5203 1532,5144 1680,5114 1739,5114 1797,5114 1798,5173 1798,5232 1768,5291 1739,5291 1739,5320 1798,5408 1828,5526 1828,5556 1769,5526 "
           id="polygon71"
           style="fill:#00a651" />
        <polygon
           class="fil14"
           points="2683,5937 2684,6055 2625,6144 2625,6144 2684,6143 2801,6084 2860,5996 2948,5907 2978,5789 2977,5642 3007,5671 3007,5789 2978,5937 2919,6113 2802,6173 2654,6232 2566,6262 2478,6291 2419,6350 2448,6321 2507,6232 2595,6055 2624,5878 2595,5790 2624,5849 "
           id="polygon73"
           style="fill:#ed1c24" />
        <path
           class="fil15"
           d="m 827,6294 177,59 89,88 88,29 h 88 l 59,-59 89,177 148,147 -29,30 -29,30 v 0 h -29 l -29,30 h -59 l -59,-29 v 0 l -266,-176 h -29 l -88,-29 -88,-29 -88,59 -30,-29 -30,-29 -30,-59 h -29 l -59,-29 h -59 v -59 l 29,-30 h -29 l -30,-29 h -29 l -59,30 -88,30 29,-59 59,-30 h 29 v -29 l -30,-29 -59,-29 88,-30 h 118 l 118,29 147,59 v 0 0 z m 1298,381 h 29 -29 l -30,-118 -30,-88 v -29 l 88,-148 177,-148 118,-89 59,-89 59,-89 v -88 59 l 30,29 -29,177 -88,148 -88,89 v 59 29 l 30,29 h 29 v 0 -29 l 29,-30 59,-59 118,-30 147,-59 118,-59 59,-59 59,-30 h 29 l 59,-30 h 88 29 l 30,29 v 29 h 29 l 59,-30 h 29 v 0 29 l -29,30 -59,30 -118,89 -59,118 -59,59 v 29 29 0 29 l -29,88 -29,59 -59,59 v 29 l -59,30 30,29 30,29 -147,30 h -59 -59 v 0 0 0 l 59,-30 59,-59 88,-148 59,-89 v -29 0 0 h -29 l -59,118 -118,118 -59,30 -59,30 v 0 h -236 -177 -118 l -30,-29 29,-59 29,-30 v 0 0 z m 324,-119 v 0 l -59,30 h -29 v 0 l 59,29 h 29 88 l 118,-30 118,-118 29,-59 29,-30 v -29 0 h -59 l -118,30 -118,59 -88,118 v 0 0 z m 30,29 v -29 l 59,-59 59,-59 177,-30 -29,59 -59,59 -88,30 -118,30 v 0 0 0 z m 1268,233 v 88 59 l 59,59 30,29 59,29 h 29 v 0 l -29,30 -29,30 -59,59 -147,59 -147,30 -147,-29 v 0 h -59 l -88,30 -118,30 -88,59 v -29 l 29,-59 59,-59 v -29 h -29 l -59,30 -118,59 29,-88 88,-59 236,-59 206,-89 177,-89 118,-89 v 0 0 z m 1974,-534 59,-147 v -118 l -59,-118 -59,-118 -89,-118 -59,-177 -30,-118 v -118 l 59,-177 59,-89 59,-59 88,-59 h 88 147 l 118,29 30,29 118,147 30,177 v 29 l -59,177 -88,89 v -29 l -59,-118 -59,-88 -59,-59 -30,-29 29,-59 29,-30 29,-30 30,29 v 0 h 59 v -29 l -30,-29 -30,-59 -30,-29 h -59 -59 l -59,30 h -29 l -59,89 -29,88 v 147 l 59,147 89,177 118,206 30,118 v 118 l -29,236 -59,177 -147,118 -177,89 h -147 -147 l -236,-58 -177,-88 -89,-59 v -59 l -30,-177 -59,-118 -59,-59 -59,-59 h 29 l 236,88 236,117 177,88 177,29 h 147 l 118,-89 v 0 0 z m -3889,686 -30,-59 v -29 -29 0 h -29 l -30,-29 -118,-59 -177,-176 -89,-236 29,-265 88,-324 147,-148 147,-30 h 118 l 89,59 207,147 118,177 59,59 30,29 -88,59 -177,148 -88,148 v 59 l 30,88 30,118 -29,59 -59,30 v 0 l 30,29 88,29 88,29 h 118 118 l 177,-30 h 29 l 88,-59 -59,59 h -29 v 0 29 0 l 30,29 h 59 118 l 177,-30 v -29 l -59,-29 -30,-29 v 0 0 l 29,-30 59,-59 59,-89 v -88 -29 l 29,-59 29,-30 88,-59 118,-89 177,-89 206,-59 236,-59 265,-1 324,58 30,29 59,59 89,88 30,206 -29,177 v 0 0 l 59,88 89,59 118,59 30,88 v 59 l -59,89 -59,59 -59,59 -59,59 -118,30 h -177 -118 l 59,-30 29,-30 h -59 l -59,30 -88,30 h -59 v -29 l 59,-30 v -29 -29 l -29,30 -29,30 -29,30 -29,30 h -29 l 59,-59 59,-59 29,-30 v 0 h -29 -59 l 29,-30 h 88 l 265,-1 h 29 29 59 l 29,-30 v -88 l -59,-118 v 0 h -29 v 0 h -59 l -177,-29 -236,-58 -89,-88 -89,-88 -30,-29 v 29 l -29,30 -29,30 -88,89 -118,59 -147,89 -177,89 -236,89 -236,30 -206,30 h -147 -118 l -59,-29 v -29 -88 -29 h -29 v 29 l -29,59 30,29 -29,88 -29,59 v 0 h -29 l 30,29 v 0 l -29,30 v 29 l -59,-29 -59,-29 -147,-29 h -29 -59 -177 -236 l -236,-88 v 0 h -59 l -59,59 v 29 l -29,30 v 0 l -30,-29 -30,-29 -30,-29 H 893 l -177,30 29,-30 59,-30 29,-30 v 0 h -29 l -30,-29 h -59 -88 l -59,30 h -29 l 88,-59 88,-59 h 29 v 0 -29 -59 h 59 118 118 l 147,59 v 0 0 l 147,-30 h 177 l 177,29 h 88 l 30,29 29,-30 v 0 0 z"
           id="path75"
           inkscape:connector-curvature="0"
           style="fill:#faa74a" />
        <polygon
           class="fil10"
           points="4330,5786 4330,5816 4242,5846 4154,5875 4095,5905 4007,5993 3889,5994 3771,6023 4006,5787 4153,5580 4241,5403 4271,5374 4271,5344 4271,5315 4300,5285 4329,5138 4299,5020 4270,4961 4181,4814 4033,4638 3945,4520 3886,4402 4003,4343 4062,4284 4121,4254 4180,4254 4210,4313 4239,4372 4239,4372 4239,4372 4239,4401 4298,4490 4387,4607 4535,4725 4505,4813 4535,4931 4565,4961 4565,4990 4594,5079 4594,5138 4565,5167 4448,5374 4359,5521 4330,5639 4330,5727 4330,5757 "
           id="polygon77"
           style="fill:#ffffff" />
        <polygon
           class="fil10"
           points="1382,3818 1471,3876 1589,3935 1559,3994 1589,4024 1619,4082 1648,4112 1648,4141 1648,4171 1678,4200 1678,4230 1648,4230 1589,4259 1531,4318 1412,4171 1294,4024 1147,3907 1088,3848 1058,3848 1058,3848 999,3877 970,3907 882,4025 882,4025 882,4025 882,4113 882,4202 882,4290 823,4349 794,4379 764,4349 764,4379 765,4408 765,4467 735,4497 706,4497 706,4526 765,4526 824,4526 853,4556 853,4556 853,4585 794,4615 736,4674 677,4733 618,4792 588,4762 588,4733 588,4644 588,4586 588,4556 617,4527 617,4527 676,4585 647,4526 647,4468 647,4350 676,4202 734,4025 764,3996 793,3937 852,3760 881,3671 910,3612 940,3612 999,3612 1087,3612 1117,3641 1176,3700 1294,3788 "
           id="polygon79"
           style="fill:#ffffff" />
        <polygon
           class="fil13"
           points="2684,6114 2713,6025 2713,5996 2683,5849 2624,5760 2624,5701 2594,5554 2505,5436 2417,5378 2387,5289 2387,5289 2446,5230 2534,5142 2623,5112 2652,5230 2653,5318 2653,5377 2653,5407 2623,5407 2594,5436 2742,5908 2772,5907 2830,5406 2771,5406 2771,5377 2770,5318 2770,5200 2741,5082 2888,5082 3006,5082 3153,5081 3330,5111 3684,5139 3861,5139 3978,5109 3920,5198 3891,5345 3891,5345 2977,5229 3861,5375 3773,5404 3655,5464 3567,5493 3537,5582 3537,5582 3537,5611 3508,5611 2947,5377 3449,5611 3302,5700 3243,5759 3184,5848 3126,5995 3037,6025 3008,6025 2978,6054 2949,6084 3007,5907 3037,5760 3007,5642 3007,5612 2977,5612 2977,5642 2948,5848 2860,5966 2772,6055 "
           id="polygon81"
           style="fill:#00a651" />
        <polygon
           class="fil8"
           points="2178,3905 2090,3846 2060,3816 2060,3787 2060,3757 2031,3728 2178,3728 2325,3698 2325,3727 2296,3816 2237,3875 "
           id="polygon83"
           style="fill:#e7e8e9" />
        <polygon
           class="fil8"
           points="1618,4024 1618,3965 1618,3906 1618,3876 1618,3817 1618,3758 1618,3699 1677,3729 1795,3728 2031,3757 2001,3816 1913,3905 1795,4023 1736,4053 1648,4053 "
           id="polygon85"
           style="fill:#e7e8e9" />
        <polygon
           class="fil8"
           points="2355,3698 2384,3698 2443,3639 2561,3580 2561,3668 2532,3756 2473,3816 2443,3816 2384,3786 2355,3727 "
           id="polygon87"
           style="fill:#e7e8e9" />
        <polygon
           class="fil8"
           points="2618,2872 2766,2813 2942,2695 2972,2695 2972,2724 2913,2842 2884,2872 2854,2901 2825,2901 2795,2842 2795,2872 2766,2960 2707,2990 2619,2990 2618,2931 "
           id="polygon89"
           style="fill:#e7e8e9" />
        <polygon
           class="fil8"
           points="2294,2902 2294,2932 2265,2961 2206,2991 2147,2961 2088,2873 2088,2844 "
           id="polygon91"
           style="fill:#e7e8e9" />
        <polygon
           class="fil8"
           points="1852,2785 1822,2785 1763,2756 1734,2726 1675,2638 1704,2668 1793,2726 1911,2785 2058,2844 2058,2873 2058,2903 2029,2903 1970,2903 1940,2844 1881,2785 1852,2756 "
           id="polygon93"
           style="fill:#e7e8e9" />
        <polygon
           class="fil8"
           points="2412,3049 2353,2991 2324,2932 2324,2902 2500,2902 2501,2961 2471,3020 "
           id="polygon95"
           style="fill:#e7e8e9" />
        <path
           class="fil8"
           d="m 1525,1430 v -59 l 118,88 59,147 v 59 h 29 v -59 l 29,-88 59,-59 59,-30 29,-30 v 29 29 0 29 88 0 29 88 l -29,30 h -29 -29 l -29,30 h 59 l 30,29 v 29 0 29 l 59,59 h 118 v -29 -29 -29 l -30,-118 -59,-59 -30,-29 v -29 0 l 59,-59 29,-30 h 59 118 l 88,-30 v 0 l -29,88 -29,59 -29,59 -29,30 h 29 l 59,-59 59,-59 29,-30 h 88 v 0 l 1,295 30,295 -147,-59 -89,-59 -88,-29 h -29 -29 -29 v 0 0 l -30,-29 -30,-29 h -88 l -59,-29 h -29 l -30,-59 -59,-29 -30,-29 v 0 -29 0 l -59,-59 v 0 l -30,-59 -89,-118 v -29 -29 0 -29 0 0 z m 1002,145 59,-30 v 0 0 0 l -29,88 -29,30 v -88 0 0 z m 0,177 59,-30 29,-59 v -29 h 59 l 30,29 89,118 v 0 0 h -29 l -59,30 -29,30 -29,30 v 0 h -29 l -59,-59 30,59 30,59 h 29 v 0 l 29,-30 59,-30 59,-30 h 29 l 59,59 59,88 v -29 29 l 30,29 v 0 29 l -59,30 -29,30 h -29 v 0 l -30,-29 h -29 v 29 0 0 0 l 59,29 v 0 h 29 29 l 59,-30 h 29 v 29 l 59,29 -29,30 v 0 29 0 29 l -88,-29 -59,30 v 29 29 h -29 -29 l -59,-29 -206,-88 -30,-442 v 0 0 z m -1061,61 h -29 -88 l -118,-59 88,-30 h 59 l 59,29 29,-30 -89,-59 -59,-59 v -59 l -30,-29 h 88 l 30,29 v 29 0 0 l 29,-30 v 0 l -30,-29 v -118 -29 l 30,29 59,59 v 29 29 l 30,118 89,88 30,29 h -59 l -88,59 h -29 v 0 0 z"
           id="path97"
           inkscape:connector-curvature="0"
           style="fill:#e7e8e9" />
        <path
           class="fil11"
           d="m 2682,5407 v 0 -29 -29 -88 l -30,-118 -1,-295 -30,-383 -30,-413 -30,-472 -31,-973 v 0 h 29 l 182,2829 h 59 v 59 l -29,118 v 147 l -29,88 -30,-88 -30,-147 -59,-118 v -59 l 29,-30 h 29 v 0 0 z m -183,-3153 -30,-413 -30,-354 -1,-265 v -88 -59 h 29 v 59 59 l 30,118 v 147 l 30,383 30,442 -59,-29 v 0 0 z"
           id="path99"
           inkscape:connector-curvature="0"
           style="fill:#ffcb05" />
        <polygon
           class="fil10"
           points="2828,4670 2858,4640 2887,4581 2916,4581 2916,4581 3034,4433 3063,4404 3093,4404 3093,4374 3093,4374 3093,4345 3093,4256 3033,4139 2974,4050 2886,3933 2885,3815 2885,3785 2885,3785 2856,3756 2885,3726 2974,3726 3033,3755 3121,3785 3180,3814 3210,3961 3240,4109 3269,4256 3299,4374 3329,4462 3299,4521 3270,4551 3211,4551 3152,4580 3093,4610 3034,4640 2917,4728 2858,4728 2799,4699 "
           id="polygon101"
           style="fill:#ffffff" />
        <polygon
           class="fil11"
           points="4032,3694 4090,3576 4119,3429 4119,3341 4237,3281 4237,3370 4208,3517 4179,3694 4061,3871 3885,4048 3590,4196 3266,4256 3237,4079 3236,4020 3443,4049 3561,4020 3737,3960 3855,3872 3973,3783 "
           id="polygon103"
           style="fill:#ffcb05" />
        <polygon
           class="fil11"
           points="2856,3933 2945,4080 3034,4227 2975,4227 2857,4168 2798,4110 2768,3992 2709,3933 2709,3815 2679,3697 2708,3461 2708,3491 2738,3609 2767,3668 2797,3726 2826,3756 2826,3785 2826,3815 "
           id="polygon105"
           style="fill:#ffcb05" />
        <polygon
           class="fil16"
           points="3120,3372 3209,3313 3267,3283 3326,3254 3297,3283 3327,3342 3356,3372 3386,3401 3415,3401 3415,3401 3445,3371 3445,3430 3445,3460 3504,3460 3592,3460 3680,3430 3710,3459 3798,3459 3916,3400 3975,3400 4122,3370 4122,3400 4093,3518 4064,3636 3946,3783 3740,3931 3593,3990 3446,4020 3357,4020 3269,3991 3210,3814 3209,3726 3150,3608 3091,3490 3032,3402 "
           id="polygon107"
           style="fill:#a54686" />
        <polygon
           class="fil17"
           points="3208,3225 3238,3254 3179,3284 3120,3343 3032,3372 3002,3372 2973,3402 3003,3431 3062,3490 3091,3578 3150,3696 3180,3785 3121,3755 3033,3697 2944,3697 2885,3697 2826,3726 2767,3638 2737,3491 2737,3461 2708,3402 2708,3314 2707,3255 2737,3196 2854,3048 2913,2989 2943,2989 3002,3019 3061,3048 3090,3048 3120,3077 3179,3166 "
           id="polygon109"
           style="fill:#fed09e" />
        <polygon
           class="fil10"
           points="3680,3283 3680,3342 3680,3400 3621,3401 3533,3430 3474,3430 3474,3430 3474,3342 3474,3312 3444,3283 3415,3313 3386,3372 3356,3342 3356,3283 3356,3254 3385,3254 3415,3224 3415,3224 3444,3224 3444,3195 3415,3195 3356,3195 3267,3224 3267,3224 3267,3224 3090,3019 2943,2960 2943,2930 3149,2901 3149,2901 3296,2782 3355,2723 3326,2812 3267,2900 3237,2959 3237,2959 3267,3018 3326,3077 3414,3077 3444,3047 3473,3018 3473,2988 3503,2929 3591,2811 3591,3047 3591,3076 3621,3135 3709,3106 3768,3047 3768,3106 3856,3017 3856,3017 3856,3017 3856,3017 3945,3046 4004,3046 4004,3046 4151,3164 4269,3222 4152,3311 4063,3341 3975,3370 3916,3371 3857,3223 3827,3223 3887,3400 3798,3430 3739,3430 3710,3400 3710,3253 3680,3224 "
           id="polygon111"
           style="fill:#ffffff" />
        <polygon
           class="fil10"
           points="3355,2635 3384,2664 3296,2723 3237,2782 3149,2871 3119,2871 3060,2871 3001,2901 2943,2901 2972,2842 3031,2783 3119,2694 3237,2606 3325,2605 3355,2605 3384,2635 "
           id="polygon113"
           style="fill:#ffffff" />
        <polygon
           class="fil10"
           points="3411,2988 3382,3018 3352,3047 3323,3047 3264,2989 3234,2959 3264,2900 3352,2782 3381,2694 3381,2664 3411,2694 3499,2752 3529,2752 3558,2723 "
           id="polygon115"
           style="fill:#ffffff" />
        <polygon
           class="fil10"
           points="3794,3017 3765,3017 3765,2929 3735,2988 3647,3076 3588,3106 3588,3047 3587,2693 3646,2664 3676,2664 3676,2693 3735,2693 3764,2634 3794,2634 3823,2634 3912,2840 3942,2899 3971,2987 3942,3017 3912,3017 3853,2987 3824,2958 3824,2899 3794,2899 "
           id="polygon117"
           style="fill:#ffffff" />
        <polygon
           class="fil10"
           points="3441,1780 3442,1868 3471,1898 3471,1898 3324,2075 3324,1928 3294,1810 3323,1633 3382,1485 3411,1456 3411,1485 3500,1485 3529,1485 3706,1485 3677,1514 3618,1514 3559,1603 3471,1691 "
           id="polygon119"
           style="fill:#ffffff" />
        <polygon
           class="fil10"
           points="3794,2545 3794,2545 3794,2575 3794,2575 3794,2604 3764,2575 3735,2605 3705,2634 3676,2634 3617,2634 3558,2693 3529,2693 3499,2723 3440,2664 3381,2635 3381,2635 3381,2605 3351,2576 3234,2547 3263,2517 3292,2488 3381,2428 3469,2369 3528,2310 3557,2281 3645,2222 3704,2163 3763,2074 3822,2074 3910,1985 3793,2221 3763,2251 3734,2369 3764,2457 "
           id="polygon121"
           style="fill:#ffffff" />
        <polygon
           class="fil12"
           points="5207,2071 5060,2012 4853,1924 4529,1837 4470,1778 4499,1778 4558,1807 4647,1807 4765,1836 4853,1836 5000,1836 5030,1865 5059,1865 5207,1894 5295,1894 5384,1923 5413,1923 5413,1953 5354,1982 5237,2071 "
           id="polygon123"
           style="fill:#297aa9" />
        <path
           class="fil17"
           d="m 2379,1193 -59,-147 v -59 l 59,-30 v 29 29 29 h 29 v 88 118 l -30,-59 v 0 0 z m 118,-118 30,29 v 88 0 l -29,30 v -147 0 0 z m 0,-88 v 0 l 29,-30 v 29 l 59,59 30,59 v 29 l 59,118 30,59 177,147 89,118 30,29 v 29 0 0 0 h 29 v 0 0 l 29,-59 v 29 h 29 v 0 l 29,-30 v 0 88 118 29 0 0 0 l -88,30 -88,30 -59,-29 -148,-206 -118,-177 -59,-147 -30,-59 29,-59 v -88 l -59,-59 v -59 0 0 z"
           id="path125"
           inkscape:connector-curvature="0"
           style="fill:#fed09e" />
        <polygon
           class="fil10"
           points="3087,1545 3146,1486 3234,1456 3264,1456 3323,1485 3294,1633 3265,1780 3235,1810 3147,1810 3147,1781 3146,1663 3146,1574 3146,1545 3117,1545 3087,1545 "
           id="polygon127"
           style="fill:#ffffff" />
        <polygon
           class="fil17"
           points="3707,2133 3648,2192 3560,2251 3531,2281 3531,2281 3531,2281 3443,2369 3325,2429 3060,2518 2942,2518 2824,2547 2765,2548 2706,2518 2706,2518 2706,2548 2677,2577 2647,2577 2529,2578 2500,2578 2470,2548 2441,2519 2382,2401 2381,2342 2440,2312 2529,2312 2588,2312 2588,2342 2617,2342 2617,2312 2617,2253 2676,2312 2676,2341 2676,2371 2824,2400 2824,2371 3000,2282 3148,2252 3206,2223 3236,2222 3265,2222 3265,2222 3324,2163 3383,2045 3471,1957 3530,1898 3560,1927 3618,1927 3619,1956 3648,2015 3678,2015 3707,2045 3766,2015 3766,2045 "
           id="polygon129"
           style="fill:#fed09e" />
        <path
           class="fil10"
           d="m 3500,1868 -30,-29 v -59 l 29,-88 59,-59 59,-59 59,-30 89,88 206,88 v 0 118 l -29,118 -59,59 -29,30 h -29 l -30,-29 29,-88 59,-177 -30,-29 -29,88 -29,118 -59,59 -29,30 -30,-29 v 0 0 0 l -30,-29 v -29 -29 l 59,-89 59,-147 v -29 l -29,59 -29,30 -88,177 h -29 v 0 0 0 l -30,-59 v 0 -29 0 l 59,-118 88,-89 v 0 -29 h -29 l -59,30 -29,59 -59,147 v 0 l -29,30 v 29 0 0 z m 206,-354 h 59 59 l 88,29 30,59 h 29 v 0 0 59 29 l -177,-88 -89,-88 v 0 0 z"
           id="path131"
           inkscape:connector-curvature="0"
           style="fill:#ffffff" />
        <path
           class="fil17"
           d="m 3735,1190 30,59 59,59 v 0 l -29,30 -29,59 -265,1 v -29 l 29,-59 88,-59 59,-30 29,-30 v 0 h 29 v 0 0 0 z m -59,-29 -59,59 -88,59 h -59 l -59,-29 h 29 l 29,-30 h -59 v 0 -29 l -30,-29 v 0 h -29 v -59 l -30,-88 h 59 v 0 l 30,29 v 29 0 0 l 29,-59 29,-30 h 59 29 l 30,59 v 29 l 59,59 30,29 v 0 0 z"
           id="path133"
           inkscape:connector-curvature="0"
           style="fill:#fed09e" />
        <line
           class="fil1 str5"
           x1="6656"
           y1="57"
           x2="6661"
           y2="7579"
           id="line135"
           style="fill:none;stroke:#2a2a29;stroke-width:49" />
        <line
           class="fil1 str5"
           x1="71"
           y1="7550"
           x2="6660"
           y2="7548"
           id="line137"
           style="fill:none;stroke:#2a2a29;stroke-width:49" />
      </g>
    </g>
    <text
       xml:space="preserve"
       style="font-style:normal;font-variant:normal;font-weight:normal;font-stretch:normal;font-size:6.9557972px;line-height:100%;font-family:'Futura PT';-inkscape-font-specification:'Futura PT';text-align:start;letter-spacing:0px;word-spacing:0px;writing-mode:lr-tb;text-anchor:start;fill:#000000;fill-opacity:1;stroke:none;stroke-width:0.372632px;stroke-linecap:butt;stroke-linejoin:miter;stroke-opacity:1"
       x="-904.21002"
       y="-261.61188"
       id="text2483"><tspan
         sodipodi:role="line"
         x="-904.21002"
         y="-261.61188"
         style="font-style:normal;font-variant:normal;font-weight:normal;font-stretch:normal;font-family:Cuprum;-inkscape-font-specification:Cuprum;stroke-width:0.372632px"
         id="tspan2485">Администрация </tspan><tspan
         sodipodi:role="line"
         x="-904.21002"
         y="-254.57336"
         style="font-style:normal;font-variant:normal;font-weight:normal;font-stretch:normal;font-family:Cuprum;-inkscape-font-specification:Cuprum;stroke-width:0.372632px"
         id="tspan2503">городсокго округа </tspan><tspan
         sodipodi:role="line"
         x="-904.21002"
         y="-247.53485"
         style="font-style:normal;font-variant:normal;font-weight:normal;font-stretch:normal;font-family:Cuprum;-inkscape-font-specification:Cuprum;stroke-width:0.372632px"
         id="tspan2491">Фрязино</tspan></text>
    <path
       style="fill:#b3b3b3;fill-rule:evenodd;stroke:#b3b3b3;stroke-width:0.47164446px;stroke-linecap:butt;stroke-linejoin:miter;stroke-opacity:1"
       d="M -841.39783,-257.58426 H -583.2149"
       id="path2547"
       inkscape:connector-curvature="0" />
    <rect
       style="opacity:1;fill:#e3dbdb;fill-opacity:1;stroke:none;stroke-width:2.30852008;stroke-miterlimit:4;stroke-dasharray:none;stroke-opacity:1"
       id="rect2505"
       width="3.96875"
       height="1137.236"
       x="-849.39886"
       y="-273.94345" />
    <path
       style="fill:#b3b3b3;fill-rule:evenodd;stroke:#b3b3b3;stroke-width:0.26063737px;stroke-linecap:butt;stroke-linejoin:miter;stroke-opacity:1"
       d="m -931.70157,-237.27178 h 78.84451"
       id="path2507"
       inkscape:connector-curvature="0" />
    <rect
       style="opacity:1;fill:#808080;fill-opacity:1;stroke:none;stroke-width:0.7109375;stroke-miterlimit:4;stroke-dasharray:none;stroke-opacity:1"
       id="rect2509"
       width="3.0401907"
       height="12.160763"
       x="-848.98157"
       y="-269.74503"
       ry="1.5200953" />
    <text
       xml:space="preserve"
       style="font-style:normal;font-variant:normal;font-weight:normal;font-stretch:normal;font-size:12.49075127px;line-height:100%;font-family:'Futura PT';-inkscape-font-specification:'Futura PT';text-align:start;letter-spacing:0px;word-spacing:0px;writing-mode:lr-tb;text-anchor:start;fill:#000080;fill-opacity:1;stroke:none;stroke-width:0.66914743px;stroke-linecap:butt;stroke-linejoin:miter;stroke-opacity:1"
       x="-929.20959"
       y="-229.21333"
       id="text2521"><tspan
         sodipodi:role="line"
         id="tspan2519"
         x="-929.20959"
         y="-229.21333"
         style="font-style:normal;font-variant:normal;font-weight:normal;font-stretch:normal;font-size:5.29166651px;font-family:Cuprum;-inkscape-font-specification:Cuprum;fill:#000080;stroke-width:0.66914743px">Новости</tspan></text>
    <rect
       y="-274.51297"
       x="-579.17627"
       height="1137.236"
       width="3.96875"
       id="rect2523"
       style="opacity:1;fill:#e3dbdb;fill-opacity:1;stroke:none;stroke-width:2.30852008;stroke-miterlimit:4;stroke-dasharray:none;stroke-opacity:1" />
    <rect
       ry="1.5200953"
       y="-272.58478"
       x="-578.60504"
       height="12.160763"
       width="3.0401907"
       id="rect2525"
       style="opacity:1;fill:#808080;fill-opacity:1;stroke:none;stroke-width:0.7109375;stroke-miterlimit:4;stroke-dasharray:none;stroke-opacity:1" />
    <path
       inkscape:connector-curvature="0"
       id="path2529"
       d="m -931.70157,-237.27178 h 78.84451"
       style="fill:#b3b3b3;fill-rule:evenodd;stroke:#b3b3b3;stroke-width:0.26063737px;stroke-linecap:butt;stroke-linejoin:miter;stroke-opacity:1" />
    <path
       style="fill:#b3b3b3;fill-rule:evenodd;stroke:#b3b3b3;stroke-width:0.26063737px;stroke-linecap:butt;stroke-linejoin:miter;stroke-opacity:1"
       d="m -931.70157,-223.85364 h 78.84451"
       id="path2531"
       inkscape:connector-curvature="0" />
    <text
       id="text2535"
       y="-215.04805"
       x="-929.20959"
       style="font-style:normal;font-variant:normal;font-weight:normal;font-stretch:normal;font-size:12.49075127px;line-height:100%;font-family:'Futura PT';-inkscape-font-specification:'Futura PT';text-align:start;letter-spacing:0px;word-spacing:0px;writing-mode:lr-tb;text-anchor:start;fill:#000000;fill-opacity:1;stroke:none;stroke-width:0.66914743px;stroke-linecap:butt;stroke-linejoin:miter;stroke-opacity:1"
       xml:space="preserve"><tspan
         style="font-style:normal;font-variant:normal;font-weight:normal;font-stretch:normal;font-size:5.29166651px;font-family:Cuprum;-inkscape-font-specification:Cuprum;stroke-width:0.66914743px"
         y="-215.04805"
         x="-929.20959"
         id="tspan2533"
         sodipodi:role="line">Городской округ Фрязино</tspan></text>
    <path
       inkscape:connector-curvature="0"
       id="path2537"
       d="m -931.70157,-209.68836 h 78.84451"
       style="fill:#b3b3b3;fill-rule:evenodd;stroke:#b3b3b3;stroke-width:0.26063737px;stroke-linecap:butt;stroke-linejoin:miter;stroke-opacity:1" />
    <rect
       style="opacity:1;fill:#808080;fill-opacity:1;stroke:none;stroke-width:0.7109375;stroke-miterlimit:4;stroke-dasharray:none;stroke-opacity:1"
       id="rect2539"
       width="3.0401907"
       height="12.160763"
       x="-578.60504"
       y="-272.58478"
       ry="1.5200953" />
    <text
       xml:space="preserve"
       style="font-style:normal;font-variant:normal;font-weight:normal;font-stretch:normal;font-size:12.49075127px;line-height:100%;font-family:'Futura PT';-inkscape-font-specification:'Futura PT';text-align:start;letter-spacing:0px;word-spacing:0px;writing-mode:lr-tb;text-anchor:start;fill:#000000;fill-opacity:1;stroke:none;stroke-width:0.66914743px;stroke-linecap:butt;stroke-linejoin:miter;stroke-opacity:1"
       x="-919.80743"
       y="-200.30698"
       id="text2543"><tspan
         sodipodi:role="line"
         id="tspan2541"
         x="-919.80743"
         y="-200.30698"
         style="font-style:normal;font-variant:normal;font-weight:normal;font-stretch:normal;font-size:5.29166651px;font-family:Cuprum;-inkscape-font-specification:Cuprum;stroke-width:0.66914743px">Символика</tspan></text>
    <path
       style="fill:#b3b3b3;fill-rule:evenodd;stroke:#b3b3b3;stroke-width:0.26063737px;stroke-linecap:butt;stroke-linejoin:miter;stroke-opacity:1"
       d="m -931.70157,-194.94729 h 78.84451"
       id="path2545"
       inkscape:connector-curvature="0" />
    <text
       id="text2535-9"
       y="-264.17227"
       x="-839.10083"
       style="font-style:normal;font-variant:normal;font-weight:normal;font-stretch:normal;font-size:12.49075222px;line-height:100%;font-family:'Futura PT';-inkscape-font-specification:'Futura PT';text-align:start;letter-spacing:0px;word-spacing:0px;writing-mode:lr-tb;text-anchor:start;fill:#b3b3b3;fill-opacity:1;stroke:none;stroke-width:0.66914743px;stroke-linecap:butt;stroke-linejoin:miter;stroke-opacity:1"
       xml:space="preserve"><tspan
         style="font-style:normal;font-variant:normal;font-weight:normal;font-stretch:normal;font-size:5.29166651px;font-family:Cuprum;-inkscape-font-specification:Cuprum;fill:#b3b3b3;fill-opacity:1;stroke-width:0.66914743px"
         y="-264.17227"
         x="-839.10083"
         id="tspan2533-6"
         sodipodi:role="line">Поиск по сайту</tspan></text>
    <rect
       style="opacity:1;fill:#005cff;fill-opacity:1;stroke:none;stroke-width:0.39628205;stroke-miterlimit:4;stroke-dasharray:none;stroke-opacity:1"
       id="rect2569"
       width="29.104164"
       height="11.717261"
       x="-698.02417"
       y="-271.95401"
       ry="1.3229166" />
    <text
       xml:space="preserve"
       style="font-style:normal;font-variant:normal;font-weight:normal;font-stretch:normal;font-size:13.19445705px;line-height:100%;font-family:'Futura PT';-inkscape-font-specification:'Futura PT';text-align:start;letter-spacing:0px;word-spacing:0px;writing-mode:lr-tb;text-anchor:start;fill:#ffffff;fill-opacity:1;stroke:none;stroke-width:0.70684588px;stroke-linecap:butt;stroke-linejoin:miter;stroke-opacity:1"
       x="-689.93701"
       y="-264.1669"
       id="text2573"><tspan
         sodipodi:role="line"
         id="tspan2571"
         x="-689.93701"
         y="-264.1669"
         style="font-style:normal;font-variant:normal;font-weight:normal;font-stretch:normal;font-size:5.58978891px;font-family:Cuprum;-inkscape-font-specification:Cuprum;fill:#ffffff;fill-opacity:1;stroke-width:0.70684588px">Найти</tspan></text>
    <g
       style="fill:#b3b3b3;fill-opacity:1"
       transform="matrix(0.0219268,0,0,0.0219268,-660.6416,-271.70864)"
       id="g2627">
      <path
         style="fill:#b3b3b3;fill-opacity:1"
         inkscape:connector-curvature="0"
         d="m 495.8,294.1 c 0,0 -74.9,-186.7 -75.1,-187.2 -1.6,-3.2 -16.2,-31.2 -43.9,-31.4 -0.1,0 -0.2,0 -0.3,0 -31.8,0 -50.7,36.7 -56.9,48.8 -5.1,10 -1.2,22.3 8.8,27.5 10.1,5.2 22.3,1.2 27.5,-8.8 6.8,-13.3 12.3,-20 15.8,-23.4 2.6,-2.5 8.7,-2.8 12.1,4.9 l 40,99.7 c -10,-3 -20.5,-4.6 -31.4,-4.6 -44.6,0 -82.9,27 -99.7,65.4 -11.9,-9.7 -24.7,-14.4 -38,-13.9 -13.9,0.4 -25.7,6.4 -35.3,14 -16.7,-38.5 -55.1,-65.5 -99.7,-65.5 -10.9,0 -21.4,1.6 -31.3,4.6 L 128.6,124 c 3.2,-7.4 9.5,-7.4 12.1,-4.9 3.5,3.4 9,10.1 15.8,23.4 5.1,10 17.4,14 27.5,8.8 10,-5.1 14,-17.5 8.8,-27.5 C 186.6,111.7 167.7,75 135.9,75 c -0.1,0 -0.2,0 -0.3,0 -27.7,0.2 -42.3,28.2 -43.9,31.4 -0.2,0.4 -58.2,144.9 -72.1,179.7 -0.4,1.1 -7.9,17 -8.5,42.1 -1.6,60 48.7,108.8 108.6,108.8 57.4,0 104.6,-44.8 108.4,-101.3 5.4,-8.9 17.2,-23.5 27.9,-23.8 7.8,-0.1 18,8.5 28,24.1 4,56.3 51.1,100.9 108.4,100.9 59.9,0 108.7,-48.7 108.7,-108.7 -0.1,-10 -3.2,-29.4 -5.3,-34.1 z m -376.1,102 c -37.4,0 -67.8,-30.4 -67.8,-67.8 0,-9 1.8,-17.7 5,-25.5 l 0.4,-0.9 c 10.3,-24.3 34.4,-41.4 62.5,-41.4 37.4,0 67.8,30.4 67.8,67.8 -0.1,37.4 -30.5,67.8 -67.9,67.8 z m 272.6,0 c -37.4,0 -67.8,-30.4 -67.8,-67.8 0,-37.4 30.4,-67.8 67.8,-67.8 37.4,0 67.8,30.4 67.8,67.8 0.1,37.4 -30.4,67.8 -67.8,67.8 z"
         id="path2625" />
    </g>
    <g
       id="g2668"
       transform="matrix(0.75000002,0,0,0.75000002,-170.32077,-66.041564)">
      <g
         style="fill:#b3b3b3;fill-opacity:1"
         transform="matrix(0.12136989,0,0,-0.12136989,-626.01189,-271.66597)"
         id="g872">
        <path
           inkscape:connector-curvature="0"
           id="path874"
           style="fill:#b3b3b3;fill-opacity:1;fill-rule:nonzero;stroke:none"
           d="m 0,0 c -22.387,0 -40.6,-18.213 -40.6,-40.6 0,-22.386 18.213,-40.599 40.6,-40.599 22.387,0 40.6,18.213 40.6,40.599 C 40.6,-18.213 22.387,0 0,0 m 0,-84.199 c -24.041,0 -43.6,19.558 -43.6,43.599 C -43.6,-16.559 -24.041,3 0,3 24.041,3 43.6,-16.559 43.6,-40.6 43.6,-64.641 24.041,-84.199 0,-84.199" />
      </g>
      <g
         style="fill:#b3b3b3;fill-opacity:1"
         transform="matrix(0.12136989,0,0,-0.12136989,-629.08399,-268.30617)"
         id="g876">
        <path
           inkscape:connector-curvature="0"
           id="path878"
           style="fill:#b3b3b3;fill-opacity:1;fill-rule:nonzero;stroke:none"
           d="m 0,0 c 2.372,0 7.434,0 9.144,0 0.355,0 0.672,-0.209 0.82,-0.531 2.099,-4.569 4.66,-8.703 7.744,-12.343 0.265,-0.427 0.905,-0.38 1.097,0.085 0.964,2.343 2.74,8.043 -0.7,12.09 -0.306,0.361 -0.182,0.927 0.255,1.109 3.482,1.452 6.893,1.664 10.208,0.178 0.696,-0.313 1.152,-1.004 1.152,-1.768 l 0.777,-11.737 c 0,-0.522 0.476,-0.939 0.986,-0.83 3.822,0.811 6.074,6.537 8.301,12.516 C 40.058,-0.495 40.753,0 41.539,0 h 8.42 c 0.689,0 1.245,-0.615 1.119,-1.292 -0.792,-4.243 -5.059,-9.744 -7.291,-12.389 -0.772,-0.915 -0.778,-2.25 -0.009,-3.167 l 7.53,-8.965 c 0.541,-0.644 0.083,-1.627 -0.758,-1.627 h -9.529 c -0.782,0 -1.529,0.327 -2.059,0.903 l -6.663,5.547 c -0.347,0.376 -1.001,0.511 -1.326,0.116 -0.826,-1.004 -0.761,-2.242 -1.152,-5.054 -0.122,-0.879 -0.912,-1.512 -1.8,-1.512 h -6.516 c -0.927,0 -1.842,0.195 -2.679,0.591 -3.74,1.773 -13.954,8.055 -19.698,25.644 C -1.065,-0.615 -0.621,0 0,0" />
      </g>
    </g>
    <path
       style="fill:#b3b3b3;fill-rule:evenodd;stroke:#b3b3b3;stroke-width:0.26458332px;stroke-linecap:butt;stroke-linejoin:miter;stroke-opacity:1;fill-opacity:1"
       d="m -664.8957,-272.35091 v 12.76212"
       id="path2670"
       inkscape:connector-curvature="0" />
    <path
       inkscape:connector-curvature="0"
       id="path2672"
       d="m -646.37487,-272.35091 v 12.76212"
       style="fill:#b3b3b3;fill-opacity:1;fill-rule:evenodd;stroke:#b3b3b3;stroke-width:0.26458332px;stroke-linecap:butt;stroke-linejoin:miter;stroke-opacity:1" />
    <g
       id="g2702"
       transform="matrix(0.25803049,0,0,0.25803049,-467.67151,-196.82648)"
       style="fill:#b3b3b3;fill-opacity:1">
      <g
         transform="matrix(0.35277777,0,0,-0.35277777,-621.39286,-282.77498)"
         id="g64"
         style="fill:#b3b3b3;fill-opacity:1">
        <path
           inkscape:connector-curvature="0"
           id="path66"
           style="fill:#b3b3b3;fill-opacity:1;fill-rule:nonzero;stroke:none"
           d="m 0,0 c -22.387,0 -40.6,-18.213 -40.6,-40.6 0,-22.386 18.213,-40.599 40.6,-40.599 22.387,0 40.6,18.213 40.6,40.599 C 40.6,-18.213 22.387,0 0,0 m 0,-84.199 c -24.041,0 -43.6,19.558 -43.6,43.599 C -43.6,-16.559 -24.041,3 0,3 24.041,3 43.6,-16.559 43.6,-40.6 43.6,-64.641 24.041,-84.199 0,-84.199" />
      </g>
      <g
         transform="matrix(0.35277777,0,0,-0.35277777,-620.90211,-276.99218)"
         id="g68"
         style="fill:#b3b3b3;fill-opacity:1">
        <path
           inkscape:connector-curvature="0"
           id="path70"
           style="fill:#b3b3b3;fill-opacity:1;fill-rule:nonzero;stroke:none"
           d="m 0,0 c -4.138,0 -7.493,-3.355 -7.493,-7.493 v -7.843 l -5.438,-0.075 v -7.794 l 5.438,0.075 v -25.285 h 9.322 v 25.285 h 7.493 l 0.827,7.794 h -8.32 v 5.438 c 0,1.162 0.943,2.104 2.105,2.104 h 6.215 V 0 Z" />
      </g>
      <g
         transform="matrix(0.35277777,0,0,-0.35277777,-621.39286,-282.77498)"
         id="g72"
         style="fill:#b3b3b3;fill-opacity:1">
        <path
           inkscape:connector-curvature="0"
           id="path74"
           style="fill:#b3b3b3;fill-opacity:1;fill-rule:nonzero;stroke:none"
           d="m 0,0 c -22.387,0 -40.6,-18.213 -40.6,-40.6 0,-22.386 18.213,-40.599 40.6,-40.599 22.387,0 40.6,18.213 40.6,40.599 C 40.6,-18.213 22.387,0 0,0 m 0,-84.199 c -24.041,0 -43.6,19.558 -43.6,43.599 C -43.6,-16.559 -24.041,3 0,3 24.041,3 43.6,-16.559 43.6,-40.6 43.6,-64.641 24.041,-84.199 0,-84.199" />
      </g>
      <g
         transform="matrix(0.35277777,0,0,-0.35277777,-620.90211,-276.99218)"
         id="g76"
         style="fill:#b3b3b3;fill-opacity:1">
        <path
           inkscape:connector-curvature="0"
           id="path78"
           style="fill:#b3b3b3;fill-opacity:1;fill-rule:nonzero;stroke:none"
           d="m 0,0 c -4.138,0 -7.493,-3.355 -7.493,-7.493 v -7.843 l -5.438,-0.075 v -7.794 l 5.438,0.075 v -25.285 h 9.322 v 25.285 h 7.493 l 0.827,7.794 h -8.32 v 5.438 c 0,1.162 0.943,2.104 2.105,2.104 h 6.215 V 0 Z" />
      </g>
    </g>
    <g
       id="g2720"
       style="fill:#b3b3b3;fill-opacity:1"
       transform="matrix(0.25803049,0,0,0.25803049,-453.2977,-201.52728)">
      <g
         transform="matrix(0.35277777,0,0,-0.35277777,-631.29062,-264.55696)"
         id="g616"
         style="fill:#b3b3b3;fill-opacity:1">
        <path
           inkscape:connector-curvature="0"
           id="path618"
           style="fill:#b3b3b3;fill-opacity:1;fill-rule:nonzero;stroke:none"
           d="m 0,0 c -22.387,0 -40.6,-18.213 -40.6,-40.6 0,-22.386 18.213,-40.599 40.6,-40.599 22.387,0 40.6,18.213 40.6,40.599 C 40.6,-18.213 22.387,0 0,0 m 0,-84.199 c -24.041,0 -43.6,19.558 -43.6,43.599 C -43.6,-16.559 -24.041,3 0,3 24.041,3 43.6,-16.559 43.6,-40.6 43.6,-64.641 24.041,-84.199 0,-84.199" />
      </g>
      <g
         transform="matrix(0.35277777,0,0,-0.35277777,-623.26207,-255.18838)"
         id="g620"
         style="fill:#b3b3b3;fill-opacity:1">
        <path
           inkscape:connector-curvature="0"
           id="path622"
           style="fill:#b3b3b3;fill-opacity:1;fill-rule:nonzero;stroke:none"
           d="m 0,0 c 0,0 -2.174,-1.537 -4.721,-1.025 0,0 3.522,2.169 3.697,5.652 C -2.302,0.944 -6.822,1.303 -6.822,1.303 l 0.018,-0.048 c -2.49,3.056 -6.223,3.086 -7.551,3.047 -1.954,-0.058 -9.397,-0.903 -8.646,-12.254 0,0 -13.532,0.225 -20.298,10.825 -2.255,-7.48 3.346,-12.442 3.346,-12.442 -2.746,-0.594 -4.646,1.068 -4.646,1.068 1.419,-7.781 8.405,-9.375 8.405,-9.375 -2.507,-1.384 -5.586,-0.428 -5.586,-0.428 2.368,-6.09 10.021,-6.488 10.021,-6.488 -4.323,-5.225 -13.757,-5.225 -13.757,-5.225 8.236,-4.755 41.084,-6.403 41.084,22.967 0,0.909 -0.066,1.722 -0.16,2.492 l 0.027,-0.07 c 0,0 3.468,1.31 4.565,4.628" />
      </g>
    </g>
    <g
       id="g2774"
       transform="matrix(0.25803049,0,0,0.25803049,-452.30511,-194.25161)"
       style="fill:#b3b3b3;fill-opacity:1">
      <g
         transform="matrix(0.35277777,0,0,-0.35277777,-589.32931,-292.75389)"
         id="g122"
         style="fill:#b3b3b3;fill-opacity:1">
        <path
           inkscape:connector-curvature="0"
           id="path124"
           style="fill:#b3b3b3;fill-opacity:1;fill-rule:nonzero;stroke:none"
           d="m 0,0 c -22.387,0 -40.6,-18.213 -40.6,-40.6 0,-22.386 18.213,-40.599 40.6,-40.599 22.387,0 40.6,18.213 40.6,40.599 C 40.6,-18.213 22.387,0 0,0 m 0,-84.199 c -24.041,0 -43.6,19.558 -43.6,43.599 C -43.6,-16.559 -24.041,3 0,3 24.041,3 43.6,-16.559 43.6,-40.6 43.6,-64.641 24.041,-84.199 0,-84.199" />
      </g>
      <g
         transform="matrix(0.35277777,0,0,-0.35277777,-593.14837,-285.9632)"
         id="g126"
         style="fill:#b3b3b3;fill-opacity:1">
        <path
           inkscape:connector-curvature="0"
           id="path128"
           style="fill:#b3b3b3;fill-opacity:1;fill-rule:nonzero;stroke:none"
           d="m 0,0 c -5.803,0 -10.525,-4.721 -10.525,-10.525 v -21.651 c 0,-5.803 4.722,-10.525 10.525,-10.525 h 21.651 c 5.804,0 10.525,4.722 10.525,10.525 v 21.651 C 32.176,-4.721 27.455,0 21.651,0 Z M 21.651,-45.107 H 0 c -7.13,0 -12.931,5.801 -12.931,12.931 v 21.651 c 0,7.13 5.801,12.931 12.931,12.931 h 21.651 c 7.13,0 12.931,-5.801 12.931,-12.931 v -21.651 c 0,-7.13 -5.801,-12.931 -12.931,-12.931" />
      </g>
      <g
         transform="matrix(0.35277777,0,0,-0.35277777,-589.32934,-282.78073)"
         id="g130"
         style="fill:#b3b3b3;fill-opacity:1">
        <path
           inkscape:connector-curvature="0"
           id="path132"
           style="fill:#b3b3b3;fill-opacity:1;fill-rule:nonzero;stroke:none"
           d="m 0,0 c -6.798,0 -12.329,-5.531 -12.329,-12.329 0,-6.799 5.531,-12.329 12.329,-12.329 6.798,0 12.329,5.53 12.329,12.329 C 12.329,-5.531 6.798,0 0,0 m 0,-27.064 c -8.125,0 -14.735,6.61 -14.735,14.735 0,8.125 6.61,14.735 14.735,14.735 8.125,0 14.735,-6.61 14.735,-14.735 0,-8.125 -6.61,-14.735 -14.735,-14.735" />
      </g>
      <g
         transform="matrix(0.35277777,0,0,-0.35277777,-583.38867,-283.37745)"
         id="g134"
         style="fill:#b3b3b3;fill-opacity:1">
        <path
           inkscape:connector-curvature="0"
           id="path136"
           style="fill:#b3b3b3;fill-opacity:1;fill-rule:nonzero;stroke:none"
           d="m 0,0 c 0,-1.225 -0.993,-2.218 -2.218,-2.218 -1.225,0 -2.218,0.993 -2.218,2.218 0,1.225 0.993,2.218 2.218,2.218 C -0.993,2.218 0,1.225 0,0" />
      </g>
      <g
         transform="matrix(0.35277777,0,0,-0.35277777,-589.32931,-292.75389)"
         id="g138"
         style="fill:#b3b3b3;fill-opacity:1">
        <path
           inkscape:connector-curvature="0"
           id="path140"
           style="fill:#b3b3b3;fill-opacity:1;fill-rule:nonzero;stroke:none"
           d="m 0,0 c -22.387,0 -40.6,-18.213 -40.6,-40.6 0,-22.386 18.213,-40.599 40.6,-40.599 22.387,0 40.6,18.213 40.6,40.599 C 40.6,-18.213 22.387,0 0,0 m 0,-84.199 c -24.041,0 -43.6,19.558 -43.6,43.599 C -43.6,-16.559 -24.041,3 0,3 24.041,3 43.6,-16.559 43.6,-40.6 43.6,-64.641 24.041,-84.199 0,-84.199" />
      </g>
      <g
         transform="matrix(0.35277777,0,0,-0.35277777,-593.14837,-285.9632)"
         id="g142"
         style="fill:#b3b3b3;fill-opacity:1">
        <path
           inkscape:connector-curvature="0"
           id="path144"
           style="fill:#b3b3b3;fill-opacity:1;fill-rule:nonzero;stroke:none"
           d="m 0,0 c -5.803,0 -10.525,-4.721 -10.525,-10.525 v -21.651 c 0,-5.803 4.722,-10.525 10.525,-10.525 h 21.651 c 5.804,0 10.525,4.722 10.525,10.525 v 21.651 C 32.176,-4.721 27.455,0 21.651,0 Z M 21.651,-45.107 H 0 c -7.13,0 -12.931,5.801 -12.931,12.931 v 21.651 c 0,7.13 5.801,12.931 12.931,12.931 h 21.651 c 7.13,0 12.931,-5.801 12.931,-12.931 v -21.651 c 0,-7.13 -5.801,-12.931 -12.931,-12.931" />
      </g>
      <g
         transform="matrix(0.35277777,0,0,-0.35277777,-589.32934,-282.78073)"
         id="g146"
         style="fill:#b3b3b3;fill-opacity:1">
        <path
           inkscape:connector-curvature="0"
           id="path148"
           style="fill:#b3b3b3;fill-opacity:1;fill-rule:nonzero;stroke:none"
           d="m 0,0 c -6.798,0 -12.329,-5.531 -12.329,-12.329 0,-6.799 5.531,-12.329 12.329,-12.329 6.798,0 12.329,5.53 12.329,12.329 C 12.329,-5.531 6.798,0 0,0 m 0,-27.064 c -8.125,0 -14.735,6.61 -14.735,14.735 0,8.125 6.61,14.735 14.735,14.735 8.125,0 14.735,-6.61 14.735,-14.735 0,-8.125 -6.61,-14.735 -14.735,-14.735" />
      </g>
      <g
         transform="matrix(0.35277777,0,0,-0.35277777,-583.38867,-283.37745)"
         id="g150"
         style="fill:#b3b3b3;fill-opacity:1">
        <path
           inkscape:connector-curvature="0"
           id="path152"
           style="fill:#b3b3b3;fill-opacity:1;fill-rule:nonzero;stroke:none"
           d="m 0,0 c 0,-1.225 -0.993,-2.218 -2.218,-2.218 -1.225,0 -2.218,0.993 -2.218,2.218 0,1.225 0.993,2.218 2.218,2.218 C -0.993,2.218 0,1.225 0,0" />
      </g>
    </g>
    <g
       id="g2804"
       transform="matrix(0.25803049,0,0,0.25803049,-434.2112,-192.34012)"
       style="fill:#d40000;fill-opacity:1">
      <g
         transform="matrix(0.35277777,0,0,-0.35277777,-613.64435,-300.16189)"
         id="g550"
         style="fill:#d40000;fill-opacity:1">
        <path
           inkscape:connector-curvature="0"
           id="path552"
           style="fill:#d40000;fill-opacity:1;fill-rule:nonzero;stroke:none"
           d="m 0,0 c -22.387,0 -40.6,-18.213 -40.6,-40.6 0,-22.386 18.213,-40.599 40.6,-40.599 22.387,0 40.6,18.213 40.6,40.599 C 40.6,-18.213 22.387,0 0,0 m 0,-84.199 c -24.041,0 -43.6,19.558 -43.6,43.599 C -43.6,-16.559 -24.041,3 0,3 24.041,3 43.6,-16.559 43.6,-40.6 43.6,-64.641 24.041,-84.199 0,-84.199" />
      </g>
      <g
         transform="matrix(0.35277777,0,0,-0.35277777,-611.04025,-285.89174)"
         id="g554"
         style="fill:#d40000;fill-opacity:1">
        <path
           inkscape:connector-curvature="0"
           id="path556"
           style="fill:#d40000;fill-opacity:1;fill-rule:nonzero;stroke:none"
           d="m 0,0 -11.267,-6.451 c -0.412,-0.236 -0.926,0.062 -0.926,0.538 v 12.9 c 0,0.476 0.514,0.773 0.926,0.538 L 0,1.074 C 0.415,0.836 0.415,0.238 0,0 m 15.14,12.607 c -0.234,1.972 -1.799,3.536 -3.78,3.682 -12.494,0.916 -24.989,0.916 -37.483,0 -1.981,-0.146 -3.546,-1.71 -3.78,-3.682 -1.009,-8.504 -1.009,-17.007 0,-25.511 0.234,-1.972 1.799,-3.537 3.78,-3.682 12.494,-0.916 24.989,-0.916 37.483,0 1.981,0.145 3.546,1.71 3.78,3.682 1.009,8.504 1.009,17.007 0,25.511" />
      </g>
      <g
         transform="matrix(0.35277777,0,0,-0.35277777,-613.64435,-300.16189)"
         id="g558"
         style="fill:#d40000;fill-opacity:1">
        <path
           inkscape:connector-curvature="0"
           id="path560"
           style="fill:#d40000;fill-opacity:1;fill-rule:nonzero;stroke:none"
           d="m 0,0 c -22.387,0 -40.6,-18.213 -40.6,-40.6 0,-22.386 18.213,-40.599 40.6,-40.599 22.387,0 40.6,18.213 40.6,40.599 C 40.6,-18.213 22.387,0 0,0 m 0,-84.199 c -24.041,0 -43.6,19.558 -43.6,43.599 C -43.6,-16.559 -24.041,3 0,3 24.041,3 43.6,-16.559 43.6,-40.6 43.6,-64.641 24.041,-84.199 0,-84.199" />
      </g>
      <g
         transform="matrix(0.35277777,0,0,-0.35277777,-611.04025,-285.89174)"
         id="g562"
         style="fill:#d40000;fill-opacity:1">
        <path
           inkscape:connector-curvature="0"
           id="path564"
           style="fill:#d40000;fill-opacity:1;fill-rule:nonzero;stroke:none"
           d="m 0,0 -11.267,-6.451 c -0.412,-0.236 -0.926,0.062 -0.926,0.538 v 12.9 c 0,0.476 0.514,0.773 0.926,0.538 L 0,1.074 C 0.415,0.836 0.415,0.238 0,0 m 15.14,12.607 c -0.234,1.972 -1.799,3.536 -3.78,3.682 -12.494,0.916 -24.989,0.916 -37.483,0 -1.981,-0.146 -3.546,-1.71 -3.78,-3.682 -1.009,-8.504 -1.009,-17.007 0,-25.511 0.234,-1.972 1.799,-3.537 3.78,-3.682 12.494,-0.916 24.989,-0.916 37.483,0 1.981,0.145 3.546,1.71 3.78,3.682 1.009,8.504 1.009,17.007 0,25.511" />
      </g>
    </g>
    <path
       sodipodi:type="star"
       style="opacity:1;fill:#b3b3b3;fill-opacity:1;stroke:none;stroke-width:1;stroke-miterlimit:4;stroke-dasharray:none;stroke-opacity:1"
       id="path2812"
       sodipodi:sides="3"
       sodipodi:cx="-837.15497"
       sodipodi:cy="-216.15749"
       sodipodi:r1="2.3896556"
       sodipodi:r2="4.7793112"
       sodipodi:arg1="0.67146584"
       sodipodi:arg2="1.3882155"
       inkscape:flatsided="false"
       inkscape:rounded="0"
       inkscape:randomized="0.025"
       d="m -835.22895,-214.55802 -1.16134,3.01989 -3.02798,-3.8249 -2.18508,-2.47421 4.78127,-0.71056 3.33377,-0.68826 z"
       inkscape:transform-center-x="-0.35774274"
       inkscape:transform-center-y="0.27306188"
       transform="matrix(0.59242273,0.09928374,-0.09928374,0.59242273,-381.79533,-5.8484018)" />
    <text
       id="text2816"
       y="-186.14169"
       x="-919.80743"
       style="font-style:normal;font-variant:normal;font-weight:normal;font-stretch:normal;font-size:12.49075127px;line-height:100%;font-family:'Futura PT';-inkscape-font-specification:'Futura PT';text-align:start;letter-spacing:0px;word-spacing:0px;writing-mode:lr-tb;text-anchor:start;fill:#000000;fill-opacity:1;stroke:none;stroke-width:0.66914743px;stroke-linecap:butt;stroke-linejoin:miter;stroke-opacity:1"
       xml:space="preserve"><tspan
         style="font-style:normal;font-variant:normal;font-weight:normal;font-stretch:normal;font-size:5.29166651px;font-family:Cuprum;-inkscape-font-specification:Cuprum;stroke-width:0.66914743px"
         y="-186.14169"
         x="-919.80743"
         id="tspan2814"
         sodipodi:role="line">К сведению</tspan></text>
    <path
       inkscape:connector-curvature="0"
       id="path2818"
       d="m -931.70157,-180.78201 h 78.84451"
       style="fill:#b3b3b3;fill-rule:evenodd;stroke:#b3b3b3;stroke-width:0.26063737px;stroke-linecap:butt;stroke-linejoin:miter;stroke-opacity:1" />
    <text
       xml:space="preserve"
       style="font-style:normal;font-variant:normal;font-weight:normal;font-stretch:normal;font-size:12.49075127px;line-height:100%;font-family:'Futura PT';-inkscape-font-specification:'Futura PT';text-align:start;letter-spacing:0px;word-spacing:0px;writing-mode:lr-tb;text-anchor:start;fill:#000000;fill-opacity:1;stroke:none;stroke-width:0.66914743px;stroke-linecap:butt;stroke-linejoin:miter;stroke-opacity:1"
       x="-919.80743"
       y="-170.64006"
       id="text2822"><tspan
         sodipodi:role="line"
         id="tspan2820"
         x="-919.80743"
         y="-161.10962"
         style="font-style:normal;font-variant:normal;font-weight:normal;font-stretch:normal;font-size:5.29166651px;font-family:Cuprum;-inkscape-font-specification:Cuprum;stroke-width:0.66914743px" /></text>
    <path
       style="fill:#b3b3b3;fill-rule:evenodd;stroke:#b3b3b3;stroke-width:0.26063737px;stroke-linecap:butt;stroke-linejoin:miter;stroke-opacity:1"
       d="m -931.70157,-161.39317 h 78.84451"
       id="path2824"
       inkscape:connector-curvature="0" />
    <text
       id="text2830"
       y="-163.15651"
       x="-919.80743"
       style="font-style:normal;font-variant:normal;font-weight:normal;font-stretch:normal;font-size:12.49075127px;line-height:100%;font-family:'Futura PT';-inkscape-font-specification:'Futura PT';text-align:start;letter-spacing:0px;word-spacing:0px;writing-mode:lr-tb;text-anchor:start;fill:#000000;fill-opacity:1;stroke:none;stroke-width:0.66914743px;stroke-linecap:butt;stroke-linejoin:miter;stroke-opacity:1"
       xml:space="preserve"><tspan
         style="font-style:normal;font-variant:normal;font-weight:normal;font-stretch:normal;font-size:5.29166651px;font-family:Cuprum;-inkscape-font-specification:Cuprum;stroke-width:0.66914743px"
         y="-153.62607"
         x="-919.80743"
         id="tspan2828"
         sodipodi:role="line" /></text>
    <path
       style="fill:#b3b3b3;fill-rule:evenodd;stroke:#b3b3b3;stroke-width:0.26063737px;stroke-linecap:butt;stroke-linejoin:miter;stroke-opacity:1"
       d="m -931.70157,-144.88927 h 78.84451"
       id="path2836"
       inkscape:connector-curvature="0" />
    <text
       xml:space="preserve"
       style="font-style:normal;font-variant:normal;font-weight:normal;font-stretch:normal;font-size:4.93888855px;line-height:100%;font-family:'Futura PT';-inkscape-font-specification:'Futura PT';text-align:start;letter-spacing:0px;word-spacing:0px;writing-mode:lr-tb;text-anchor:start;fill:#000000;fill-opacity:1;stroke:none;stroke-width:0.26458332px;stroke-linecap:butt;stroke-linejoin:miter;stroke-opacity:1"
       x="-918.20447"
       y="-149.80783"
       id="text2844"><tspan
         sodipodi:role="line"
         id="tspan2842"
         x="-918.20447"
         y="-146.03946"
         style="stroke-width:0.26458332px"></tspan></text>
    <text
       xml:space="preserve"
       style="font-style:normal;font-variant:normal;font-weight:normal;font-stretch:normal;font-size:4.93888855px;line-height:98.00000191%;font-family:Cuprum;-inkscape-font-specification:Cuprum;text-align:start;letter-spacing:0px;word-spacing:0px;writing-mode:lr-tb;text-anchor:start;fill:#000000;fill-opacity:1;stroke:none;stroke-width:0.26458332px;stroke-linecap:butt;stroke-linejoin:miter;stroke-opacity:1"
       x="-919.71045"
       y="-154.54007"
       id="text2848"><tspan
         sodipodi:role="line"
         id="tspan2846"
         x="-919.71045"
         y="-154.54007"
         style="font-style:normal;font-variant:normal;font-weight:normal;font-stretch:normal;line-height:98.00000191%;font-family:Cuprum;-inkscape-font-specification:Cuprum;stroke-width:0.26458332px">Социально-экономическое </tspan><tspan
         sodipodi:role="line"
         x="-919.71045"
         y="-149.69995"
         style="font-style:normal;font-variant:normal;font-weight:normal;font-stretch:normal;line-height:98.00000191%;font-family:Cuprum;-inkscape-font-specification:Cuprum;stroke-width:0.26458332px"
         id="tspan2850">развитие</tspan></text>
    <text
       id="text2856"
       y="-171.92699"
       x="-919.71045"
       style="font-style:normal;font-variant:normal;font-weight:normal;font-stretch:normal;font-size:4.93888855px;line-height:98.00000191%;font-family:Cuprum;-inkscape-font-specification:Cuprum;text-align:start;letter-spacing:0px;word-spacing:0px;writing-mode:lr-tb;text-anchor:start;fill:#000000;fill-opacity:1;stroke:none;stroke-width:0.26458332px;stroke-linecap:butt;stroke-linejoin:miter;stroke-opacity:1"
       xml:space="preserve"><tspan
         style="font-style:normal;font-variant:normal;font-weight:normal;font-stretch:normal;line-height:98.00000191%;font-family:Cuprum;-inkscape-font-specification:Cuprum;stroke-width:0.26458332px"
         y="-171.92699"
         x="-919.71045"
         id="tspan2852"
         sodipodi:role="line">Социально-ориентированные</tspan><tspan
         id="tspan2854"
         style="font-style:normal;font-variant:normal;font-weight:normal;font-stretch:normal;line-height:98.00000191%;font-family:Cuprum;-inkscape-font-specification:Cuprum;stroke-width:0.26458332px"
         y="-167.08687"
         x="-919.71045"
         sodipodi:role="line">некомерческие организации</tspan></text>
    <text
       xml:space="preserve"
       style="font-style:normal;font-variant:normal;font-weight:normal;font-stretch:normal;font-size:12.49075127px;line-height:100%;font-family:'Futura PT';-inkscape-font-specification:'Futura PT';text-align:start;letter-spacing:0px;word-spacing:0px;writing-mode:lr-tb;text-anchor:start;fill:#000000;fill-opacity:1;stroke:none;stroke-width:0.66914743px;stroke-linecap:butt;stroke-linejoin:miter;stroke-opacity:1"
       x="-919.80743"
       y="-135.49289"
       id="text2860"><tspan
         sodipodi:role="line"
         id="tspan2858"
         x="-919.80743"
         y="-135.49289"
         style="font-style:normal;font-variant:normal;font-weight:normal;font-stretch:normal;font-size:5.29166651px;font-family:Cuprum;-inkscape-font-specification:Cuprum;stroke-width:0.66914743px">Управление и комитеты</tspan></text>
    <path
       style="fill:#b3b3b3;fill-rule:evenodd;stroke:#b3b3b3;stroke-width:0.26063737px;stroke-linecap:butt;stroke-linejoin:miter;stroke-opacity:1"
       d="m -931.70157,-130.1332 h 78.84451"
       id="path2862"
       inkscape:connector-curvature="0" />
    <text
       id="text2866"
       y="-120.25853"
       x="-919.80743"
       style="font-style:normal;font-variant:normal;font-weight:normal;font-stretch:normal;font-size:12.49075127px;line-height:100%;font-family:'Futura PT';-inkscape-font-specification:'Futura PT';text-align:start;letter-spacing:0px;word-spacing:0px;writing-mode:lr-tb;text-anchor:start;fill:#000000;fill-opacity:1;stroke:none;stroke-width:0.66914743px;stroke-linecap:butt;stroke-linejoin:miter;stroke-opacity:1"
       xml:space="preserve"><tspan
         style="font-style:normal;font-variant:normal;font-weight:normal;font-stretch:normal;font-size:5.29166651px;font-family:Cuprum;-inkscape-font-specification:Cuprum;stroke-width:0.66914743px"
         y="-120.25853"
         x="-919.80743"
         id="tspan2864"
         sodipodi:role="line">Малое предпринимательство</tspan></text>
    <path
       inkscape:connector-curvature="0"
       id="path2868"
       d="m -931.70157,-114.89884 h 78.84451"
       style="fill:#b3b3b3;fill-rule:evenodd;stroke:#b3b3b3;stroke-width:0.26063737px;stroke-linecap:butt;stroke-linejoin:miter;stroke-opacity:1" />
  </g>
</svg>
