<?xml version="1.0" encoding="UTF-8" standalone="no"?>
<!-- Created with Inkscape (http://www.inkscape.org/) -->

<svg
   xmlns:dc="http://purl.org/dc/elements/1.1/"
   xmlns:cc="http://creativecommons.org/ns#"
   xmlns:rdf="http://www.w3.org/1999/02/22-rdf-syntax-ns#"
   xmlns:svg="http://www.w3.org/2000/svg"
   xmlns="http://www.w3.org/2000/svg"
   xmlns:sodipodi="http://sodipodi.sourceforge.net/DTD/sodipodi-0.dtd"
   xmlns:inkscape="http://www.inkscape.org/namespaces/inkscape"
   id="svg2306"
   sodipodi:version="0.32"
   inkscape:version="0.92.3 (2405546, 2018-03-11)"
   width="175"
   height="175"
   sodipodi:docname="Man-175.svg"
   version="1.0">
  <metadata
     id="metadata2311">
    <rdf:RDF>
      <cc:Work
         rdf:about="">
        <dc:format>image/svg+xml</dc:format>
        <dc:type
           rdf:resource="http://purl.org/dc/dcmitype/StillImage" />
        <dc:title></dc:title>
      </cc:Work>
    </rdf:RDF>
  </metadata>
  <defs
     id="defs2309" />
  <sodipodi:namedview
     inkscape:window-height="1015"
     inkscape:window-width="1920"
     inkscape:pageshadow="2"
     inkscape:pageopacity="0.0"
     borderopacity="1.0"
     bordercolor="#666666"
     pagecolor="#ffffff"
     id="base"
     inkscape:zoom="1.8009526"
     inkscape:cx="-114.74137"
     inkscape:cy="81.206034"
     inkscape:window-x="0"
     inkscape:window-y="0"
     inkscape:current-layer="svg2306"
     showgrid="false"
     inkscape:window-maximized="1" />
  <path
     style="fill:#000000;fill-opacity:0.4600939;stroke-width:1"
     d="m -1.1238851,164.10207 8.9224183,-1.06025 c 4.1912578,-0.40413 7.6204678,-1.72305 7.6204678,-2.93096 0,-1.20786 2.901638,-2.21062 6.448084,-2.22821 11.169818,-0.0556 15.671636,-2.31842 21.102822,-10.60798 6.968998,-10.63679 7.258834,-28.56154 0.586191,-36.25514 -3.416617,-3.93941 -4.689516,-8.77258 -4.689516,-17.806094 0,-6.819443 -0.933402,-12.975868 -2.074221,-13.680943 -4.181642,-2.584384 -5.395921,-22.125622 -1.794302,-28.875501 1.896722,-3.554677 5.175279,-10.419848 7.285703,-15.25591 2.552668,-5.849516 5.37006,-8.792845 8.416601,-8.792845 2.518742,0 4.579526,-0.8152 4.579526,-1.811559 0,-4.697559 16.533545,-10.508575 26.653664,-9.367872 11.481179,1.294095 31.965277,10.233391 31.965277,13.949695 0,1.293576 2.11028,5.034733 4.68952,8.313714 2.57925,3.278956 4.68951,7.816837 4.68951,10.084195 0,2.267334 1.70774,4.777749 3.79498,5.578695 3.32209,1.274821 3.58156,4.587121 2.08238,26.58203 -1.53057,22.455515 -2.30766,25.637095 -7.31211,29.937285 -4.69786,4.03678 -5.59951,6.98628 -5.59951,18.31728 0,9.67062 1.16519,14.71988 4.10334,17.78143 7.65025,7.9716 22.97109,16.04009 33.48957,17.6368 5.76104,0.87448 13.37627,2.14495 16.92272,2.8232 l 6.44807,1.23318 v 20.91653 20.91653 H 88.021577 -1.1641413 Z"
     id="path2315"
     sodipodi:nodetypes="ccssssssssssssssssssssccccccc"
     inkscape:connector-curvature="0" />
</svg>
