<?xml version="1.0" encoding="UTF-8" standalone="no"?>
<!-- Created with Inkscape (http://www.inkscape.org/) -->

<svg
   xmlns:dc="http://purl.org/dc/elements/1.1/"
   xmlns:cc="http://creativecommons.org/ns#"
   xmlns:rdf="http://www.w3.org/1999/02/22-rdf-syntax-ns#"
   xmlns:svg="http://www.w3.org/2000/svg"
   xmlns="http://www.w3.org/2000/svg"
   xmlns:sodipodi="http://sodipodi.sourceforge.net/DTD/sodipodi-0.dtd"
   xmlns:inkscape="http://www.inkscape.org/namespaces/inkscape"
   id="svg2306"
   sodipodi:version="0.32"
   inkscape:version="0.92.3 (2405546, 2018-03-11)"
   width="175"
   height="230"
   sodipodi:docname="Man.svg"
   version="1.0">
  <metadata
     id="metadata2311">
    <rdf:RDF>
      <cc:Work
         rdf:about="">
        <dc:format>image/svg+xml</dc:format>
        <dc:type
           rdf:resource="http://purl.org/dc/dcmitype/StillImage" />
        <dc:title></dc:title>
      </cc:Work>
    </rdf:RDF>
  </metadata>
  <defs
     id="defs2309" />
  <sodipodi:namedview
     inkscape:window-height="707"
     inkscape:window-width="1366"
     inkscape:pageshadow="2"
     inkscape:pageopacity="0.0"
     borderopacity="1.0"
     bordercolor="#666666"
     pagecolor="#ffffff"
     id="base"
     inkscape:zoom="0.9004763"
     inkscape:cx="-47.815778"
     inkscape:cy="140.47202"
     inkscape:window-x="0"
     inkscape:window-y="0"
     inkscape:current-layer="svg2306"
     showgrid="false"
     inkscape:window-maximized="1" />
  <path
     style="fill:#000000;fill-opacity:0.4600939;stroke-width:1"
     d="m -14.388786,193.66049 10.1978754,-1.21181 c 4.79039697,-0.4619 8.7098098,-1.96937 8.7098098,-3.34994 0,-1.38053 3.3164269,-2.52663 7.3698358,-2.54674 12.76654,-0.0636 17.911892,-2.64984 24.119465,-12.12438 7.965213,-12.15731 8.29648,-32.64441 0.669985,-41.4378 -3.905021,-4.50255 -5.35988,-10.02661 -5.35988,-20.35147 0,-7.79428 -1.066831,-14.830764 -2.370731,-15.636629 -4.779406,-2.953821 -6.167265,-25.288473 -2.050796,-33.003245 2.167857,-4.062817 5.915084,-11.909361 8.327192,-17.436738 2.917571,-6.685702 6.137707,-10.049779 9.619752,-10.049779 2.878794,0 5.234166,-0.931733 5.234166,-2.070521 0,-5.369073 18.897011,-12.010771 30.463797,-10.707006 13.12241,1.479086 36.534715,11.696252 36.534715,15.943799 0,1.478494 2.41193,5.754447 5.35988,9.502157 2.94794,3.747683 5.35987,8.934252 5.35987,11.525728 0,2.591449 1.95186,5.460727 4.33747,6.376168 3.79698,1.457056 4.09355,5.242849 2.38005,30.381922 -1.74935,25.665524 -2.63754,29.301914 -8.35737,34.216804 -5.36942,4.61384 -6.39995,7.98497 -6.39995,20.93573 0,11.05304 1.33174,16.82408 4.6899,20.32328 8.74386,9.11113 26.2548,18.33302 38.27689,20.15798 6.58458,0.99949 15.28841,2.45157 19.34182,3.22678 l 7.36983,1.40946 v 23.90654 23.90654 H 87.49999 -14.434796 Z"
     id="path2315"
     sodipodi:nodetypes="ccssssssssssssssssssssccccccc"
     inkscape:connector-curvature="0" />
</svg>
