<svg id="_x31_" enable-background="new 0 0 24 24" height="512" viewBox="0 0 24 24" width="512" xmlns="http://www.w3.org/2000/svg"><path d="m17.5 13c-3.584 0-6.5-2.916-6.5-6.5s2.916-6.5 6.5-6.5 6.5 2.916 6.5 6.5-2.916 6.5-6.5 6.5zm0-12c-3.032 0-5.5 2.467-5.5 5.5s2.468 5.5 5.5 5.5 5.5-2.467 5.5-5.5-2.468-5.5-5.5-5.5z"/><path d="m16.5 9c-.133 0-.26-.053-.354-.146l-2-2c-.195-.195-.195-.512 0-.707s.512-.195.707 0l1.622 1.622 3.148-3.598c.182-.209.498-.229.705-.047.208.182.229.498.047.706l-3.5 4c-.09.104-.22.165-.358.17-.006 0-.011 0-.017 0z"/><path d="m11.5 21h-3c-.276 0-.5-.224-.5-.5v-5c0-.276.224-.5.5-.5s.5.224.5.5v4.5h2.5c.276 0 .5.224.5.5s-.224.5-.5.5z"/><path d="m6.5 21c-.169 0-.335-.086-.429-.243l-3-5c-.143-.237-.065-.544.172-.686.234-.14.543-.065.686.171l3 5c.143.237.065.544-.172.686-.08.049-.169.072-.257.072z"/><path d="m3.5 21c-.088 0-.177-.023-.257-.071-.237-.142-.314-.449-.172-.686l3-5c.143-.237.452-.312.686-.171.237.142.314.449.172.686l-3 5c-.094.156-.26.242-.429.242z"/><path d="m15.25 21h-1.75c-.276 0-.5-.224-.5-.5s.224-.5.5-.5h1.75c.413 0 .75-.336.75-.75s-.337-.75-.75-.75h-.5c-.965 0-1.75-.785-1.75-1.75s.785-1.75 1.75-1.75h1.75c.276 0 .5.224.5.5s-.224.5-.5.5h-1.75c-.413 0-.75.336-.75.75s.337.75.75.75h.5c.965 0 1.75.785 1.75 1.75s-.785 1.75-1.75 1.75z"/><path d="m17.5 24h-15c-1.379 0-2.5-1.122-2.5-2.5v-19c0-1.378 1.121-2.5 2.5-2.5h7c.276 0 .5.224.5.5s-.224.5-.5.5h-7c-.827 0-1.5.673-1.5 1.5v19c0 .827.673 1.5 1.5 1.5h15c.827 0 1.5-.673 1.5-1.5v-6c0-.276.224-.5.5-.5s.5.224.5.5v6c0 1.378-1.121 2.5-2.5 2.5z"/></svg>