<?xml version="1.0" encoding="UTF-8" standalone="no"?>
<!-- Created with Inkscape (http://www.inkscape.org/) -->

<svg
   xmlns:dc="http://purl.org/dc/elements/1.1/"
   xmlns:cc="http://creativecommons.org/ns#"
   xmlns:rdf="http://www.w3.org/1999/02/22-rdf-syntax-ns#"
   xmlns:svg="http://www.w3.org/2000/svg"
   xmlns="http://www.w3.org/2000/svg"
   xmlns:sodipodi="http://sodipodi.sourceforge.net/DTD/sodipodi-0.dtd"
   xmlns:inkscape="http://www.inkscape.org/namespaces/inkscape"
   width="700"
   height="500"
   viewBox="0 0 185.20834 132.29167"
   version="1.1"
   id="svg892"
   inkscape:version="0.92.3 (2405546, 2018-03-11)"
   sodipodi:docname="back.svg">
  <defs
     id="defs886">
    <style
       id="style2"
       type="text/css">
   <![CDATA[
    .str0 {stroke:#2A2A29;stroke-width:20}
    .str5 {stroke:#2A2A29;stroke-width:49}
    .str1 {stroke:#C5C8D7;stroke-width:75}
    .str4 {stroke:#FFDB01;stroke-width:75}
    .str3 {stroke:#F4A700;stroke-width:250}
    .str2 {stroke:#FFDB01;stroke-width:400}
    .fil1 {fill:none}
    .fil7 {fill:black}
    .fil2 {fill:#0057C1}
    .fil13 {fill:#00A651}
    .fil12 {fill:#297AA9}
    .fil9 {fill:#3D92C8}
    .fil16 {fill:#A54686}
    .fil3 {fill:#E1110D}
    .fil8 {fill:#E7E8E9}
    .fil14 {fill:#ED1C24}
    .fil4 {fill:#F4F9FF}
    .fil15 {fill:#FAA74A}
    .fil17 {fill:#FED09E}
    .fil11 {fill:#FFCB05}
    .fil10 {fill:white}
    .fil0 {fill:black;fill-rule:nonzero}
    .fil6 {fill:#DA251D;fill-rule:nonzero}
    .fil5 {fill:url(#id2)}
   ]]>
  </style>
    <mask
       id="id0">
  <linearGradient
   y2="9613.1904"
   x2="8157.6201"
   y1="10504.1"
   x1="10008.3"
   gradientUnits="userSpaceOnUse"
   id="id1">
   <stop
   id="stop4"
   style="stop-opacity:1; stop-color:white"
   offset="0" />

   <stop
   id="stop6"
   style="stop-opacity:0; stop-color:white"
   offset="1" />

  </linearGradient>

     <rect
   id="rect9"
   height="15437"
   width="7186"
   y="2340"
   x="5490"
   style="fill:url(#id1)" />

    </mask>
    <radialGradient
       fy="4701.8398"
       fx="9041.71"
       r="952.48999"
       cy="4701.8398"
       cx="9041.71"
       gradientUnits="userSpaceOnUse"
       id="id2">
   <stop
   id="stop12"
   style="stop-color:#FFDB01"
   offset="0" />

   <stop
   id="stop14"
   style="stop-color:#F9C100"
   offset="0.678431" />

   <stop
   id="stop16"
   style="stop-color:#F4A700"
   offset="1" />

  </radialGradient>
    <filter
       style="color-interpolation-filters:sRGB;"
       inkscape:label="Greyscale"
       id="filter1917">
      <feColorMatrix
         values="0.21 0.72 0.072 0.11 0 0.21 0.72 0.072 0.11 0 0.21 0.72 0.072 0.11 0 0 0 0 1 0 "
         id="feColorMatrix1915" />
    </filter>
  </defs>
  <sodipodi:namedview
     id="base"
     pagecolor="#ffffff"
     bordercolor="#666666"
     borderopacity="1.0"
     inkscape:pageopacity="0.0"
     inkscape:pageshadow="2"
     inkscape:zoom="0.49497475"
     inkscape:cx="554.07677"
     inkscape:cy="-55.718406"
     inkscape:document-units="px"
     inkscape:current-layer="layer1"
     showgrid="false"
     units="px"
     inkscape:window-width="1366"
     inkscape:window-height="707"
     inkscape:window-x="0"
     inkscape:window-y="0"
     inkscape:window-maximized="1" />
  <metadata
     id="metadata889">
    <rdf:RDF>
      <cc:Work
         rdf:about="">
        <dc:format>image/svg+xml</dc:format>
        <dc:type
           rdf:resource="http://purl.org/dc/dcmitype/StillImage" />
        <dc:title></dc:title>
      </cc:Work>
    </rdf:RDF>
  </metadata>
  <g
     inkscape:label="Layer 1"
     inkscape:groupmode="layer"
     id="layer1"
     transform="translate(0,-164.70833)">
    <path
       style="fill:#cccccc;stroke:none;stroke-width:2.83743954;stroke-linecap:round;stroke-linejoin:round"
       d="M 0,164.70833 H 185.20834 V 297 H 0 Z"
       id="rect1919" />
    <g
       style="clip-rule:evenodd;fill-rule:evenodd;filter:url(#filter1917);image-rendering:optimizeQuality;shape-rendering:geometricPrecision;text-rendering:geometricPrecision"
       id="g1825"
       transform="matrix(0.00238284,0,0,0.00238284,69.132006,181.59088)">
      <g
         id="Слой_x0020_1">
  <metadata
   id="CorelCorpID_0Corel-Layer" />

  <path
   id="path22"
   d="m 6334,14 7105,2 1406,-5 h 4835 c 1,2 1,4 1,6 l 12,21044 c 0,257 -51,495 -154,713 -102,217 -255,414 -460,590 h -1 c -205,179 -431,312 -678,400 -247,88 -516,132 -809,132 l -4157,-1 h -1468 c -287,0 -552,44 -795,131 -243,87 -465,219 -665,394 v 0 0 c -201,173 -351,363 -451,570 -101,207 -152,433 -154,677 0,13 -11,24 -25,24 -13,0 -24,-11 -24,-24 -2,-245 -53,-470 -152,-678 -99,-208 -248,-397 -444,-570 l -1,-1 c -200,-174 -422,-305 -667,-393 -245,-88 -512,-132 -801,-132 H 6328 l -4157,-1 c -290,0 -560,-44 -808,-132 -249,-89 -476,-222 -684,-401 l -1,-1 C 474,22180 321,21982 220,21764 118,21546 68,21309 70,21054 L 8,35 C 8,22 19,11 32,11 l 6301,1 z M 13439,64 6334,62 58,61 120,21056 v 0 0 c -2,248 47,478 145,689 99,212 248,405 446,578 v 0 c 203,175 425,305 668,392 243,87 507,130 792,130 l 4157,1 h 1459 c 295,0 567,45 817,134 250,89 477,223 682,402 l 2,1 c 201,177 353,372 456,586 63,133 108,272 133,419 25,-147 70,-287 134,-419 104,-214 258,-409 463,-586 v 0 c 205,-179 432,-313 681,-403 249,-89 519,-134 811,-134 h 1468 l 4157,1 c 287,0 550,-43 793,-129 242,-86 462,-217 663,-391 v 0 c 200,-172 348,-364 447,-574 100,-212 149,-443 149,-693 L 19631,40 13438,64 Z"
   class="fil0"
   inkscape:connector-curvature="0"
   style="fill:#000000;fill-rule:nonzero" />

  <path
   id="path24"
   d="m 109,19293 c 449,-40 768,-261 1007,-593 163,177 309,329 468,428 219,136 467,191 683,182 216,-9 429,-90 638,-240 138,-99 244,-220 381,-377 28,29 52,55 76,80 136,144 262,268 399,353 221,137 470,192 688,183 217,-9 432,-91 643,-242 139,-100 246,-222 383,-374 166,185 313,338 473,438 220,137 469,192 686,182 217,-9 431,-91 642,-242 139,-100 246,-221 381,-377 164,180 322,350 481,450 219,136 467,191 683,182 216,-9 429,-90 638,-240 138,-99 250,-231 384,-389 163,177 326,346 485,445 219,136 467,191 683,182 216,-9 429,-90 638,-240 138,-99 244,-220 375,-375 160,180 289,347 448,446 219,136 467,191 683,182 216,-9 429,-90 638,-240 138,-99 270,-225 401,-381 160,179 309,341 469,440 219,136 467,191 683,182 216,-9 429,-90 638,-240 138,-99 269,-245 403,-397 163,183 337,357 496,456 219,136 467,191 683,182 216,-9 429,-90 638,-240 138,-99 250,-226 381,-383 236,334 614,580 1063,620"
   class="fil1 str0"
   inkscape:connector-curvature="0"
   style="fill:none;stroke:#2a2a29;stroke-width:20" />

  <path
   id="path26"
   d="m 9459,19085 c -209,150 -423,231 -638,240 -216,9 -464,-45 -683,-182 -159,-99 -317,-269 -481,-450 -136,156 -242,277 -381,377 -210,151 -425,232 -642,242 -217,9 -466,-45 -686,-182 -160,-100 -307,-253 -473,-438 -137,153 -244,275 -383,374 -211,151 -426,233 -643,242 -217,9 -467,-46 -688,-183 -136,-85 -263,-209 -399,-353 -24,-25 -48,-51 -76,-80 -137,156 -244,278 -381,377 -209,150 -423,231 -638,240 -216,9 -464,-45 -683,-182 -159,-99 -305,-252 -468,-428 -238,331 -556,551 -1002,592 l 5,1763 c 0,254 44,472 145,689 209,448 649,804 1115,970 243,87 507,130 792,130 l 5617,1 c 295,0 567,45 817,134 477,171 922,536 1139,989 63,133 108,272 133,419 69,-400 278,-730 598,-1005 423,-369 925,-537 1492,-537 l 5625,1 c 554,0 1043,-160 1456,-521 390,-341 597,-751 597,-1267 l -1,-1730 c -447,-41 -824,-286 -1059,-620 -131,156 -243,284 -381,383 -209,150 -423,231 -638,240 -216,9 -464,-45 -683,-182 -159,-99 -333,-274 -496,-456 -133,153 -265,298 -403,397 -209,150 -423,231 -638,240 -216,9 -464,-45 -683,-182 -159,-99 -308,-261 -469,-440 -131,156 -263,282 -401,381 -209,150 -423,231 -638,240 -216,9 -464,-45 -683,-182 -159,-99 -288,-267 -448,-446 -131,155 -237,276 -375,375 -209,150 -423,231 -638,240 -216,9 -464,-45 -683,-182 -159,-99 -322,-268 -485,-445 -134,159 -246,290 -384,389 z"
   class="fil2"
   inkscape:connector-curvature="0"
   style="fill:#0057c1" />

  <path
   id="path28"
   d="m 8821,19325 c 216,-9 429,-90 638,-240 138,-99 250,-231 384,-389 163,177 326,346 485,445 219,136 467,191 683,182 216,-9 429,-90 638,-240 138,-99 244,-220 375,-375 160,180 289,347 448,446 219,136 467,191 683,182 216,-9 429,-90 638,-240 138,-99 270,-225 401,-381 160,179 309,341 469,440 219,136 467,191 683,182 216,-9 429,-90 638,-240 138,-99 269,-245 403,-397 163,183 337,357 496,456 219,136 467,191 683,182 216,-9 429,-90 638,-240 138,-99 250,-226 381,-383 235,333 612,578 1059,620 L 19633,45 13440,69 6146,67 6130,6963 78,6975 114,19297 c 446,-41 764,-262 1002,-592 163,177 309,329 468,428 219,136 467,191 683,182 216,-9 429,-90 638,-240 138,-99 244,-220 381,-377 28,29 52,55 76,80 136,144 262,268 399,353 221,137 470,192 688,183 217,-9 432,-91 643,-242 139,-100 246,-222 383,-374 166,185 313,338 473,438 220,137 469,192 686,182 217,-9 431,-91 642,-242 139,-100 246,-221 381,-377 164,180 322,350 481,450 219,136 467,191 683,182 z"
   class="fil3"
   inkscape:connector-curvature="0"
   style="fill:#e1110d" />

  <g
   id="_147501352">
   <path
   style="fill:#f4f9ff;stroke:#c5c8d7;stroke-width:75"
   d="m 9838,7559 -7435,-3968 1958,10398 4570,1611 907,320 z"
   id="polygon30" />

   <path
   id="path32"
   d="m 11228,10835 c 1505,-4171 1765,-7901 580,-8330 -1185,-429 -3365,2605 -4870,6777 -1505,4171 -1765,7901 -580,8330 620,224 1549,-506 2550,-2002"
   class="fil1 str2"
   inkscape:connector-curvature="0"
   style="fill:none;stroke:#ffdb01;stroke-width:400" />

   <path
   id="path34"
   mask="url(#id0)"
   d="m 11228,10835 c 1505,-4171 1765,-7901 580,-8330 -1185,-429 -3365,2605 -4870,6777 -1505,4171 -1765,7901 -580,8330 620,224 1549,-506 2550,-2002"
   style="fill:none;stroke:#f4a700;stroke-width:250"
   class="fil1 str3"
   inkscape:connector-curvature="0" />

   <path
   id="path36"
   d="m 9994,4702 c 0,-511 -426,-926 -952,-926 -526,0 -952,415 -952,926 0,511 426,926 952,926 526,0 952,-415 952,-926 z"
   class="fil5 str4"
   inkscape:connector-curvature="0"
   style="fill:url(#id2);stroke:#ffdb01;stroke-width:75" />

   <path
   style="fill:#f4f9ff;stroke:#c5c8d7;stroke-width:75"
   d="M 17272,3586 15314,13984 9837,15916 V 7555 Z"
   id="polygon38" />

  </g>

  <g
   id="_147496864">
   <path
   style="fill:#da251d;fill-rule:nonzero"
   d="m 56,54 6600,3 -18,7480 -6567,13 z"
   id="polygon41" />

   <path
   id="path43"
   d="m 3441,1367 -30,-29 h -59 l -29,30 -59,30 v 29 h -29 v 0 h -59 l -29,30 -59,30 -29,59 v 0 h -29 v 29 l -89,-118 -89,-59 -118,-118 -30,-59 -30,-88 -30,-59 -30,-59 -59,-59 -30,-29 h -29 l -29,30 V 780 721 692 l 59,29 h 29 v -59 l -30,-29 -59,-59 v 0 -59 -59 h 29 59 29 29 v -88 h -29 -29 -59 -29 v -29 h 59 v 0 l 29,-88 h -59 l -30,-29 v -29 -29 h -29 -88 v 29 59 h -59 l -29,30 v 59 h 29 59 v 59 h -29 -29 -59 -29 l 30,88 v 0 h 59 59 29 v 29 29 h -59 l -30,-29 v 88 l 30,29 59,29 v 29 59 177 h -29 l -59,59 v 88 l 59,147 59,88 30,206 h -59 -59 v -59 -29 -29 l -30,-29 v 29 h -29 v 29 l -59,30 h -118 -59 -29 l -59,30 v -29 -29 -59 l -59,-29 h -29 v 29 h 29 v 29 l -59,30 -59,30 -59,59 -59,-118 -118,-59 v 0 l -30,-59 h -29 v 29 l 30,29 v 88 l -89,-88 h -59 -29 l -29,30 v 29 0 0 h 29 l 29,-30 v 29 l 30,88 h -118 -59 l -29,30 h 59 v 29 h 29 l 30,29 v 29 l 30,29 59,59 h -88 l -59,30 -59,30 v 0 l -29,30 h 29 29 l 30,29 118,29 h 59 l -59,118 -29,118 v 118 29 l -29,30 -29,147 v 0 29 0 0 0 29 0 0 0 l -29,88 v 0 0 29 0 29 l -29,30 -29,59 v 0 l 30,59 v 29 l 29,-30 29,-30 29,-30 30,59 -29,30 v 0 59 0 h 236 v -29 -118 -29 0 h 29 l 30,59 v 88 0 29 h 29 l 29,-30 h 29 v 0 -29 -59 -29 l 59,88 89,59 29,-30 89,118 -88,206 -147,236 -29,30 -29,59 -29,88 -29,88 v 29 88 59 88 l -89,-88 -118,-29 -88,-29 -89,-88 -59,-59 -59,-29 h -88 -59 -59 l -29,88 -29,59 -59,206 -29,59 -29,30 -88,177 v 177 118 h -29 l -29,59 v 59 118 29 l 30,29 30,29 v 0 l 235,-236 29,-30 v 0 l -30,-59 h -29 l -30,-29 v -59 l 59,-30 29,-59 29,-88 29,-88 v -88 -29 l 59,-89 29,-30 29,-30 59,59 118,88 118,147 148,147 -29,30 h -29 -177 v 0 l -59,30 -59,30 -29,88 -88,206 -29,59 h -29 l -29,59 -88,89 -59,118 -29,88 v 29 l 30,29 v 29 88 l -59,118 -29,30 v 118 0 l -29,30 -177,59 H 359 l -88,30 h -29 v 29 l 206,88 148,118 59,88 30,29 v 0 h 29 l 147,-30 118,29 59,59 30,29 v 29 l 29,-30 59,-30 59,-30 118,29 v 177 88 29 l -59,30 -59,30 -89,-59 -118,-29 -148,-88 -206,-88 H 477 l -147,30 h -29 v 29 l 59,29 30,29 -88,59 -29,88 v 29 h 29 l 118,-59 h 88 v 29 l -29,59 v 59 0 l 29,-30 29,-30 h 59 l 30,29 148,147 v -29 l 88,-30 h 88 l 59,29 h 29 l 30,29 118,59 89,59 59,29 59,29 59,29 59,-30 29,-59 h 29 l 29,-30 30,29 118,59 h 29 l -29,30 30,59 -147,-29 h -177 -177 -59 -29 l -177,-29 H 833 745 686 v 29 l 30,29 v 29 0 l -88,30 -59,59 -59,30 v 29 l -29,30 h 88 29 l 59,-30 h 88 l -59,59 v 59 l -29,30 29,-30 206,-30 h 88 l 59,29 v 0 l 30,59 h 29 l 30,29 v -29 l 29,-88 59,-30 h 29 l 206,88 236,29 h 206 l 59,-30 h 29 l 147,29 30,29 v 0 h 29 l 59,29 29,-30 29,-59 v 0 0 l 29,-59 29,-59 59,29 h 118 147 206 l 29,-30 -59,59 v 88 29 29 h 29 l 29,-59 88,-30 -29,88 v 59 29 l 30,29 v -29 l 88,-59 88,-59 h 118 l 59,-30 v 0 l 147,29 147,-30 88,-30 88,-30 88,-89 29,-59 -30,-29 -59,-29 -30,-29 -59,-59 v -88 l 29,-59 88,-89 59,-59 207,176 206,59 177,29 h 59 29 l 59,88 v 29 29 l -59,30 h -59 l -265,1 h -88 l -59,30 -29,30 v 29 29 h 29 v 0 l -59,59 -29,30 -29,30 h 147 v -29 59 h 29 l 59,-30 v 0 h 236 177 l 118,-30 88,-59 59,-59 29,-88 88,-59 v -88 -29 l -30,-59 -89,-59 -88,-29 -59,-59 -30,-59 v 0 l 29,-88 89,59 177,88 265,58 265,-1 206,-89 147,-118 88,-206 v -236 l 29,-59 -30,-88 -30,-118 -118,-206 -89,-177 -59,-206 29,-88 59,-118 h 29 l 29,-30 h 59 29 l 59,88 -30,-29 -59,30 -29,59 -29,59 30,29 59,88 89,88 v 59 88 29 h 29 l 29,-30 88,-59 59,-89 29,-118 v -206 l -148,-206 -30,-29 -118,-29 -177,-29 -118,30 -88,59 -29,59 -88,118 -59,177 v 118 l 30,147 59,147 89,147 59,88 59,118 v 118 l -59,118 -88,89 h -147 l -147,-59 -206,-59 -236,-117 v -206 h 88 l 118,-30 v -29 l 29,-118 29,-177 88,-206 147,-177 29,-88 v 0 l -59,-59 -30,-29 -30,-29 -59,-59 -59,-118 -30,-147 v -118 l 59,-118 88,-148 59,-147 29,-265 -30,-265 -59,-147 -89,-118 h 118 l 147,29 30,88 30,88 v 147 236 236 l 59,206 118,206 148,88 h 206 v 0 l 29,-30 v -29 l -30,-29 -30,-59 -59,-59 v -118 l 59,-177 117,-295 58,-265 -1,-265 -59,-118 -59,-118 -89,-88 -147,-59 -147,-59 h -147 l -147,30 -147,59 -118,118 -118,118 -147,-29 -206,-29 h -59 l -88,30 -118,30 -88,30 -30,-29 -89,-59 -89,-59 -59,-88 -30,-88 -30,-118 -59,-88 -30,-59 v 0 0 l -30,-29 v -88 l -30,-59 -30,-88 29,-59 29,-59 v -29 l 29,-30 89,236 118,177 118,88 89,88 h 29 l 118,29 118,-59 29,-59 v -29 h 29 29 l 88,29 h 59 l 29,-30 29,-59 59,-89 59,-59 h 59 118 l 88,-59 59,-59 v -59 -88 l 29,-59 29,-30 29,-30 177,-118 88,-118 v -118 l -30,-59 -30,-59 -30,-29 -59,-29 -59,30 -88,-29 h -88 l -206,-29 v 0 l 29,-30 v -59 l -30,-29 -59,-29 v 0 0 0 l -88,-29 h -29 l -295,-29 -295,-29 h -236 -206 29 -29 v 0 l -30,-29 -30,-29 -30,-59 118,59 59,29 h 88 l 88,-89 29,-88 29,-30 h 29 29 l 30,59 h 29 l 88,29 59,-30 29,-88 29,-88 29,-30 v -29 h -29 l -59,30 -29,59 -29,30 h -29 l -59,-29 -59,-88 h -59 l -59,30 -59,59 -29,59 -59,30 h -29 V 968 880 762 644 l -89,-177 -118,-88 -59,-59 h -88 l -88,-29 -118,-29 -88,30 v 29 l 30,29 59,88 30,29 30,29 v 0 l -59,30 -59,89 -59,89 -29,147 v 29 l 59,118 v 0 l 30,177 v 0 l 30,29 h 29 v 0 29 0 0 0 0 l 30,29 30,29 h 59 l -59,30 v 29 0 0 z m -204,1209 -177,118 -88,89 29,-59 v -59 0 h -29 v 0 -118 l 295,-30 -29,59 v 0 0 z m 58,-472 -59,89 h -59 l -88,30 h -29 v -29 h 29 59 l -59,-29 -59,-59 -30,-59 v 29 -29 l 29,-30 h 59 v -29 h -29 -29 -59 v -29 0 0 l -30,-29 -30,-29 h 88 l 118,-59 h 118 29 v 88 l 30,177 v 0 0 z m -378,2388 -29,59 -147,148 h 29 v 29 l 59,29 h 118 l 88,-89 88,-30 88,-59 h 59 l 59,-30 29,-30 295,-30 236,-59 59,118 89,118 148,177 89,147 30,59 30,88 -29,88 -29,88 v 29 0 l -29,59 -88,177 -176,236 -235,207 v 29 l -206,59 -147,59 -118,89 -88,59 147,-148 59,-59 29,-59 v 0 l -59,-29 h -59 l -30,-29 -59,-29 -59,30 59,-118 118,-148 118,-59 88,-30 h 29 l 29,-30 -30,-29 v 0 l 29,-59 88,-59 118,-30 118,-30 v 0 -29 -29 l 29,-118 59,-89 59,-30 29,-30 v 0 0 l -30,-29 v 0 l -118,30 -177,30 -236,-29 h -206 l -177,-29 h -147 -118 -147 l -1,-265 -30,-295 59,-59 h 29 v -29 59 29 0 h 29 88 v 0 0 z m -4,-2210 v 0 h 59 z m -237,-677 h -59 v 0 -59 0 l -30,-29 h -29 l -29,30 -1,-265 v 0 l 30,118 118,206 v 0 0 z m -83,2859 30,324 1,295 -88,30 -118,89 -59,89 30,88 89,88 89,118 30,147 h -29 -29 v 0 29 59 l -59,118 -59,118 -89,-118 -118,-147 -177,-147 -177,-88 v -29 l -30,-118 -30,-88 v 0 l 29,-88 v -59 -59 0 0 l -59,-29 h -88 l -147,30 -118,59 -59,59 -206,148 -177,89 h -29 l 29,-88 v -59 h 59 l 59,-59 59,-147 29,-177 59,-118 59,-89 29,-30 59,-30 59,-89 h 88 l 118,29 295,-1 h 147 l 147,-30 118,-30 88,-30 v -88 0 -29 -59 -29 h 29 v 29 l 118,118 v 0 0 z m -622,-1679 -177,-118 -118,-59 29,-30 v 0 0 -29 l 59,-59 29,-30 88,-30 88,-89 30,88 v 147 l -29,206 v 0 0 z m 2128,3208 59,-59 118,-59 118,-30 29,-59 -30,-29 v -29 l 29,-118 59,-177 147,-236 29,-30 29,-88 v 0 l -59,-88 -30,-88 v -88 -59 l 147,59 118,88 89,59 30,59 30,59 30,88 -29,30 v 29 l -29,59 -29,88 -59,118 -147,266 -206,236 v 29 l -206,-29 h -236 v 0 0 z"
   class="fil7"
   inkscape:connector-curvature="0"
   style="fill:#000000" />

   <path
   id="path45"
   d="m 3292,984 -30,-59 v -59 l 29,-118 59,-118 59,-59 29,-30 29,-30 v 0 -59 l -59,-29 -59,-59 -30,-29 59,-30 88,29 h 88 l 89,59 88,29 89,88 89,147 v 118 118 29 l -29,30 v 59 l 30,59 h 88 l 59,-30 29,-59 29,-59 59,-30 30,29 88,29 59,59 h 29 29 l 29,-59 29,-59 -29,118 -29,59 -59,30 -30,-29 h -29 l -59,-59 -30,-29 -29,30 -59,59 -29,59 -88,89 h -59 l -59,-29 -89,-59 -59,-29 v 29 29 l -30,-29 -30,-29 -30,-29 -30,-59 -30,-59 h -59 -88 v 0 0 l -59,30 h -88 v 0 0 z m 205,-472 88,29 59,59 30,118 30,177 59,177 V 895 l -30,-147 -30,-88 -30,-59 -59,-59 -118,-29 v 0 0 z"
   class="fil8"
   inkscape:connector-curvature="0"
   style="fill:#e7e8e9" />

   <path
   id="path47"
   d="m 4944,1541 h 29 118 l 147,29 177,29 -29,30 -59,59 -29,59 v 29 h -59 l -59,30 -88,30 h -29 l -30,-29 -59,-29 -30,-29 -30,-29 v -88 l 29,-88 v 0 0 z M 3441,1397 h 29 l 30,29 265,-1 88,-89 v 0 l 206,-30 h 236 l 295,29 354,58 h -59 v 0 l -294,295 v 0 h -29 -29 l -59,-29 -59,-29 -89,-59 -147,-29 -206,-29 -88,-29 -118,-29 h -118 -118 -29 -59 l -30,-29 v 0 0 h -29 l -29,30 -30,-29 h -29 v 0 l 29,-30 59,-30 h 29 v 0 29 h 29 v 0 0 z m 1562,-3 59,29 v 29 l -29,30 -29,30 v 0 0 0 h -29 v 0 0 0 0 0 h -29 v 0 0 0 0 0 0 0 0 0 0 h -29 v 0 0 0 0 0 0 0 0 0 0 0 l -29,59 v 59 59 l -29,30 v 29 l 207,117 236,-59 147,-207 h 118 v 29 l 30,29 30,59 -29,88 -59,147 -177,89 -29,30 -29,30 -29,88 v 88 59 l -29,59 -88,30 h -118 -59 l -88,59 -59,89 -29,59 -29,30 h -29 l -59,-29 h -59 l -29,30 h -29 v 0 0 l -29,59 -29,30 -59,30 -88,-29 h -29 l -118,-88 -118,-88 -89,-177 -89,-265 59,-118 29,-118 29,-177 v -118 l -30,-29 v 0 l 177,29 147,29 88,29 59,29 30,29 h 88 29 l 59,-59 88,-89 88,-118 59,-30 88,-30 v 0 0 z"
   class="fil9"
   inkscape:connector-curvature="0"
   style="fill:#3d92c8" />

   <path
   id="path49"
   d="m 2470,2165 v 88 l -59,30 -29,30 -29,30 v 88 l 59,118 89,59 1,265 -265,1 -236,-88 29,-206 v -177 l -30,-88 v 0 l 59,-89 29,-88 v -118 h 29 29 l 89,59 118,29 118,59 v 0 0 z m 61,855 1,501 v 29 l -118,89 -118,30 -265,30 -265,1 -88,-29 h -59 v -29 l 29,-88 29,-88 29,-30 29,-30 147,-236 88,-236 h 59 l 29,-30 89,88 59,29 59,-30 29,-30 59,88 30,29 88,-30 59,-30 v 0 0 z m 412,-443 v 88 h -29 v 0 l -147,118 -147,59 v 0 -59 l -30,-177 h 88 l 59,-30 h 59 147 v 0 0 z m -384,-294 v -59 h 29 v 29 29 h -29 v 0 0 z m 147,0 59,29 59,29 v 0 h -59 -59 v -59 0 0 z m 178,619 v 88 l -118,118 -59,59 -29,88 -29,59 30,118 -29,206 v -236 l -30,-206 v -118 -59 h 59 l 88,-30 29,-88 59,29 29,-30 v 0 0 z m 1504,321 h 29 l 88,29 88,29 89,147 89,206 h -177 v -177 l -59,-118 -89,-88 -59,-29 v 0 0 z m 118,-30 h 29 v 0 0 h 29 l 59,29 88,29 89,88 89,118 30,147 -118,30 -30,-88 -89,-206 -89,-88 -89,-59 v 0 0 z m 118,-30 h 29 59 l 148,118 118,118 59,88 30,88 -88,30 -59,-177 -89,-118 -118,-88 z m 147,29 h 59 v 0 l 59,29 118,59 148,88 59,177 -88,30 -59,-88 -59,-118 -89,-88 -148,-88 v 0 0 z m 324,88 118,118 59,118 h -29 l -59,-147 -89,-88 v 0 0 z m -530,325 h -118 l -59,-177 -89,-147 v -29 l 59,-30 30,29 89,59 59,118 30,177 v 0 0 0 z m -147,0 -88,-29 h -59 l 29,-206 v -29 l 89,118 30,147 v 0 0 z m 884,-2 -59,30 v -88 h 29 l 30,59 v 0 0 z m -88,59 -88,59 v 0 -118 l 88,-30 v 0 88 0 0 z m -118,59 -118,30 v -118 l 118,-30 z m -147,59 h -118 l -30,-118 118,-30 30,147 v 0 0 0 z m -147,0 h -206 v 0 -118 h 177 l 30,118 v 0 0 z m -236,0 -88,-29 v -118 l 88,29 z m -118,-29 -206,-59 29,-88 h 59 l 88,29 z m 855,-90 30,147 -59,-59 -30,-29 v 0 -29 z m 30,206 -58,236 -29,147 -88,118 -59,147 v 118 l 59,206 89,147 30,29 v 0 h 29 v 29 h 29 l 30,29 v 29 l -29,30 -176,236 -59,206 -59,177 v 59 29 0 l -88,30 h -118 -29 v 206 l -118,-29 -88,-29 v 0 l 176,-236 147,-266 88,-236 29,-59 v -29 l 29,-30 v -29 -88 l -118,-118 -207,-147 -236,-117 -118,-147 -89,-118 v -29 -29 l -30,-59 v -29 l -59,-29 h -88 l -118,89 -118,59 -147,59 -383,30 -30,-88 -30,-88 324,-60 324,-148 176,-177 118,-177 206,59 v 59 l -59,30 v 29 59 l 30,88 59,29 59,29 h 29 29 l 29,-30 59,-89 v -59 l -59,-59 -30,-59 h 206 v 59 l -29,88 v 29 29 0 0 l 30,29 59,29 h 59 l 59,-59 59,-89 v 0 l -30,-59 -30,-29 v -29 l 118,-59 v 29 59 29 29 l 30,29 30,88 h 59 l 59,-59 59,-89 v 0 0 z m -207,-117 88,-30 30,29 v 29 l 30,29 30,29 v 0 l -59,118 -29,30 h -29 l -30,-59 -30,-59 v 0 0 -88 -29 0 0 z m -295,60 h 118 v 29 29 0 h 29 l 30,59 v 0 l -29,88 -88,30 -59,-29 -30,-29 v -29 -59 l 29,-59 v -29 0 0 z m -354,1 h 88 v 29 l 30,59 59,88 v 0 l -59,59 h -29 v 29 h -29 l -88,-29 -30,-88 v -59 l 29,-30 h 29 v -59 0 0 z m -1531,651 h -59 -59 v -59 l 29,-59 v -59 l 29,-30 -30,-29 -117,207 -29,30 v -59 -147 l -30,-177 v -206 l 59,147 30,88 89,88 118,59 h 88 v 118 l -29,30 -88,59 v 0 0 z m -354,-58 -89,-59 -30,-29 -30,-29 v 0 l -29,59 v 88 0 0 59 l -59,30 -118,30 -265,30 -295,-29 h -118 -118 -29 v 0 l -59,89 -29,30 h -29 v 0 0 l -29,30 -59,89 -59,118 -29,206 -29,88 -29,59 -29,30 h -59 -29 l -30,-29 v 29 l 30,88 -29,59 v 59 h -29 l 30,29 29,-30 v 0 l 30,29 v 0 29 88 l -59,59 -59,59 -88,89 h -29 l -30,-29 v 0 -206 l 29,-30 88,-30 v -29 h -88 l 29,-59 v -29 l 59,-147 v -88 -29 0 -29 h -29 v -29 l 29,-59 29,-88 147,-177 29,-30 29,-59 88,-177 29,-88 59,-30 h 29 v 0 h 29 59 59 29 29 v -29 0 h 29 l 118,-89 29,-30 h 29 l 88,-30 h 29 88 l 118,-30 118,29 v 0 -29 l -30,-29 h -88 -88 -29 v 0 h -118 -59 -29 l 29,-30 v 0 l -30,-29 v 0 l 118,-30 88,-89 147,-177 v 0 l 59,59 59,59 h 59 l 59,-30 59,-59 29,-59 v 29 0 0 l 88,29 h 59 l 59,-59 31,619 v 0 0 z"
   class="fil10"
   inkscape:connector-curvature="0"
   style="fill:#ffffff" />

   <path
   style="fill:#000000"
   d="m 1557,2579 -30,30 -29,-29 -59,-30 -118,-88 118,88 59,30 z"
   id="polygon51" />

   <path
   style="fill:#000000"
   d="m 1821,2255 -29,29 -88,177 -29,89 v 29 l -30,-29 -29,-30 58,-235 88,-178 59,-118 29,-29 h 30 l -30,-30 30,30 29,59 -29,118 z"
   id="polygon53" />

   <path
   style="fill:#ffcb05"
   d="m 2437,662 v 59 l 30,118 v 118 29 30 h -29 v -30 l -30,-59 V 809 692 662 633 l -59,-30 -30,-29 v -30 l 29,30 59,29 V 456 h -29 -59 -59 -30 v -29 h 30 l 59,-1 h 29 30 l -1,-88 h -29 -59 v -59 h 29 59 v -30 -58 l 30,-1 h 29 v 30 29 h 30 l 59,30 v 29 h -59 -30 l 1,89 h 29 29 l 59,-1 h 30 v 30 h -30 -58 -30 -29 l 29,177 30,29 29,30 1,29 -59,-29 z"
   id="polygon55" />

   <path
   style="fill:#e7e8e9"
   d="m 1997,1724 30,88 v 30 h -89 v -30 l -29,-58 29,-30 v -88 l 29,29 z"
   id="polygon57" />

   <path
   style="fill:#ffffff"
   d="m 5505,3515 -30,-118 -59,-88 -88,-30 h -89 l -59,1 h -59 l -59,-30 -59,-29 118,-118 118,-118 117,-59 148,-30 147,-1 147,59 118,59 89,88 59,118 59,88 1,265 -88,266 -88,265 -59,89 1,118 v 118 l 59,88 29,29 30,30 v 29 h -29 l -177,-29 -118,-59 -119,-176 -59,-236 v -236 l -1,-206 z"
   id="polygon59" />

   <path
   style="fill:#297aa9"
   d="m 3912,1396 h 30 59 l 117,-1 118,30 236,-1 118,29 89,30 -118,118 -59,-29 -148,-59 -176,-59 z"
   id="polygon61" />

   <path
   style="fill:#297aa9"
   d="m 4766,2544 -29,-59 -89,-59 -177,-206 -177,-177 -60,-58 -29,-30 914,411 h -59 -88 l -118,30 -58,118 -30,59 v 30 -30 z"
   id="polygon63" />

   <path
   style="fill:#297aa9"
   d="m 3999,2191 531,412 -29,30 -29,29 -59,30 -30,59 v -30 l -59,-59 -59,-88 -59,-88 -148,-206 -29,-59 z"
   id="polygon65" />

   <path
   style="fill:#ffffff"
   d="m 3410,1043 v -29 z"
   id="polygon67" />

   <path
   id="path69"
   d="m 1203,2698 v 0 l 29,-30 v -29 h 29 v -59 l 236,88 v 29 118 h -29 -59 -59 -29 v -29 0 l 29,-30 v 0 0 l -30,-59 -30,-29 -59,30 -29,30 v -29 0 0 z m 411,-679 -29,30 v 0 h -59 l -59,30 h -29 -29 l 30,29 v 0 0 l 30,59 30,29 v 88 l 147,-266 v 0 0 h -29 v 0 0 0 z m -59,59 v 0 59 l -29,30 v -29 h -29 v 0 l -30,-29 v 0 l 59,-30 h 29 v 0 0 z m -294,472 29,-59 148,88 z m 29,-147 59,-206 v 0 -118 l 29,-118 29,-59 29,-30 59,-30 v 0 0 h 29 l 59,-59 h 59 l 59,29 v 29 h 29 v 0 l 30,29 59,59 -29,88 -88,118 -59,177 -88,236 v 0 h 29 l -295,-147 v 0 0 z m 559,-443 h 29 l 30,59 -29,118 -59,118 -29,30 -88,177 -29,88 v 29 0 l -30,-29 -30,-29 58,-236 88,-148 59,-118 29,-59 v 0 0 z m 88,0 59,29 h 29 v 29 0 l 30,88 -29,59 -29,59 -118,148 -59,59 h -29 l -59,30 88,-148 29,-59 59,-147 29,-88 z m -293,708 v 29 59 29 0 l -29,30 v -59 -59 l 29,-30 v 0 0 z m -59,0 v 0 l -30,-29 v -29 0 h 29 v 59 0 0 z m -266,-206 118,88 59,29 h 59 l -29,30 -30,-29 -59,-29 -118,-88 v 0 0 z"
   class="fil10"
   inkscape:connector-curvature="0"
   style="fill:#ffffff" />

   <path
   style="fill:#00a651"
   d="M 886,5970 H 768 l 765,-591 -824,621 -59,-59 -59,-88 -118,-88 -148,-59 147,-30 207,-30 v 177 30 l 30,29 h 88 l 88,-89 88,-118 59,-118 -29,-29 -1,-30 177,-88 177,-148 59,-59 117,-59 148,-30 h 59 58 l 1,59 v 59 l -30,59 h -29 v 29 l 59,88 30,118 v 30 l -59,-30 -177,60 -147,177 -88,295 -118,-30 -88,30 353,-531 -441,561 -89,-89 z"
   id="polygon71" />

   <path
   style="fill:#ed1c24"
   d="m 2978,5789 -1,-147 30,29 v 118 l -29,148 -59,176 -117,60 -148,59 -88,30 -88,29 -59,59 29,-29 59,-89 88,-177 29,-177 -29,-88 29,59 59,88 1,118 -59,89 59,-1 117,-59 59,-88 88,-89 z"
   id="polygon73" />

   <path
   id="path75"
   d="m 827,6294 177,59 89,88 88,29 h 88 l 59,-59 89,177 148,147 -29,30 -29,30 v 0 h -29 l -29,30 h -59 l -59,-29 v 0 l -266,-176 h -29 l -88,-29 -88,-29 -88,59 -30,-29 -30,-29 -30,-59 h -29 l -59,-29 h -59 v -59 l 29,-30 h -29 l -30,-29 h -29 l -59,30 -88,30 29,-59 59,-30 h 29 v -29 l -30,-29 -59,-29 88,-30 h 118 l 118,29 147,59 v 0 0 z m 1298,381 h 29 -29 l -30,-118 -30,-88 v -29 l 88,-148 177,-148 118,-89 59,-89 59,-89 v -88 59 l 30,29 -29,177 -88,148 -88,89 v 59 29 l 30,29 h 29 v 0 -29 l 29,-30 59,-59 118,-30 147,-59 118,-59 59,-59 59,-30 h 29 l 59,-30 h 88 29 l 30,29 v 29 h 29 l 59,-30 h 29 v 0 29 l -29,30 -59,30 -118,89 -59,118 -59,59 v 29 29 0 29 l -29,88 -29,59 -59,59 v 29 l -59,30 30,29 30,29 -147,30 h -59 -59 v 0 0 0 l 59,-30 59,-59 88,-148 59,-89 v -29 0 0 h -29 l -59,118 -118,118 -59,30 -59,30 v 0 h -236 -177 -118 l -30,-29 29,-59 29,-30 v 0 0 z m 324,-119 v 0 l -59,30 h -29 v 0 l 59,29 h 29 88 l 118,-30 118,-118 29,-59 29,-30 v -29 0 h -59 l -118,30 -118,59 -88,118 v 0 0 z m 30,29 v -29 l 59,-59 59,-59 177,-30 -29,59 -59,59 -88,30 -118,30 v 0 0 0 z m 1268,233 v 88 59 l 59,59 30,29 59,29 h 29 v 0 l -29,30 -29,30 -59,59 -147,59 -147,30 -147,-29 v 0 h -59 l -88,30 -118,30 -88,59 v -29 l 29,-59 59,-59 v -29 h -29 l -59,30 -118,59 29,-88 88,-59 236,-59 206,-89 177,-89 118,-89 v 0 0 z m 1974,-534 59,-147 v -118 l -59,-118 -59,-118 -89,-118 -59,-177 -30,-118 v -118 l 59,-177 59,-89 59,-59 88,-59 h 88 147 l 118,29 30,29 118,147 30,177 v 29 l -59,177 -88,89 v -29 l -59,-118 -59,-88 -59,-59 -30,-29 29,-59 29,-30 29,-30 30,29 v 0 h 59 v -29 l -30,-29 -30,-59 -30,-29 h -59 -59 l -59,30 h -29 l -59,89 -29,88 v 147 l 59,147 89,177 118,206 30,118 v 118 l -29,236 -59,177 -147,118 -177,89 h -147 -147 l -236,-58 -177,-88 -89,-59 v -59 l -30,-177 -59,-118 -59,-59 -59,-59 h 29 l 236,88 236,117 177,88 177,29 h 147 l 118,-89 v 0 0 z m -3889,686 -30,-59 v -29 -29 0 h -29 l -30,-29 -118,-59 -177,-176 -89,-236 29,-265 88,-324 147,-148 147,-30 h 118 l 89,59 207,147 118,177 59,59 30,29 -88,59 -177,148 -88,148 v 59 l 30,88 30,118 -29,59 -59,30 v 0 l 30,29 88,29 88,29 h 118 118 l 177,-30 h 29 l 88,-59 -59,59 h -29 v 0 29 0 l 30,29 h 59 118 l 177,-30 v -29 l -59,-29 -30,-29 v 0 0 l 29,-30 59,-59 59,-89 v -88 -29 l 29,-59 29,-30 88,-59 118,-89 177,-89 206,-59 236,-59 265,-1 324,58 30,29 59,59 89,88 30,206 -29,177 v 0 0 l 59,88 89,59 118,59 30,88 v 59 l -59,89 -59,59 -59,59 -59,59 -118,30 h -177 -118 l 59,-30 29,-30 h -59 l -59,30 -88,30 h -59 v -29 l 59,-30 v -29 -29 l -29,30 -29,30 -29,30 -29,30 h -29 l 59,-59 59,-59 29,-30 v 0 h -29 -59 l 29,-30 h 88 l 265,-1 h 29 29 59 l 29,-30 v -88 l -59,-118 v 0 h -29 v 0 h -59 l -177,-29 -236,-58 -89,-88 -89,-88 -30,-29 v 29 l -29,30 -29,30 -88,89 -118,59 -147,89 -177,89 -236,89 -236,30 -206,30 h -147 -118 l -59,-29 v -29 -88 -29 h -29 v 29 l -29,59 30,29 -29,88 -29,59 v 0 h -29 l 30,29 v 0 l -29,30 v 29 l -59,-29 -59,-29 -147,-29 h -29 -59 -177 -236 l -236,-88 v 0 h -59 l -59,59 v 29 l -29,30 v 0 l -30,-29 -30,-29 -30,-29 H 893 l -177,30 29,-30 59,-30 29,-30 v 0 h -29 l -30,-29 h -59 -88 l -59,30 h -29 l 88,-59 88,-59 h 29 v 0 -29 -59 h 59 118 118 l 147,59 v 0 0 l 147,-30 h 177 l 177,29 h 88 l 30,29 29,-30 v 0 0 z"
   class="fil15"
   inkscape:connector-curvature="0"
   style="fill:#faa74a" />

   <path
   style="fill:#ffffff"
   d="m 4006,5787 147,-207 88,-177 30,-29 v -30 -29 l 29,-30 29,-147 -30,-118 -29,-59 -89,-147 -148,-176 -88,-118 -59,-118 117,-59 59,-59 59,-30 h 59 l 30,59 29,59 v 0 0 29 l 59,89 89,117 148,118 -30,88 30,118 30,30 v 29 l 29,89 v 59 l -29,29 -117,207 -89,147 -29,118 v 88 30 29 30 l -88,30 -88,29 -59,30 -88,88 -118,1 -118,29 z"
   id="polygon77" />

   <path
   style="fill:#ffffff"
   d="m 1648,4171 30,29 v 30 h -30 l -59,29 -58,59 -119,-147 -118,-147 -147,-117 -59,-59 h -30 v 0 l -59,29 -29,30 -88,118 v 0 0 88 89 88 l -59,59 -29,30 -30,-30 v 30 l 1,29 v 59 l -30,30 h -29 v 29 h 59 59 l 29,30 v 0 29 l -59,30 -58,59 -59,59 -59,59 -30,-30 v -29 -89 -58 -30 l 29,-29 v 0 l 59,58 -29,-59 v -58 -118 l 29,-148 58,-177 30,-29 29,-59 59,-177 29,-89 29,-59 h 30 59 88 l 30,29 59,59 118,88 88,30 89,58 118,59 -30,59 30,30 30,58 29,30 v 29 z"
   id="polygon79" />

   <path
   style="fill:#00a651"
   d="m 2417,5378 -30,-89 v 0 l 59,-59 88,-88 89,-30 29,118 1,88 v 59 30 h -30 l -29,29 148,472 30,-1 58,-501 h -59 v -29 l -1,-59 v -118 l -29,-118 h 147 118 l 147,-1 177,30 354,28 h 177 l 117,-30 -58,89 -29,147 v 0 l -914,-116 884,146 -88,29 -118,60 -88,29 -30,89 v 0 29 h -29 l -561,-234 502,234 -147,89 -59,59 -59,89 -58,147 -89,30 h -29 l -30,29 -29,30 58,-177 30,-147 -30,-118 v -30 h -30 v 30 l -29,206 -88,118 -88,89 -88,59 29,-89 v -29 l -30,-147 -59,-89 v -59 l -30,-147 -89,-118 z"
   id="polygon81" />

   <path
   style="fill:#e7e8e9"
   d="m 2325,3727 -29,89 -59,59 -59,30 -88,-59 -30,-30 v -29 -30 l -29,-29 h 147 l 147,-30 z"
   id="polygon83" />

   <path
   style="fill:#e7e8e9"
   d="m 1795,3728 236,29 -30,59 -88,89 -118,118 -59,30 h -88 l -30,-29 v -59 -59 -30 -59 -59 -59 l 59,30 z"
   id="polygon85" />

   <path
   style="fill:#e7e8e9"
   d="m 2384,3786 -29,-59 v -29 h 29 l 59,-59 118,-59 v 88 l -29,88 -59,60 h -30 z"
   id="polygon87" />

   <path
   style="fill:#e7e8e9"
   d="m 2825,2901 -30,-59 v 30 l -29,88 -59,30 h -88 l -1,-59 v -59 l 148,-59 176,-118 h 30 v 29 l -59,118 -29,30 -30,29 z"
   id="polygon89" />

   <path
   style="fill:#e7e8e9"
   d="m 2294,2932 -29,29 -59,30 -59,-30 -59,-88 v -29 l 206,58 z"
   id="polygon91" />

   <path
   style="fill:#e7e8e9"
   d="m 2058,2844 v 29 30 h -29 -59 l -30,-59 -59,-59 -29,-29 v 29 h -30 l -59,-29 -29,-30 -59,-88 29,30 89,58 118,59 z"
   id="polygon93" />

   <path
   style="fill:#e7e8e9"
   d="m 2353,2991 -29,-59 v -30 h 176 l 1,59 -30,59 -59,29 z"
   id="polygon95" />

   <path
   id="path97"
   d="m 1525,1430 v -59 l 118,88 59,147 v 59 h 29 v -59 l 29,-88 59,-59 59,-30 29,-30 v 29 29 0 29 88 0 29 88 l -29,30 h -29 -29 l -29,30 h 59 l 30,29 v 29 0 29 l 59,59 h 118 v -29 -29 -29 l -30,-118 -59,-59 -30,-29 v -29 0 l 59,-59 29,-30 h 59 118 l 88,-30 v 0 l -29,88 -29,59 -29,59 -29,30 h 29 l 59,-59 59,-59 29,-30 h 88 v 0 l 1,295 30,295 -147,-59 -89,-59 -88,-29 h -29 -29 -29 v 0 0 l -30,-29 -30,-29 h -88 l -59,-29 h -29 l -30,-59 -59,-29 -30,-29 v 0 -29 0 l -59,-59 v 0 l -30,-59 -89,-118 v -29 -29 0 -29 0 0 z m 1002,145 59,-30 v 0 0 0 l -29,88 -29,30 v -88 0 0 z m 0,177 59,-30 29,-59 v -29 h 59 l 30,29 89,118 v 0 0 h -29 l -59,30 -29,30 -29,30 v 0 h -29 l -59,-59 30,59 30,59 h 29 v 0 l 29,-30 59,-30 59,-30 h 29 l 59,59 59,88 v -29 29 l 30,29 v 0 29 l -59,30 -29,30 h -29 v 0 l -30,-29 h -29 v 29 0 0 0 l 59,29 v 0 h 29 29 l 59,-30 h 29 v 29 l 59,29 -29,30 v 0 29 0 29 l -88,-29 -59,30 v 29 29 h -29 -29 l -59,-29 -206,-88 -30,-442 v 0 0 z m -1061,61 h -29 -88 l -118,-59 88,-30 h 59 l 59,29 29,-30 -89,-59 -59,-59 v -59 l -30,-29 h 88 l 30,29 v 29 0 0 l 29,-30 v 0 l -30,-29 v -118 -29 l 30,29 59,59 v 29 29 l 30,118 89,88 30,29 h -59 l -88,59 h -29 v 0 0 z"
   class="fil8"
   inkscape:connector-curvature="0"
   style="fill:#e7e8e9" />

   <path
   id="path99"
   d="m 2682,5407 v 0 -29 -29 -88 l -30,-118 -1,-295 -30,-383 -30,-413 -30,-472 -31,-973 v 0 h 29 l 182,2829 h 59 v 59 l -29,118 v 147 l -29,88 -30,-88 -30,-147 -59,-118 v -59 l 29,-30 h 29 v 0 0 z m -183,-3153 -30,-413 -30,-354 -1,-265 v -88 -59 h 29 v 59 59 l 30,118 v 147 l 30,383 30,442 -59,-29 v 0 0 z"
   class="fil11"
   inkscape:connector-curvature="0"
   style="fill:#ffcb05" />

   <path
   style="fill:#ffffff"
   d="m 3093,4374 v 0 -29 -89 l -60,-117 -59,-89 -88,-117 -1,-118 v -30 0 l -29,-29 29,-30 h 89 l 59,29 88,30 59,29 30,147 30,148 29,147 30,118 30,88 -30,59 -29,30 h -59 l -59,29 -59,30 -59,30 -117,88 h -59 l -59,-29 29,-29 30,-30 29,-59 h 29 l 118,-148 29,-29 h 30 z"
   id="polygon101" />

   <path
   style="fill:#ffcb05"
   d="m 4061,3871 -176,177 -295,148 -324,60 -29,-177 -1,-59 207,29 118,-29 176,-60 118,-88 118,-89 59,-89 58,-118 29,-147 v -88 l 118,-60 v 89 l -29,147 -29,177 z"
   id="polygon103" />

   <path
   style="fill:#ffcb05"
   d="m 2709,3815 -30,-118 29,-236 v 30 l 30,118 29,59 30,58 29,30 v 29 30 l 30,118 89,147 89,147 h -59 l -118,-59 -59,-58 -30,-118 -59,-59 z"
   id="polygon105" />

   <path
   style="fill:#a54686"
   d="m 3415,3401 v 0 l 30,-30 v 59 30 h 59 88 l 88,-30 30,29 h 88 l 118,-59 h 59 l 147,-30 v 30 l -29,118 -29,118 -118,147 -206,148 -147,59 -147,30 h -89 l -88,-29 -59,-177 -1,-88 -59,-118 -59,-118 -59,-88 88,-30 89,-59 58,-30 59,-29 -29,29 30,59 29,30 30,29 z"
   id="polygon107" />

   <path
   style="fill:#fed09e"
   d="m 3062,3490 29,88 59,118 30,89 -59,-30 -88,-58 h -89 -59 l -59,29 -59,-88 -30,-147 v -30 l -29,-59 v -88 l -1,-59 30,-59 117,-148 59,-59 h 30 l 59,30 59,29 h 29 l 30,29 59,89 29,59 30,29 -59,30 -59,59 -88,29 h -30 l -29,30 30,29 z"
   id="polygon109" />

   <path
   style="fill:#ffffff"
   d="m 3474,3312 -30,-29 -29,30 -29,59 -30,-30 v -59 -29 h 29 l 30,-30 v 0 h 29 v -29 h -29 -59 l -89,29 v 0 0 l -177,-205 -147,-59 v -30 l 206,-29 v 0 l 147,-119 59,-59 -29,89 -59,88 -30,59 v 0 l 30,59 59,59 h 88 l 30,-30 29,-29 v -30 l 30,-59 88,-118 v 236 29 l 30,59 88,-29 59,-59 v 59 l 88,-89 v 0 0 0 l 89,29 h 59 v 0 l 147,118 118,58 -117,89 -89,30 -88,29 -59,1 -59,-148 h -30 l 60,177 -89,30 h -59 l -29,-30 v -147 l -30,-29 v 59 59 58 l -59,1 -88,29 h -59 v -88 z"
   id="polygon111" />

   <path
   style="fill:#ffffff"
   d="m 2943,2901 29,-59 59,-59 88,-89 118,-88 88,-1 h 30 l 29,30 h -29 l 29,29 -88,59 -59,59 -88,89 h -30 -59 l -59,30 z"
   id="polygon113" />

   <path
   style="fill:#ffffff"
   d="m 3381,2694 v -30 l 30,30 88,58 h 30 l 29,-29 -147,265 -29,30 -30,29 h -29 l -59,-58 -30,-30 30,-59 88,-118 z"
   id="polygon115" />

   <path
   style="fill:#ffffff"
   d="m 3646,2664 h 30 v 29 h 59 l 29,-59 h 30 29 l 89,206 30,59 29,88 -29,30 h -30 l -59,-30 -29,-29 v -59 h -30 v 118 h -29 v -88 l -30,59 -88,88 -59,30 v -59 l -1,-354 z"
   id="polygon117" />

   <path
   style="fill:#ffffff"
   d="m 3382,1485 29,-29 v 29 h 89 29 177 l -29,29 h -59 l -59,89 -88,88 -30,89 1,88 29,30 -147,177 v -147 l -30,-118 29,-177 z"
   id="polygon119" />

   <path
   style="fill:#ffffff"
   d="m 3676,2634 h -59 l -59,59 h -29 l -30,30 -59,-59 -59,-29 v 0 -30 l -30,-29 -117,-29 29,-30 29,-29 89,-60 88,-59 59,-59 29,-29 88,-59 59,-59 59,-89 h 59 l 88,-89 -117,236 -30,30 -29,118 30,88 30,88 v 30 29 l -30,-29 -29,30 -30,29 z"
   id="polygon121" />

   <path
   style="fill:#297aa9"
   d="m 4765,1836 h 88 147 l 30,29 h 29 l 148,29 h 88 l 89,29 h 29 v 30 l -59,29 -117,89 h -30 l -147,-59 -207,-88 -324,-87 -59,-59 h 29 l 59,29 h 89 z"
   id="polygon123" />

   <path
   id="path125"
   d="m 2379,1193 -59,-147 v -59 l 59,-30 v 29 29 29 h 29 v 88 118 l -30,-59 v 0 0 z m 118,-118 30,29 v 88 0 l -29,30 v -147 0 0 z m 0,-88 v 0 l 29,-30 v 29 l 59,59 30,59 v 29 l 59,118 30,59 177,147 89,118 30,29 v 29 0 0 0 h 29 v 0 0 l 29,-59 v 29 h 29 v 0 l 29,-30 v 0 88 118 29 0 0 0 l -88,30 -88,30 -59,-29 -148,-206 -118,-177 -59,-147 -30,-59 29,-59 v -88 l -59,-59 v -59 0 0 z"
   class="fil17"
   inkscape:connector-curvature="0"
   style="fill:#fed09e" />

   <path
   style="fill:#ffffff"
   d="m 3147,1810 v -29 l -1,-118 v -89 -29 h -29 -30 l 59,-59 88,-30 h 30 l 59,29 -29,148 -29,147 -30,30 z"
   id="polygon127" />

   <path
   style="fill:#fed09e"
   d="m 3060,2518 h -118 l -118,29 -59,1 -59,-30 v 0 30 l -29,29 h -30 l -118,1 h -29 l -30,-30 -29,-29 -59,-118 -1,-59 59,-30 h 89 59 v 30 h 29 v -30 -59 l 59,59 v 29 30 l 148,29 v -29 l 176,-89 148,-30 58,-29 30,-1 h 29 v 0 l 59,-59 59,-118 88,-88 59,-59 30,29 h 58 l 1,29 29,59 h 30 l 29,30 59,-30 v 30 l -59,88 -59,59 -88,59 -29,30 -88,88 -118,60 z"
   id="polygon129" />

   <path
   id="path131"
   d="m 3500,1868 -30,-29 v -59 l 29,-88 59,-59 59,-59 59,-30 89,88 206,88 v 0 118 l -29,118 -59,59 -29,30 h -29 l -30,-29 29,-88 59,-177 -30,-29 -29,88 -29,118 -59,59 -29,30 -30,-29 v 0 0 0 l -30,-29 v -29 -29 l 59,-89 59,-147 v -29 l -29,59 -29,30 -88,177 h -29 v 0 0 0 l -30,-59 v 0 -29 0 l 59,-118 88,-89 v 0 -29 h -29 l -59,30 -29,59 -59,147 v 0 l -29,30 v 29 0 0 z m 206,-354 h 59 59 l 88,29 30,59 h 29 v 0 0 59 29 l -177,-88 -89,-88 v 0 0 z"
   class="fil10"
   inkscape:connector-curvature="0"
   style="fill:#ffffff" />

   <path
   id="path133"
   d="m 3735,1190 30,59 59,59 v 0 l -29,30 -29,59 -265,1 v -29 l 29,-59 88,-59 59,-30 29,-30 v 0 h 29 v 0 0 0 z m -59,-29 -59,59 -88,59 h -59 l -59,-29 h 29 l 29,-30 h -59 v 0 -29 l -30,-29 v 0 h -29 v -59 l -30,-88 h 59 v 0 l 30,29 v 29 0 0 l 29,-59 29,-30 h 59 29 l 30,59 v 29 l 59,59 30,29 v 0 0 z"
   class="fil17"
   inkscape:connector-curvature="0"
   style="fill:#fed09e" />

   <path
   style="fill:none;stroke:#2a2a29;stroke-width:49"
   d="m 6656,57 5,7522"
   id="line135" />

   <path
   style="fill:none;stroke:#2a2a29;stroke-width:49"
   d="m 71,7550 6589,-2"
   id="line137" />

  </g>

 </g>
    </g>
    <g
       style="font-style:normal;font-variant:normal;font-weight:normal;font-stretch:normal;font-size:4.93888903px;line-height:100%;font-family:'Futura PT';-inkscape-font-specification:'Futura PT';text-align:start;letter-spacing:0px;word-spacing:0px;writing-mode:lr-tb;text-anchor:start;fill:#000000;fill-opacity:1;stroke:none;stroke-width:0.26458335px;stroke-linecap:butt;stroke-linejoin:miter;stroke-opacity:1"
       id="text1829" />
    <g
       aria-label="Администрация
городского округа
Фрязино"
       style="font-style:normal;font-variant:normal;font-weight:normal;font-stretch:normal;font-size:10.42362309px;line-height:100%;font-family:'Futura PT';-inkscape-font-specification:'Futura PT';text-align:start;letter-spacing:0px;word-spacing:0px;writing-mode:lr-tb;text-anchor:start;fill:#ffffff;fill-opacity:1;stroke:none;stroke-width:0.55840838px;stroke-linecap:butt;stroke-linejoin:miter;stroke-opacity:1"
       id="text1833">
      <path
         d="m 62.19162,258.07791 -0.469063,1.87625 h -0.938126 l 1.772016,-7.29653 h 1.355071 l 1.772016,7.29653 h -0.938126 l -0.469063,-1.87625 z m 1.06321,-4.37792 h -0.04169 l -0.86516,3.64827 h 1.772016 z"
         style="font-style:normal;font-variant:normal;font-weight:normal;font-stretch:normal;font-family:Cuprum;-inkscape-font-specification:Cuprum;text-align:center;text-anchor:middle;fill:#ffffff;stroke-width:0.55840838px"
         id="path1963" />
      <path
         d="m 70.788666,259.27663 v 2.18896 h -0.573299 q -0.11466,-0.31271 -0.198049,-0.71923 -0.07296,-0.3961 -0.11466,-0.7922 h -3.02285 q -0.04169,0.3961 -0.125084,0.7922 -0.07296,0.40652 -0.187625,0.71923 H 65.9938 v -2.18896 h 0.469063 q 0.11466,-0.1772 0.271014,-0.53161 0.166778,-0.3544 0.198049,-0.97982 l 0.156354,-3.02285 h 3.074969 v 4.53428 z m -2.793531,-3.85674 -0.125083,2.34531 q -0.03127,0.62542 -0.198049,0.97982 -0.156354,0.35441 -0.271014,0.53161 h 1.824134 v -3.85674 z"
         style="font-style:normal;font-variant:normal;font-weight:normal;font-stretch:normal;font-family:Cuprum;-inkscape-font-specification:Cuprum;text-align:center;text-anchor:middle;fill:#ffffff;stroke-width:0.55840838px"
         id="path1965" />
      <path
         d="m 74.344587,258.02579 1.229988,-3.28344 h 1.09448 l 0.364827,5.21181 h -0.886008 l -0.26059,-3.70038 h -0.05212 l -1.094481,2.91861 h -0.83389 l -1.09448,-2.91861 h -0.05212 l -0.260591,3.70038 h -0.886008 l 0.364827,-5.21181 h 1.09448 l 1.229988,3.28344 z"
         style="font-style:normal;font-variant:normal;font-weight:normal;font-stretch:normal;font-family:Cuprum;-inkscape-font-specification:Cuprum;text-align:center;text-anchor:middle;fill:#ffffff;stroke-width:0.55840838px"
         id="path1967" />
      <path
         d="m 81.003816,256.30589 h -0.05212 l -1.667779,3.64827 h -0.990245 v -5.21181 h 0.938127 v 3.54403 h 0.05212 l 1.563543,-3.54403 h 1.094481 v 5.21181 h -0.938127 z"
         style="font-style:normal;font-variant:normal;font-weight:normal;font-stretch:normal;font-family:Cuprum;-inkscape-font-specification:Cuprum;text-align:center;text-anchor:middle;fill:#ffffff;stroke-width:0.55840838px"
         id="path1969" />
      <path
         d="m 84.240027,259.95416 h -0.938126 v -5.21181 h 0.938126 v 2.24108 h 1.719898 v -2.24108 h 0.938126 v 5.21181 h -0.938126 v -2.29319 h -1.719898 z"
         style="font-style:normal;font-variant:normal;font-weight:normal;font-stretch:normal;font-family:Cuprum;-inkscape-font-specification:Cuprum;text-align:center;text-anchor:middle;fill:#ffffff;stroke-width:0.55840838px"
         id="path1971" />
      <path
         d="m 90.959192,256.30589 h -0.05212 l -1.66778,3.64827 H 88.24905 v -5.21181 h 0.938126 v 3.54403 h 0.05212 l 1.563544,-3.54403 h 1.09448 v 5.21181 h -0.938126 z"
         style="font-style:normal;font-variant:normal;font-weight:normal;font-stretch:normal;font-family:Cuprum;-inkscape-font-specification:Cuprum;text-align:center;text-anchor:middle;fill:#ffffff;stroke-width:0.55840838px"
         id="path1973" />
      <path
         d="m 95.185645,255.26353 q -0.291862,0 -0.521181,0.0938 -0.218896,0.0938 -0.375251,0.33356 -0.14593,0.22932 -0.229319,0.63584 -0.07297,0.3961 -0.07297,1.02152 0,0.62541 0.07297,1.03194 0.08339,0.40652 0.239743,0.64626 0.166778,0.22932 0.406521,0.32313 0.250167,0.0834 0.583723,0.0834 h 1.042362 v 0.41695 q -0.239743,0.0834 -0.594146,0.14593 -0.34398,0.0625 -0.656688,0.0625 -0.531605,0 -0.917279,-0.12508 -0.375251,-0.13551 -0.625418,-0.44822 -0.250167,-0.31271 -0.37525,-0.83389 -0.11466,-0.52118 -0.11466,-1.30295 0,-0.78177 0.11466,-1.30296 0.125083,-0.52118 0.364827,-0.83389 0.239743,-0.3127 0.594146,-0.43779 0.364827,-0.13551 0.854737,-0.13551 0.312709,0 0.656689,0.0625 0.354403,0.0625 0.594146,0.14593 v 0.41694 z"
         style="font-style:normal;font-variant:normal;font-weight:normal;font-stretch:normal;font-family:Cuprum;-inkscape-font-specification:Cuprum;text-align:center;text-anchor:middle;fill:#ffffff;stroke-width:0.55840838px"
         id="path1975" />
      <path
         d="m 100.2411,254.74235 v 0.67754 h -1.355068 v 4.53427 h -0.938126 v -4.53427 h -1.355071 v -0.67754 z"
         style="font-style:normal;font-variant:normal;font-weight:normal;font-stretch:normal;font-family:Cuprum;-inkscape-font-specification:Cuprum;text-align:center;text-anchor:middle;fill:#ffffff;stroke-width:0.55840838px"
         id="path1977" />
      <path
         d="m 101.89992,255.05506 q 0.19805,-0.19805 0.48991,-0.30229 0.29187,-0.11466 0.60457,-0.11466 0.40653,0 0.72966,0.13551 0.32313,0.12509 0.54203,0.43779 0.21889,0.31271 0.33355,0.83389 0.11466,0.52119 0.11466,1.30296 0,0.78177 -0.11466,1.30295 -0.11466,0.52118 -0.33355,0.83389 -0.2189,0.31271 -0.54203,0.44822 -0.32313,0.12508 -0.72966,0.12508 -0.3127,0 -0.56287,-0.073 -0.23974,-0.073 -0.47949,-0.18762 v 2.24108 h -0.93812 v -7.29654 h 0.78177 l 0.0521,0.31271 z m 0.0521,4.16945 q 0.11466,0.0834 0.32313,0.14593 0.20848,0.0625 0.40653,0.0625 0.25016,0 0.44821,-0.0834 0.20847,-0.0938 0.34398,-0.32313 0.14593,-0.23974 0.2189,-0.64626 0.0834,-0.40653 0.0834,-1.03194 0,-0.62542 -0.0834,-1.02152 -0.073,-0.40652 -0.2189,-0.63584 -0.13551,-0.23974 -0.34398,-0.33356 -0.19805,-0.0938 -0.44821,-0.0938 -0.19805,0 -0.40653,0.0625 -0.20847,0.0626 -0.32313,0.14593 z"
         style="font-style:normal;font-variant:normal;font-weight:normal;font-stretch:normal;font-family:Cuprum;-inkscape-font-specification:Cuprum;text-align:center;text-anchor:middle;fill:#ffffff;stroke-width:0.55840838px"
         id="path1979" />
      <path
         d="m 108.25671,257.40037 h -0.72966 q -0.3961,0 -0.66711,0.20848 -0.27101,0.19805 -0.27101,0.78177 0,0.31271 0.073,0.52118 0.073,0.19805 0.19805,0.31271 0.12508,0.11466 0.29186,0.16678 0.1772,0.0417 0.37525,0.0417 0.19805,0 0.40652,-0.0625 0.20848,-0.0625 0.32314,-0.14593 z m -1.04237,2.65803 q -0.3544,0 -0.64626,-0.073 -0.28144,-0.0625 -0.48991,-0.25016 -0.19805,-0.18763 -0.31271,-0.51076 -0.11466,-0.32313 -0.11466,-0.83389 0,-0.48991 0.11466,-0.80262 0.11466,-0.31271 0.31271,-0.48991 0.20847,-0.18763 0.48991,-0.25017 0.29186,-0.073 0.64626,-0.073 0.23975,0 0.52118,0.0313 0.28144,0.0313 0.52119,0.073 v -0.46906 q 0,-0.3544 -0.0834,-0.5733 -0.073,-0.22932 -0.2189,-0.3544 -0.14593,-0.12509 -0.36483,-0.16678 -0.20847,-0.0521 -0.47948,-0.0521 h -1.04237 v -0.41694 q 0.23975,-0.0834 0.58373,-0.14593 0.3544,-0.0625 0.66711,-0.0625 0.46906,0 0.81304,0.073 0.35441,0.073 0.58372,0.27101 0.23975,0.18763 0.35441,0.54203 0.12508,0.34398 0.12508,0.88601 v 3.54403 h -0.78177 l -0.0521,-0.31271 h -0.0521 q -0.19805,0.19805 -0.48991,0.31271 -0.29186,0.10424 -0.60457,0.10424 z"
         style="font-style:normal;font-variant:normal;font-weight:normal;font-stretch:normal;font-family:Cuprum;-inkscape-font-specification:Cuprum;text-align:center;text-anchor:middle;fill:#ffffff;stroke-width:0.55840838px"
         id="path1981" />
      <path
         d="m 114.71121,259.27663 v 2.18896 h -0.5733 q -0.11466,-0.31271 -0.19805,-0.71923 -0.073,-0.3961 -0.11466,-0.7922 h -3.28344 v -5.21181 h 0.93813 v 4.53428 h 1.66778 v -4.53428 h 0.93812 v 4.53428 z"
         style="font-style:normal;font-variant:normal;font-weight:normal;font-stretch:normal;font-family:Cuprum;-inkscape-font-specification:Cuprum;text-align:center;text-anchor:middle;fill:#ffffff;stroke-width:0.55840838px"
         id="path1983" />
      <path
         d="m 118.36192,256.30589 h -0.0521 l -1.66778,3.64827 h -0.99024 v -5.21181 h 0.93813 v 3.54403 h 0.0521 l 1.56355,-3.54403 h 1.09448 v 5.21181 h -0.93813 z"
         style="font-style:normal;font-variant:normal;font-weight:normal;font-stretch:normal;font-family:Cuprum;-inkscape-font-specification:Cuprum;text-align:center;text-anchor:middle;fill:#ffffff;stroke-width:0.55840838px"
         id="path1985" />
      <path
         d="m 122.27567,255.26353 q -0.46907,0 -0.72966,0.20847 -0.26059,0.19805 -0.26059,0.78178 0,0.58372 0.26059,0.79219 0.26059,0.19805 0.72966,0.19805 h 0.72965 v -1.98049 z m -0.66712,2.42871 q -0.26059,-0.0104 -0.48991,-0.11466 -0.22932,-0.11466 -0.40652,-0.30229 -0.16678,-0.18762 -0.27101,-0.44821 -0.0938,-0.26059 -0.0938,-0.5733 0,-0.48991 0.12509,-0.80262 0.13551,-0.31271 0.38567,-0.48991 0.25017,-0.18763 0.60457,-0.25017 0.36483,-0.073 0.81305,-0.073 0.46906,0 0.86516,0.0521 0.40652,0.0417 0.80261,0.15636 v 5.10757 h -0.93812 v -2.0326 h -0.3544 q -0.48991,0 -0.68796,0.52118 l -0.26059,0.72965 q -0.16678,0.45864 -0.38568,0.67754 -0.21889,0.20847 -0.65669,0.20847 -0.19805,0 -0.38567,-0.0521 -0.10424,-0.0208 -0.18763,-0.0521 v -0.41694 q 0.31271,0 0.4378,-0.10424 0.1355,-0.10423 0.18762,-0.26059 l 0.26059,-0.72965 q 0.12509,-0.35441 0.27102,-0.50034 0.15635,-0.14593 0.36482,-0.20847 z"
         style="font-style:normal;font-variant:normal;font-weight:normal;font-stretch:normal;font-family:Cuprum;-inkscape-font-specification:Cuprum;text-align:center;text-anchor:middle;fill:#ffffff;stroke-width:0.55840838px"
         id="path1987" />
      <path
         d="m 58.901664,265.28993 v 0.67754 H 56.81694 v 4.53427 h -0.938126 v -5.21181 z"
         style="font-style:normal;font-variant:normal;font-weight:normal;font-stretch:normal;font-family:Cuprum;-inkscape-font-specification:Cuprum;text-align:center;text-anchor:middle;fill:#ffffff;stroke-width:0.55840838px"
         id="path1989" />
      <path
         d="m 62.294228,267.89584 q 0,-0.62542 -0.08339,-1.03194 -0.08339,-0.41695 -0.218896,-0.65669 -0.135507,-0.25017 -0.312709,-0.34398 -0.177202,-0.10424 -0.37525,-0.10424 -0.198049,0 -0.375251,0.10424 -0.177201,0.0938 -0.312709,0.34398 -0.135507,0.23974 -0.218896,0.65669 -0.08339,0.40652 -0.08339,1.03194 0,0.62541 0.08339,1.04236 0.08339,0.40652 0.218896,0.65669 0.135508,0.23974 0.312709,0.34398 0.177202,0.0938 0.375251,0.0938 0.198048,0 0.37525,-0.0938 0.177202,-0.10424 0.312709,-0.34398 0.135507,-0.25017 0.218896,-0.65669 0.08339,-0.41695 0.08339,-1.04236 z m 0.938126,0 q 0,0.76092 -0.125084,1.2821 -0.125083,0.52118 -0.37525,0.84431 -0.239743,0.31271 -0.60457,0.44822 -0.354403,0.13551 -0.823466,0.13551 -0.469063,0 -0.83389,-0.13551 -0.354403,-0.13551 -0.60457,-0.44822 -0.239744,-0.32313 -0.364827,-0.84431 -0.125084,-0.52118 -0.125084,-1.2821 0,-0.76093 0.125084,-1.28211 0.125083,-0.52118 0.364827,-0.83389 0.250167,-0.32313 0.60457,-0.45864 0.364827,-0.13551 0.83389,-0.13551 0.469063,0 0.823466,0.13551 0.364827,0.13551 0.60457,0.45864 0.250167,0.31271 0.37525,0.83389 0.125084,0.52118 0.125084,1.28211 z"
         style="font-style:normal;font-variant:normal;font-weight:normal;font-stretch:normal;font-family:Cuprum;-inkscape-font-specification:Cuprum;text-align:center;text-anchor:middle;fill:#ffffff;stroke-width:0.55840838px"
         id="path1991" />
      <path
         d="m 65.274732,265.60264 q 0.198049,-0.19805 0.48991,-0.30229 0.291862,-0.11466 0.604571,-0.11466 0.406521,0 0.729653,0.13551 0.323133,0.12508 0.542029,0.43779 0.218896,0.31271 0.333556,0.83389 0.114659,0.52118 0.114659,1.30296 0,0.78177 -0.114659,1.30295 -0.11466,0.52118 -0.333556,0.83389 -0.218896,0.31271 -0.542029,0.44821 -0.323132,0.12509 -0.729653,0.12509 -0.312709,0 -0.562876,-0.073 -0.239743,-0.073 -0.479487,-0.18762 v 2.24108 h -0.938126 v -7.29654 h 0.781772 l 0.05212,0.31271 z m 0.05212,4.16945 q 0.11466,0.0834 0.323133,0.14593 0.208472,0.0625 0.406521,0.0625 0.250167,0 0.448216,-0.0834 0.208472,-0.0938 0.343979,-0.32313 0.145931,-0.23974 0.218896,-0.64627 0.08339,-0.40652 0.08339,-1.03193 0,-0.62542 -0.08339,-1.02152 -0.07296,-0.40652 -0.218896,-0.63584 -0.135507,-0.23974 -0.343979,-0.33356 -0.198049,-0.0938 -0.448216,-0.0938 -0.198049,0 -0.406521,0.0625 -0.208473,0.0625 -0.323133,0.14593 z"
         style="font-style:normal;font-variant:normal;font-weight:normal;font-stretch:normal;font-family:Cuprum;-inkscape-font-specification:Cuprum;text-align:center;text-anchor:middle;fill:#ffffff;stroke-width:0.55840838px"
         id="path1993" />
      <path
         d="m 71.944222,267.89584 q 0,-0.62542 -0.08339,-1.03194 -0.08339,-0.41695 -0.218896,-0.65669 -0.135507,-0.25017 -0.312709,-0.34398 -0.177201,-0.10424 -0.37525,-0.10424 -0.198049,0 -0.37525,0.10424 -0.177202,0.0938 -0.312709,0.34398 -0.135507,0.23974 -0.218896,0.65669 -0.08339,0.40652 -0.08339,1.03194 0,0.62541 0.08339,1.04236 0.08339,0.40652 0.218896,0.65669 0.135507,0.23974 0.312709,0.34398 0.177201,0.0938 0.37525,0.0938 0.198049,0 0.37525,-0.0938 0.177202,-0.10424 0.312709,-0.34398 0.135507,-0.25017 0.218896,-0.65669 0.08339,-0.41695 0.08339,-1.04236 z m 0.938126,0 q 0,0.76092 -0.125083,1.2821 -0.125084,0.52118 -0.375251,0.84431 -0.239743,0.31271 -0.60457,0.44822 -0.354403,0.13551 -0.823466,0.13551 -0.469063,0 -0.83389,-0.13551 -0.354403,-0.13551 -0.60457,-0.44822 -0.239743,-0.32313 -0.364827,-0.84431 -0.125083,-0.52118 -0.125083,-1.2821 0,-0.76093 0.125083,-1.28211 0.125084,-0.52118 0.364827,-0.83389 0.250167,-0.32313 0.60457,-0.45864 0.364827,-0.13551 0.83389,-0.13551 0.469063,0 0.823466,0.13551 0.364827,0.13551 0.60457,0.45864 0.250167,0.31271 0.375251,0.83389 0.125083,0.52118 0.125083,1.28211 z"
         style="font-style:normal;font-variant:normal;font-weight:normal;font-stretch:normal;font-family:Cuprum;-inkscape-font-specification:Cuprum;text-align:center;text-anchor:middle;fill:#ffffff;stroke-width:0.55840838px"
         id="path1995" />
      <path
         d="m 78.158494,269.82421 v 2.18896 h -0.573299 q -0.11466,-0.31271 -0.198049,-0.71923 -0.07296,-0.3961 -0.11466,-0.7922 h -3.022851 q -0.04169,0.3961 -0.125083,0.7922 -0.07296,0.40652 -0.187625,0.71923 h -0.5733 v -2.18896 h 0.469063 q 0.11466,-0.17721 0.271015,-0.53161 0.166778,-0.3544 0.198049,-0.97982 l 0.156354,-3.02285 h 3.074969 v 4.53428 z m -2.793531,-3.85674 -0.125083,2.34531 q -0.03127,0.62542 -0.198049,0.97982 -0.156355,0.3544 -0.271014,0.53161 h 1.824134 v -3.85674 z"
         style="font-style:normal;font-variant:normal;font-weight:normal;font-stretch:normal;font-family:Cuprum;-inkscape-font-specification:Cuprum;text-align:center;text-anchor:middle;fill:#ffffff;stroke-width:0.55840838px"
         id="path1997" />
      <path
         d="m 81.016033,265.81111 q -0.291862,0 -0.521181,0.0938 -0.218896,0.0938 -0.375251,0.33356 -0.14593,0.22932 -0.229319,0.63584 -0.07297,0.3961 -0.07297,1.02152 0,0.62541 0.07297,1.03193 0.08339,0.40653 0.239743,0.64627 0.166778,0.22932 0.406521,0.32313 0.250167,0.0834 0.583723,0.0834 h 1.042362 v 0.41694 q -0.239743,0.0834 -0.594146,0.14594 -0.34398,0.0625 -0.656688,0.0625 -0.531605,0 -0.917279,-0.12509 -0.375251,-0.1355 -0.625418,-0.44821 -0.250167,-0.31271 -0.37525,-0.83389 -0.11466,-0.52118 -0.11466,-1.30295 0,-0.78178 0.11466,-1.30296 0.125083,-0.52118 0.364827,-0.83389 0.239743,-0.31271 0.594146,-0.43779 0.364827,-0.13551 0.854737,-0.13551 0.312709,0 0.656689,0.0625 0.354403,0.0625 0.594146,0.14593 v 0.41694 z"
         style="font-style:normal;font-variant:normal;font-weight:normal;font-stretch:normal;font-family:Cuprum;-inkscape-font-specification:Cuprum;text-align:center;text-anchor:middle;fill:#ffffff;stroke-width:0.55840838px"
         id="path1999" />
      <path
         d="m 85.122939,267.76033 q 0.281438,0.0625 0.48991,0.26059 0.218896,0.19805 0.354403,0.70881 l 0.260591,0.99024 q 0.0417,0.15635 0.177202,0.26059 0.135507,0.10424 0.448215,0.10424 v 0.41694 q -0.07297,0.0313 -0.166778,0.0521 -0.177201,0.0521 -0.406521,0.0521 -0.437792,0 -0.687959,-0.2189 -0.239743,-0.22932 -0.354403,-0.66711 l -0.260591,-0.99024 q -0.177201,-0.62542 -0.687959,-0.62542 h -0.354403 v 2.39743 H 82.99652 v -5.21181 h 0.938126 v 2.13684 h 0.354403 q 0.166778,0 0.312709,-0.1355 0.145931,-0.13551 0.271014,-0.48992 l 0.260591,-0.72965 q 0.166778,-0.45864 0.385674,-0.66711 0.218896,-0.2189 0.656688,-0.2189 0.09381,0 0.198049,0.0208 0.104236,0.0104 0.187625,0.0313 0.104236,0.0313 0.187625,0.0521 v 0.41694 q -0.312708,0 -0.448216,0.10424 -0.125083,0.10424 -0.177201,0.26059 l -0.260591,0.72965 q -0.166778,0.46907 -0.333556,0.66712 -0.166778,0.18762 -0.406521,0.25016 z"
         style="font-style:normal;font-variant:normal;font-weight:normal;font-stretch:normal;font-family:Cuprum;-inkscape-font-specification:Cuprum;text-align:center;text-anchor:middle;fill:#ffffff;stroke-width:0.55840838px"
         id="path2001" />
      <path
         d="m 90.24664,267.89584 q 0,-0.62542 -0.08339,-1.03194 -0.08339,-0.41695 -0.218896,-0.65669 -0.135507,-0.25017 -0.312709,-0.34398 -0.177201,-0.10424 -0.37525,-0.10424 -0.198049,0 -0.375251,0.10424 -0.177201,0.0938 -0.312708,0.34398 -0.135507,0.23974 -0.218896,0.65669 -0.08339,0.40652 -0.08339,1.03194 0,0.62541 0.08339,1.04236 0.08339,0.40652 0.218896,0.65669 0.135507,0.23974 0.312708,0.34398 0.177202,0.0938 0.375251,0.0938 0.198049,0 0.37525,-0.0938 0.177202,-0.10424 0.312709,-0.34398 0.135507,-0.25017 0.218896,-0.65669 0.08339,-0.41695 0.08339,-1.04236 z m 0.938126,0 q 0,0.76092 -0.125083,1.2821 -0.125084,0.52118 -0.375251,0.84431 -0.239743,0.31271 -0.60457,0.44822 -0.354403,0.13551 -0.823466,0.13551 -0.469063,0 -0.83389,-0.13551 -0.354403,-0.13551 -0.60457,-0.44822 -0.239744,-0.32313 -0.364827,-0.84431 -0.125084,-0.52118 -0.125084,-1.2821 0,-0.76093 0.125084,-1.28211 0.125083,-0.52118 0.364827,-0.83389 0.250167,-0.32313 0.60457,-0.45864 0.364827,-0.13551 0.83389,-0.13551 0.469063,0 0.823466,0.13551 0.364827,0.13551 0.60457,0.45864 0.250167,0.31271 0.375251,0.83389 0.125083,0.52118 0.125083,1.28211 z"
         style="font-style:normal;font-variant:normal;font-weight:normal;font-stretch:normal;font-family:Cuprum;-inkscape-font-specification:Cuprum;text-align:center;text-anchor:middle;fill:#ffffff;stroke-width:0.55840838px"
         id="path2003" />
      <path
         d="m 95.363987,265.28993 v 0.67754 h -2.084725 v 4.53427 h -0.938126 v -5.21181 z"
         style="font-style:normal;font-variant:normal;font-weight:normal;font-stretch:normal;font-family:Cuprum;-inkscape-font-specification:Cuprum;text-align:center;text-anchor:middle;fill:#ffffff;stroke-width:0.55840838px"
         id="path2005" />
      <path
         d="m 98.756551,267.89584 q 0,-0.62542 -0.08339,-1.03194 -0.08339,-0.41695 -0.218897,-0.65669 -0.135507,-0.25017 -0.312708,-0.34398 -0.177202,-0.10424 -0.375251,-0.10424 -0.198049,0 -0.37525,0.10424 -0.177202,0.0938 -0.312709,0.34398 -0.135507,0.23974 -0.218896,0.65669 -0.08339,0.40652 -0.08339,1.03194 0,0.62541 0.08339,1.04236 0.08339,0.40652 0.218896,0.65669 0.135507,0.23974 0.312709,0.34398 0.177201,0.0938 0.37525,0.0938 0.198049,0 0.375251,-0.0938 0.177201,-0.10424 0.312708,-0.34398 0.135508,-0.25017 0.218897,-0.65669 0.08339,-0.41695 0.08339,-1.04236 z m 0.938126,0 q 0,0.76092 -0.125084,1.2821 -0.125083,0.52118 -0.37525,0.84431 -0.239744,0.31271 -0.60457,0.44822 -0.354404,0.13551 -0.823467,0.13551 -0.469063,0 -0.83389,-0.13551 -0.354403,-0.13551 -0.60457,-0.44822 -0.239743,-0.32313 -0.364826,-0.84431 -0.125084,-0.52118 -0.125084,-1.2821 0,-0.76093 0.125084,-1.28211 0.125083,-0.52118 0.364826,-0.83389 0.250167,-0.32313 0.60457,-0.45864 0.364827,-0.13551 0.83389,-0.13551 0.469063,0 0.823467,0.13551 0.364826,0.13551 0.60457,0.45864 0.250167,0.31271 0.37525,0.83389 0.125084,0.52118 0.125084,1.28211 z"
         style="font-style:normal;font-variant:normal;font-weight:normal;font-stretch:normal;font-family:Cuprum;-inkscape-font-specification:Cuprum;text-align:center;text-anchor:middle;fill:#ffffff;stroke-width:0.55840838px"
         id="path2007" />
      <path
         d="m 106.1671,267.89584 q 0,-0.62542 -0.0834,-1.03194 -0.0834,-0.41695 -0.2189,-0.65669 -0.13551,-0.25017 -0.31271,-0.34398 -0.1772,-0.10424 -0.37525,-0.10424 -0.19805,0 -0.37525,0.10424 -0.1772,0.0938 -0.31271,0.34398 -0.1355,0.23974 -0.21889,0.65669 -0.0834,0.40652 -0.0834,1.03194 0,0.62541 0.0834,1.04236 0.0834,0.40652 0.21889,0.65669 0.13551,0.23974 0.31271,0.34398 0.1772,0.0938 0.37525,0.0938 0.19805,0 0.37525,-0.0938 0.1772,-0.10424 0.31271,-0.34398 0.13551,-0.25017 0.2189,-0.65669 0.0834,-0.41695 0.0834,-1.04236 z m 0.93812,0 q 0,0.76092 -0.12508,1.2821 -0.12509,0.52118 -0.37525,0.84431 -0.23975,0.31271 -0.60457,0.44822 -0.35441,0.13551 -0.82347,0.13551 -0.46906,0 -0.83389,-0.13551 -0.3544,-0.13551 -0.60457,-0.44822 -0.23974,-0.32313 -0.36483,-0.84431 -0.12508,-0.52118 -0.12508,-1.2821 0,-0.76093 0.12508,-1.28211 0.12509,-0.52118 0.36483,-0.83389 0.25017,-0.32313 0.60457,-0.45864 0.36483,-0.13551 0.83389,-0.13551 0.46906,0 0.82347,0.13551 0.36482,0.13551 0.60457,0.45864 0.25016,0.31271 0.37525,0.83389 0.12508,0.52118 0.12508,1.28211 z"
         style="font-style:normal;font-variant:normal;font-weight:normal;font-stretch:normal;font-family:Cuprum;-inkscape-font-specification:Cuprum;text-align:center;text-anchor:middle;fill:#ffffff;stroke-width:0.55840838px"
         id="path2009" />
      <path
         d="m 110.38801,267.76033 q 0.28144,0.0625 0.48991,0.26059 0.2189,0.19805 0.3544,0.70881 l 0.26059,0.99024 q 0.0417,0.15635 0.17721,0.26059 0.1355,0.10424 0.44821,0.10424 v 0.41694 q -0.073,0.0313 -0.16678,0.0521 -0.1772,0.0521 -0.40652,0.0521 -0.43779,0 -0.68796,-0.2189 -0.23974,-0.22932 -0.3544,-0.66711 l -0.26059,-0.99024 q -0.1772,-0.62542 -0.68796,-0.62542 h -0.3544 v 2.39743 h -0.93813 v -5.21181 h 0.93813 v 2.13684 h 0.3544 q 0.16678,0 0.31271,-0.1355 0.14593,-0.13551 0.27101,-0.48992 l 0.26059,-0.72965 q 0.16678,-0.45864 0.38568,-0.66711 0.21889,-0.2189 0.65669,-0.2189 0.0938,0 0.19805,0.0208 0.10423,0.0104 0.18762,0.0313 0.10424,0.0313 0.18763,0.0521 v 0.41694 q -0.31271,0 -0.44822,0.10424 -0.12508,0.10424 -0.1772,0.26059 l -0.26059,0.72965 q -0.16678,0.46907 -0.33356,0.66712 -0.16678,0.18762 -0.40652,0.25016 z"
         style="font-style:normal;font-variant:normal;font-weight:normal;font-stretch:normal;font-family:Cuprum;-inkscape-font-specification:Cuprum;text-align:center;text-anchor:middle;fill:#ffffff;stroke-width:0.55840838px"
         id="path2011" />
      <path
         d="m 113.78937,265.60264 q 0.19805,-0.19805 0.48991,-0.30229 0.29186,-0.11466 0.60457,-0.11466 0.40652,0 0.72965,0.13551 0.32314,0.12508 0.54203,0.43779 0.2189,0.31271 0.33356,0.83389 0.11466,0.52118 0.11466,1.30296 0,0.78177 -0.11466,1.30295 -0.11466,0.52118 -0.33356,0.83389 -0.21889,0.31271 -0.54203,0.44821 -0.32313,0.12509 -0.72965,0.12509 -0.31271,0 -0.56288,-0.073 -0.23974,-0.073 -0.47948,-0.18762 v 2.24108 h -0.93813 v -7.29654 h 0.78177 l 0.0521,0.31271 z m 0.0521,4.16945 q 0.11466,0.0834 0.32313,0.14593 0.20847,0.0625 0.40652,0.0625 0.25017,0 0.44822,-0.0834 0.20847,-0.0938 0.34398,-0.32313 0.14593,-0.23974 0.21889,-0.64627 0.0834,-0.40652 0.0834,-1.03193 0,-0.62542 -0.0834,-1.02152 -0.073,-0.40652 -0.21889,-0.63584 -0.13551,-0.23974 -0.34398,-0.33356 -0.19805,-0.0938 -0.44822,-0.0938 -0.19805,0 -0.40652,0.0625 -0.20847,0.0625 -0.32313,0.14593 z"
         style="font-style:normal;font-variant:normal;font-weight:normal;font-stretch:normal;font-family:Cuprum;-inkscape-font-specification:Cuprum;text-align:center;text-anchor:middle;fill:#ffffff;stroke-width:0.55840838px"
         id="path2013" />
      <path
         d="m 119.46861,270.60598 q -0.51075,0 -0.81304,-0.32314 -0.30228,-0.33355 -0.43779,-0.9277 l -0.93813,-4.06521 h 0.93813 l 0.93813,4.06521 q 0.073,0.31271 0.18762,0.44822 0.11466,0.12508 0.25017,0.12508 l 0.86516,-4.63851 h 0.93813 l -0.99025,5.31605 q -0.20847,1.09448 -0.61499,1.58439 -0.40652,0.50033 -1.10491,0.50033 -0.23974,0 -0.48991,-0.0625 -0.25016,-0.0625 -0.44821,-0.14593 v -0.41695 h 0.72965 q 0.19805,0 0.34398,-0.0625 0.14593,-0.0521 0.26059,-0.21889 0.12508,-0.15636 0.20847,-0.44822 0.0938,-0.28144 0.1772,-0.72965 z"
         style="font-style:normal;font-variant:normal;font-weight:normal;font-stretch:normal;font-family:Cuprum;-inkscape-font-specification:Cuprum;text-align:center;text-anchor:middle;fill:#ffffff;stroke-width:0.55840838px"
         id="path2015" />
      <path
         d="m 125.41334,265.28993 v 0.67754 h -2.08473 v 4.53427 h -0.93812 v -5.21181 z"
         style="font-style:normal;font-variant:normal;font-weight:normal;font-stretch:normal;font-family:Cuprum;-inkscape-font-specification:Cuprum;text-align:center;text-anchor:middle;fill:#ffffff;stroke-width:0.55840838px"
         id="path2017" />
      <path
         d="m 128.3914,267.94795 h -0.72966 q -0.39609,0 -0.66711,0.20848 -0.27101,0.19804 -0.27101,0.78177 0,0.31271 0.073,0.52118 0.073,0.19805 0.19805,0.31271 0.12509,0.11466 0.29186,0.16678 0.1772,0.0417 0.37525,0.0417 0.19805,0 0.40653,-0.0625 0.20847,-0.0625 0.32313,-0.14593 z m -1.04236,2.65803 q -0.35441,0 -0.64627,-0.073 -0.28144,-0.0625 -0.48991,-0.25017 -0.19805,-0.18762 -0.31271,-0.51075 -0.11466,-0.32313 -0.11466,-0.83389 0,-0.48991 0.11466,-0.80262 0.11466,-0.31271 0.31271,-0.48991 0.20847,-0.18763 0.48991,-0.25017 0.29186,-0.073 0.64627,-0.073 0.23974,0 0.52118,0.0313 0.28143,0.0313 0.52118,0.073 v -0.46906 q 0,-0.3544 -0.0834,-0.5733 -0.073,-0.22932 -0.2189,-0.3544 -0.14593,-0.12509 -0.36482,-0.16678 -0.20848,-0.0521 -0.47949,-0.0521 h -1.04236 v -0.41694 q 0.23974,-0.0834 0.58372,-0.14593 0.3544,-0.0625 0.66711,-0.0625 0.46906,0 0.81304,0.073 0.35441,0.073 0.58373,0.27101 0.23974,0.18763 0.3544,0.54203 0.12508,0.34398 0.12508,0.88601 v 3.54403 h -0.78177 l -0.0521,-0.31271 h -0.0521 q -0.19805,0.19805 -0.48991,0.31271 -0.29187,0.10424 -0.60457,0.10424 z"
         style="font-style:normal;font-variant:normal;font-weight:normal;font-stretch:normal;font-family:Cuprum;-inkscape-font-specification:Cuprum;text-align:center;text-anchor:middle;fill:#ffffff;stroke-width:0.55840838px"
         id="path2019" />
      <path
         d="m 76.149096,277.40105 q 0,0.58372 0.145931,1.03194 0.14593,0.44822 0.396097,0.76092 0.260591,0.30229 0.594147,0.46907 0.343979,0.16678 0.740077,0.18762 v -4.8991 q -0.396098,0.0208 -0.740077,0.18763 -0.333556,0.16677 -0.594147,0.47948 -0.250167,0.30229 -0.396097,0.7505 -0.145931,0.44822 -0.145931,1.03194 z m 2.814378,-3.12709 q 0.646265,0.0417 1.167446,0.2606 0.521181,0.21889 0.886008,0.61499 0.364827,0.3961 0.562876,0.9694 0.198048,0.56287 0.198048,1.2821 0,0.71923 -0.198048,1.29253 -0.198049,0.56288 -0.562876,0.95897 -0.364827,0.3961 -0.886008,0.615 -0.521181,0.21889 -1.167446,0.26059 v 0.72965 h -0.938126 v -0.72965 q -0.646265,-0.0417 -1.167446,-0.26059 -0.521181,-0.2189 -0.886008,-0.615 -0.364826,-0.39609 -0.562875,-0.95897 -0.198049,-0.5733 -0.198049,-1.29253 0,-0.71923 0.198049,-1.2821 0.198049,-0.5733 0.562875,-0.9694 0.364827,-0.3961 0.886008,-0.61499 0.521181,-0.2189 1.167446,-0.2606 v -0.72965 h 0.938126 z m 1.876252,3.12709 q 0,-0.58372 -0.14593,-1.03194 -0.145931,-0.44821 -0.406522,-0.7505 -0.250167,-0.31271 -0.594146,-0.47948 -0.34398,-0.16678 -0.729654,-0.18763 v 4.8991 q 0.385674,-0.0208 0.729654,-0.18762 0.343979,-0.16678 0.594146,-0.46907 0.260591,-0.3127 0.406522,-0.76092 0.14593,-0.44822 0.14593,-1.03194 z"
         style="font-style:normal;font-variant:normal;font-weight:normal;font-stretch:normal;font-family:Cuprum;-inkscape-font-specification:Cuprum;text-align:center;text-anchor:middle;fill:#ffffff;stroke-width:0.55840838px"
         id="path2021" />
      <path
         d="m 83.648404,276.15022 q 0.198049,-0.19805 0.489911,-0.30229 0.291861,-0.11466 0.60457,-0.11466 0.406521,0 0.729653,0.13551 0.323133,0.12508 0.542029,0.43779 0.218896,0.31271 0.333556,0.83389 0.11466,0.52118 0.11466,1.30295 0,0.78178 -0.11466,1.30296 -0.11466,0.52118 -0.333556,0.83389 -0.218896,0.31271 -0.542029,0.44821 -0.323132,0.12509 -0.729653,0.12509 -0.312709,0 -0.562876,-0.073 -0.239743,-0.073 -0.479487,-0.18762 v 2.24107 h -0.938126 v -7.29653 h 0.781772 l 0.05212,0.31271 z m 0.05212,4.16945 q 0.11466,0.0834 0.323133,0.14593 0.208472,0.0625 0.406521,0.0625 0.250167,0 0.448216,-0.0834 0.208472,-0.0938 0.343979,-0.32313 0.145931,-0.23975 0.218897,-0.64627 0.08339,-0.40652 0.08339,-1.03194 0,-0.62541 -0.08339,-1.02151 -0.07297,-0.40652 -0.218897,-0.63584 -0.135507,-0.23975 -0.343979,-0.33356 -0.198049,-0.0938 -0.448216,-0.0938 -0.198049,0 -0.406521,0.0625 -0.208473,0.0625 -0.323133,0.14593 z"
         style="font-style:normal;font-variant:normal;font-weight:normal;font-stretch:normal;font-family:Cuprum;-inkscape-font-specification:Cuprum;text-align:center;text-anchor:middle;fill:#ffffff;stroke-width:0.55840838px"
         id="path2023" />
      <path
         d="m 89.223414,276.35869 q -0.469063,0 -0.729654,0.20847 -0.26059,0.19805 -0.26059,0.78177 0,0.58373 0.26059,0.7922 0.260591,0.19805 0.729654,0.19805 h 0.729654 v -1.98049 z m -0.667112,2.4287 q -0.26059,-0.0104 -0.48991,-0.11466 -0.22932,-0.11466 -0.406521,-0.30228 -0.166778,-0.18763 -0.271015,-0.44822 -0.09381,-0.26059 -0.09381,-0.5733 0,-0.48991 0.125083,-0.80262 0.135507,-0.3127 0.385674,-0.48991 0.250167,-0.18762 0.60457,-0.25016 0.364827,-0.073 0.813043,-0.073 0.469063,0 0.865161,0.0521 0.406521,0.0417 0.802619,0.15635 v 5.10758 h -0.938126 v -2.03261 h -0.354404 q -0.48991,0 -0.687959,0.52118 l -0.26059,0.72966 q -0.166778,0.45864 -0.385674,0.67753 -0.218896,0.20848 -0.656689,0.20848 -0.198048,0 -0.385674,-0.0521 -0.104236,-0.0209 -0.187625,-0.0521 v -0.41695 q 0.312709,0 0.437792,-0.10423 0.135507,-0.10424 0.187626,-0.26059 l 0.26059,-0.72966 q 0.125084,-0.3544 0.271014,-0.50033 0.156355,-0.14593 0.364827,-0.20847 z"
         style="font-style:normal;font-variant:normal;font-weight:normal;font-stretch:normal;font-family:Cuprum;-inkscape-font-specification:Cuprum;text-align:center;text-anchor:middle;fill:#ffffff;stroke-width:0.55840838px"
         id="path2025" />
      <path
         d="m 93.083412,275.73327 q 0.48991,0 0.844313,0.073 0.364827,0.0625 0.60457,0.22932 0.239744,0.16677 0.354403,0.44821 0.125084,0.28144 0.125084,0.70881 0,0.25017 -0.07296,0.43779 -0.07297,0.1772 -0.187626,0.30229 -0.114659,0.12508 -0.271014,0.20847 -0.145931,0.073 -0.302285,0.12508 v 0.0417 q 0.177202,0.0521 0.34398,0.14593 0.166778,0.0938 0.302285,0.25016 0.135507,0.15636 0.208472,0.37525 0.08339,0.2189 0.08339,0.51076 0,0.46907 -0.125083,0.77135 -0.11466,0.30229 -0.375251,0.47949 -0.26059,0.1772 -0.667112,0.23974 -0.406521,0.073 -0.969397,0.073 -0.312708,0 -0.667111,-0.0626 -0.34398,-0.0625 -0.583723,-0.14593 v -0.41694 h 1.250834 q 0.594147,0 0.896432,-0.18763 0.302285,-0.19805 0.302285,-0.7505 0,-0.54203 -0.271014,-0.74007 -0.260591,-0.19805 -0.614994,-0.19805 h -0.886008 v -0.62542 h 0.781772 q 0.354403,0 0.614994,-0.1772 0.271014,-0.18763 0.271014,-0.65669 0,-0.46906 -0.302285,-0.64627 -0.302285,-0.18762 -0.896432,-0.18762 h -1.042362 v -0.41695 q 0.239743,-0.0834 0.583723,-0.14593 0.354403,-0.0625 0.667112,-0.0625 z"
         style="font-style:normal;font-variant:normal;font-weight:normal;font-stretch:normal;font-family:Cuprum;-inkscape-font-specification:Cuprum;text-align:center;text-anchor:middle;fill:#ffffff;stroke-width:0.55840838px"
         id="path2027" />
      <path
         d="m 98.929598,277.40105 h -0.05212 l -1.66778,3.64827 h -0.990244 v -5.21181 h 0.938126 v 3.54403 h 0.05212 l 1.563544,-3.54403 h 1.09448 v 5.21181 h -0.938126 z"
         style="font-style:normal;font-variant:normal;font-weight:normal;font-stretch:normal;font-family:Cuprum;-inkscape-font-specification:Cuprum;text-align:center;text-anchor:middle;fill:#ffffff;stroke-width:0.55840838px"
         id="path2029" />
      <path
         d="m 102.16581,281.04932 h -0.93813 v -5.21181 h 0.93813 v 2.24108 h 1.7199 v -2.24108 h 0.93812 v 5.21181 h -0.93812 v -2.2932 h -1.7199 z"
         style="font-style:normal;font-variant:normal;font-weight:normal;font-stretch:normal;font-family:Cuprum;-inkscape-font-specification:Cuprum;text-align:center;text-anchor:middle;fill:#ffffff;stroke-width:0.55840838px"
         id="path2031" />
      <path
         d="m 108.88497,278.44341 q 0,-0.62541 -0.0834,-1.03193 -0.0834,-0.41695 -0.21889,-0.65669 -0.13551,-0.25017 -0.31271,-0.34398 -0.1772,-0.10424 -0.37525,-0.10424 -0.19805,0 -0.37525,0.10424 -0.1772,0.0938 -0.31271,0.34398 -0.13551,0.23974 -0.2189,0.65669 -0.0834,0.40652 -0.0834,1.03193 0,0.62542 0.0834,1.04237 0.0834,0.40652 0.2189,0.65668 0.13551,0.23975 0.31271,0.34398 0.1772,0.0938 0.37525,0.0938 0.19805,0 0.37525,-0.0938 0.1772,-0.10423 0.31271,-0.34398 0.1355,-0.25016 0.21889,-0.65668 0.0834,-0.41695 0.0834,-1.04237 z m 0.93813,0 q 0,0.76093 -0.12509,1.28211 -0.12508,0.52118 -0.37525,0.84431 -0.23974,0.31271 -0.60457,0.44822 -0.3544,0.13551 -0.82346,0.13551 -0.46907,0 -0.83389,-0.13551 -0.35441,-0.13551 -0.60457,-0.44822 -0.23975,-0.32313 -0.36483,-0.84431 -0.12508,-0.52118 -0.12508,-1.28211 0,-0.76092 0.12508,-1.2821 0.12508,-0.52118 0.36483,-0.83389 0.25016,-0.32313 0.60457,-0.45864 0.36482,-0.13551 0.83389,-0.13551 0.46906,0 0.82346,0.13551 0.36483,0.13551 0.60457,0.45864 0.25017,0.31271 0.37525,0.83389 0.12509,0.52118 0.12509,1.2821 z"
         style="font-style:normal;font-variant:normal;font-weight:normal;font-stretch:normal;font-family:Cuprum;-inkscape-font-specification:Cuprum;text-align:center;text-anchor:middle;fill:#ffffff;stroke-width:0.55840838px"
         id="path2033" />
    </g>
  </g>
</svg>
